<?xml version="1.0" encoding="UTF-8"?>
<svg id="svg2" xmlns="http://www.w3.org/2000/svg" viewBox="0 0 1000 1000">
  <defs>
    <style>
      .cls-1 {
        fill: #febd18;
      }

      .cls-2 {
        fill: #fff;
      }
    </style>
  </defs>
  <rect class="cls-2" width="1000" height="1000"/>
  <g>
    <path id="path4490" class="cls-1" d="M942.91,636.12v-272.23s-885.82,0-885.82,0v272.24h885.82"/>
    <path id="path4494" d="M95.22,402.02h809.6v15.35H95.22v-15.35Z"/>
    <path id="path4496" d="M95.22,582.46h809.57v15.34H95.22v-15.34Z"/>
    <path id="path4500" d="M782,425.07h122.83v42.25h-33.29v107.13h-56.37v-107.13h-33.17v-42.25"/>
    <path id="path4504" d="M697.53,425.07v149.38h102.35v-44.52h-46.07v-104.86h-56.28"/>
    <path id="path4508" d="M582.27,425.04h61.83l47.4,149.4h-55.07l-5.64-22.74h-34.53l-5.13,22.74h-57.49l48.64-149.4ZM603.93,518.47h19.18l-9.37-43.5-9.81,43.5"/>
    <path id="path4512" d="M552.59,425.04h-55.01l-15.35,72.94-16.65-72.94h-48.63l-15.69,72.94-15.01-72.94h-54.94l41.07,149.4h51.01l17.15-72.9,17.6,72.9h52.24l42.21-149.41"/>
    <path id="path4516" d="M250.31,457.03h81.95v30.74h-39.66v12.76h34.53v30.75h-34.53v12.75h39.66v30.41h-81.95v-117.41"/>
    <path id="path4520" d="M95.26,574.44v-149.4h69.98c41.33,0,74.19,22.51,74.19,75.01s-31.82,74.39-74.46,74.39h-69.71ZM153.03,529.7c17.73,0,29.44-7.45,29.44-30.15,0-24.92-11.61-31.57-29.33-31.57h-4.53v61.72h4.41"/>
    <path id="path4524" d="M879.15,562c0-7.02,5.7-12.2,12.43-12.2s12.37,5.18,12.37,12.2-5.7,12.27-12.37,12.27-12.43-5.18-12.43-12.27ZM891.58,572.24c5.54,0,9.91-4.34,9.91-10.24s-4.37-10.16-9.91-10.16-9.97,4.37-9.97,10.16,4.38,10.24,9.97,10.24ZM889.19,563.6h2.01l2.67,4.5h3.05l-3.14-4.69c2.12-.26,3.56-1.57,3.56-4.14,0-2.15-1.69-3.75-5.09-3.75h-5.4v12.58h2.34v-4.5ZM889.19,561.49v-4.04h2.73c1.52,0,3.24.1,3.24,1.95,0,2.12-1.39,2.09-3.24,2.09h-2.72"/>
  </g>
</svg>