<svg width="38" height="40" viewBox="0 0 38 40" fill="none" xmlns="http://www.w3.org/2000/svg">
<path fill-rule="evenodd" clip-rule="evenodd" d="M9.00339 37.4029C11.8386 39.0677 15.1283 40 18.6128 40C22.0973 40 25.387 39.0455 28.2222 37.4029C32.4858 34.9168 35.7538 30.8324 37.2256 25.9489H29.7588L18.5911 37.4029L7.42347 25.9489L19.024 14.0511H37.2256C35.7538 9.16759 32.4858 5.08324 28.2222 2.59711C25.387 0.954495 22.0973 0 18.6128 0C15.1283 0 11.8386 0.954495 9.00339 2.59711C4.73976 5.08324 1.47171 9.16759 0 14.0511H7.46675L18.6344 2.59711L29.8021 14.0511L18.2016 25.9489H0C1.47171 30.8324 4.73976 34.9168 9.00339 37.4029Z" fill="#165129"/>
</svg>
