<?xml version="1.0" encoding="UTF-8" standalone="no"?>
<!-- Created with Inkscape (http://www.inkscape.org/) -->

<svg
   xmlns:dc="http://purl.org/dc/elements/1.1/"
   xmlns:cc="http://creativecommons.org/ns#"
   xmlns:rdf="http://www.w3.org/1999/02/22-rdf-syntax-ns#"
   xmlns:svg="http://www.w3.org/2000/svg"
   xmlns="http://www.w3.org/2000/svg"
   xmlns:sodipodi="http://sodipodi.sourceforge.net/DTD/sodipodi-0.dtd"
   xmlns:inkscape="http://www.inkscape.org/namespaces/inkscape"
   width="115.39302"
   height="32.34132"
   viewBox="0 0 30.53107 8.5569742"
   version="1.1"
   id="svg2357"
   inkscape:version="0.92.0 r15299"
   sodipodi:docname="greenlee.svg">
  <defs
     id="defs2351" />
  <sodipodi:namedview
     id="base"
     pagecolor="#ffffff"
     bordercolor="#666666"
     borderopacity="1.0"
     inkscape:pageopacity="0.0"
     inkscape:pageshadow="2"
     inkscape:zoom="7.8413872"
     inkscape:cx="57.196512"
     inkscape:cy="15.67065"
     inkscape:document-units="mm"
     inkscape:current-layer="layer1"
     showgrid="false"
     fit-margin-top="0"
     fit-margin-left="0"
     fit-margin-right="0"
     fit-margin-bottom="0"
     units="px"
     inkscape:window-width="1280"
     inkscape:window-height="744"
     inkscape:window-x="-4"
     inkscape:window-y="-4"
     inkscape:window-maximized="1" />
  <metadata
     id="metadata2354">
    <rdf:RDF>
      <cc:Work
         rdf:about="">
        <dc:format>image/svg+xml</dc:format>
        <dc:type
           rdf:resource="http://purl.org/dc/dcmitype/StillImage" />
        <dc:title></dc:title>
      </cc:Work>
    </rdf:RDF>
  </metadata>
  <g
     inkscape:label="Layer 1"
     inkscape:groupmode="layer"
     id="layer1"
     transform="translate(2.6600297,-144.42256)">
    <g
       id="g2489"
       transform="translate(0.13229117,-0.13228785)">
      <path
         inkscape:connector-curvature="0"
         id="path70"
         style="fill:#8dc63f;fill-opacity:1;fill-rule:nonzero;stroke:none;stroke-width:0.35277778"
         d="m 1.4861674,144.68714 -4.1461971,4.14584 4.1461971,4.14655 4.1465499,-4.14584 z m 0,6.49076 c -1.29504719,0 -2.34456106,-1.04952 -2.34456106,-2.34492 0,-1.29504 1.04951387,-2.34456 2.34456106,-2.34456 1.2954,0 2.3449138,1.04952 2.3449138,2.34456 0,1.2954 -1.0495138,2.34492 -2.3449138,2.34492" />
      <path
         inkscape:connector-curvature="0"
         id="path74"
         style="fill:#8dc63f;fill-opacity:1;fill-rule:nonzero;stroke:none;stroke-width:0.35277778"
         d="M 2.0656764,149.21289 H 1.4603097 v -0.60713 h 1.4291028 v 1.67393 c -0.6674555,0.10407 -0.7951611,0.16863 -1.5116528,0.16863 -0.92709993,-0.03 -1.49189714,-0.65017 -1.49189714,-1.62984 0,-0.98036 0.56479721,-1.6002 1.49189714,-1.63089 0.720725,-0.0219 1.4784917,0.0914 1.4911917,1.00189 H 2.0448625 c -0.041275,-0.30374 -0.2677583,-0.3944 -0.53975,-0.3944 -0.55597774,0 -0.75388607,0.51576 -0.75388607,1.0234 0,0.6156 0.29315837,1.02306 0.88582497,1.02306 0.1527528,0 0.3048,-0.0258 0.428625,-0.0515 z" />
      <path
         inkscape:connector-curvature="0"
         id="path78"
         style="fill:#8dc63f;fill-opacity:1;fill-rule:nonzero;stroke:none;stroke-width:0.35277778"
         d="m 27.226869,150.09064 c -0.173919,0 -0.314678,-0.14076 -0.314678,-0.31468 0,-0.17215 0.140759,-0.31326 0.314678,-0.31326 0.173214,0 0.312914,0.14111 0.312914,0.31326 0,0.17392 -0.1397,0.31468 -0.312914,0.31468 m 0,0.0667 c 0.210608,0 0.379589,-0.17003 0.379589,-0.38135 0,-0.2099 -0.168981,-0.37994 -0.379589,-0.37994 -0.211667,0 -0.381353,0.17004 -0.381353,0.37994 0,0.21132 0.169686,0.38135 0.381353,0.38135 m -0.02223,-0.35665 c 0.02434,0.002 0.04763,0 0.06491,0.0183 0.02011,0.0212 0.02011,0.0568 0.02505,0.0956 0.0032,0.0258 0.01023,0.0543 0.01517,0.0794 h 0.0889 c -0.01482,-0.0402 -0.02011,-0.0868 -0.02575,-0.12947 -0.0078,-0.0483 -0.01446,-0.0759 -0.0762,-0.0875 v -0.002 c 0.05962,-0.0123 0.09102,-0.0529 0.09102,-0.10442 0,-0.10125 -0.08502,-0.12347 -0.167217,-0.12347 H 27.07588 v 0.44732 h 0.0702 v -0.19332 z m -0.05856,-0.0695 v -0.1143 h 0.08396 c 0.05574,0 0.07091,0.0169 0.07091,0.0501 0,0.0349 -0.01517,0.0621 -0.08114,0.0642 z" />
      <path
         inkscape:connector-curvature="0"
         id="path82"
         style="fill:#8dc63f;fill-opacity:1;fill-rule:nonzero;stroke:none;stroke-width:0.35277778"
         d="m 10.434161,148.11812 v 0.51364 h 0.236361 c 0.226836,0 0.40252,-0.037 0.40252,-0.25752 0,-0.22084 -0.175684,-0.25612 -0.40252,-0.25612 z m 0.936272,0.73872 c 0.318206,0.0649 0.38982,0.29598 0.428978,0.63429 0.01905,0.2279 0.06068,0.42157 0.125589,0.641 h -0.820914 c -0.04198,-0.1898 -0.0635,-0.36583 -0.0829,-0.5588 -0.02646,-0.28928 -0.0321,-0.39511 -0.360891,-0.39511 h -0.226131 v 0.95391 H 9.6763944 v -2.56223 h 1.1878026 c 0.417336,0 1.000831,0.11254 1.000831,0.67628 0,0.33196 -0.214842,0.53022 -0.494595,0.61066" />
      <path
         inkscape:connector-curvature="0"
         id="path86"
         style="fill:#8dc63f;fill-opacity:1;fill-rule:nonzero;stroke:none;stroke-width:0.35277778"
         d="m 12.249229,147.57004 h 1.967442 v 0.55033 h -1.209323 v 0.44874 h 1.113014 v 0.54998 h -1.113014 v 0.46284 h 1.209323 v 0.55033 h -1.967442 z" />
      <path
         inkscape:connector-curvature="0"
         id="path90"
         style="fill:#8dc63f;fill-opacity:1;fill-rule:nonzero;stroke:none;stroke-width:0.35277778"
         d="m 14.618467,147.57004 h 1.967442 v 0.55033 h -1.210028 v 0.44874 h 1.113367 v 0.54998 h -1.113367 v 0.46284 h 1.210028 v 0.55033 h -1.967442 z" />
      <path
         inkscape:connector-curvature="0"
         id="path94"
         style="fill:#8dc63f;fill-opacity:1;fill-rule:nonzero;stroke:none;stroke-width:0.35277778"
         d="M 17.661837,148.32825 V 150.132 H 16.97392 v -2.56187 h 1.02235 l 0.788811,1.75401 v -1.75401 h 0.68827 v 2.56187 h -1.011767 z" />
      <path
         inkscape:connector-curvature="0"
         id="path98"
         style="fill:#8dc63f;fill-opacity:1;fill-rule:nonzero;stroke:none;stroke-width:0.35277778"
         d="m 19.923204,147.57004 h 0.757767 v 2.01189 h 1.1303 v 0.55033 h -1.888067 z" />
      <path
         inkscape:connector-curvature="0"
         id="path102"
         style="fill:#8dc63f;fill-opacity:1;fill-rule:nonzero;stroke:none;stroke-width:0.35277778"
         d="m 22.10562,147.57004 h 1.967442 v 0.55033 h -1.209675 v 0.44874 h 1.112661 v 0.54998 h -1.112661 v 0.46284 h 1.209675 v 0.55033 H 22.10562 Z" />
      <path
         inkscape:connector-curvature="0"
         id="path106"
         style="fill:#8dc63f;fill-opacity:1;fill-rule:nonzero;stroke:none;stroke-width:0.35277778"
         d="m 24.474621,147.57004 h 1.967794 v 0.55033 h -1.21038 v 0.44874 h 1.113719 v 0.54998 h -1.113719 v 0.46284 h 1.21038 v 0.55033 h -1.967794 z" />
      <path
         inkscape:connector-curvature="0"
         id="path110"
         style="fill:#8dc63f;fill-opacity:1;fill-rule:nonzero;stroke:none;stroke-width:0.35277778"
         d="m 7.9739334,149.19889 v -0.54081 H 9.230175 v 1.38677 c -0.5898444,0.0875 -0.7013222,0.1397 -1.3021027,0.1397 -0.7958667,-0.025 -1.2841111,-0.53446 -1.2841111,-1.3335 0,-0.79904 0.4875389,-1.3081 1.2834055,-1.33279 0.5852584,-0.0169 1.2742333,0.0423 1.285875,0.85584 H 8.4597084 c -0.035631,-0.25048 -0.1950861,-0.30586 -0.4240389,-0.30586 -0.4370916,0 -0.5997222,0.38241 -0.5997222,0.78281 0,0.47731 0.23495,0.78281 0.7104944,0.78281 0.1143,0 0.2377722,-0.018 0.3340806,-0.0363 v -0.3997 z" />
    </g>
  </g>
</svg>
