<?xml version="1.0" encoding="utf-8"?>
<!-- Generator: Adobe Illustrator 14.0.0, SVG Export Plug-In . SVG Version: 6.00 Build 43363)  -->
<!DOCTYPE svg PUBLIC "-//W3C//DTD SVG 1.1//EN" "http://www.w3.org/Graphics/SVG/1.1/DTD/svg11.dtd">
<svg version="1.1" id="Ebene_1" xmlns="http://www.w3.org/2000/svg" xmlns:xlink="http://www.w3.org/1999/xlink" x="0px" y="0px"
	 width="340.16px" height="85.04px" viewBox="0 0 340.16 85.04" enable-background="new 0 0 340.16 85.04" xml:space="preserve">
<g>
	<g>
		<path fill="none" d="M306.205,44.629V4.424l-19.569,19.552c0-0.005-0.001-0.009-0.003-0.014c0,0.005-0.001,0.011-0.002,0.016
			L267.027,4.378l0.002,40.262c0,0,0.001-0.002,0.004-0.003c-0.002,0.001-0.003,0.002-0.004,0.003L306.205,44.629z M288.162,41.486
			V29.885l11.607,11.599L288.162,41.486z M273.484,41.483l11.588-11.58v11.582L273.484,41.483z M303.129,11.867l-0.014,28.592
			l-14.299-14.296C292.541,22.44,303.129,11.867,303.129,11.867z M306.193,4.445c-0.004,0.006-0.008,0.013-0.013,0.022
			C306.186,4.458,306.189,4.451,306.193,4.445z M306.171,4.484c-0.003,0.004-0.005,0.008-0.007,0.013
			C306.166,4.492,306.168,4.488,306.171,4.484z M284.442,26.168L270.117,40.48l0,0V11.856L284.442,26.168z"/>
		<path fill="none" d="M286.658,17.258c2.493,0,4.511-2.019,4.511-4.512c0-2.489-2.018-4.507-4.511-4.507
			c-2.502,0-4.512,2.019-4.512,4.507C282.146,15.24,284.156,17.258,286.658,17.258z"/>
	</g>
	
		<linearGradient id="SVGID_1_" gradientUnits="userSpaceOnUse" x1="-1217.23" y1="467.9951" x2="-1217.23" y2="493.3814" gradientTransform="matrix(0.1306 0 0 0.1305 445.5913 -19.6508)">
		<stop  offset="0" style="stop-color:#FFFFFF"/>
		<stop  offset="0.091" style="stop-color:#F6F6F6"/>
		<stop  offset="0.2395" style="stop-color:#DEDEDE"/>
		<stop  offset="0.4271" style="stop-color:#B7B6B7"/>
		<stop  offset="0.6464" style="stop-color:#807F81"/>
		<stop  offset="0.8895" style="stop-color:#3C393C"/>
		<stop  offset="1" style="stop-color:#1A171B"/>
	</linearGradient>
	<path fill="url(#SVGID_1_)" d="M306.213,44.641c0,0-2.732-1.438-3.075-3.025v-0.132h-15.153c0,0-1.127,0.51-1.333,1.721
		c-0.16-1.249-1.304-1.721-1.304-1.721h-15.23v0.105c-0.48,1.666-2.858,2.931-3.088,3.052H306.213z"/>
	
		<linearGradient id="SVGID_2_" gradientUnits="userSpaceOnUse" x1="-1137.7329" y1="412.7324" x2="-1155.3872" y2="430.3868" gradientTransform="matrix(0.1306 0 0 0.1305 445.5962 -19.6445)">
		<stop  offset="0" style="stop-color:#FFFFFF"/>
		<stop  offset="0.091" style="stop-color:#F6F6F6"/>
		<stop  offset="0.2395" style="stop-color:#DEDEDE"/>
		<stop  offset="0.4271" style="stop-color:#B7B6B7"/>
		<stop  offset="0.6464" style="stop-color:#807F81"/>
		<stop  offset="0.8895" style="stop-color:#3C393C"/>
		<stop  offset="1" style="stop-color:#1A171B"/>
	</linearGradient>
	<path fill="url(#SVGID_2_)" d="M303.129,40.472l-14.437-14.433l-0.864,0.864l0.004,1.324l-0.002,1.327l11.939,11.93
		c0,0,2.995,0.343,4.584,1.883C303.406,42.481,303.129,40.472,303.129,40.472z"/>
	
		<linearGradient id="SVGID_3_" gradientUnits="userSpaceOnUse" x1="-1342.8052" y1="338.3936" x2="-1367.6641" y2="338.3936" gradientTransform="matrix(0.1306 0 0 0.1305 445.5913 -19.6508)">
		<stop  offset="0" style="stop-color:#FFFFFF"/>
		<stop  offset="0.091" style="stop-color:#F6F6F6"/>
		<stop  offset="0.2395" style="stop-color:#DEDEDE"/>
		<stop  offset="0.4271" style="stop-color:#B7B6B7"/>
		<stop  offset="0.6464" style="stop-color:#807F81"/>
		<stop  offset="0.8895" style="stop-color:#3C393C"/>
		<stop  offset="1" style="stop-color:#1A171B"/>
	</linearGradient>
	<path fill="url(#SVGID_3_)" d="M270.117,11.856v29.732c-0.505,1.751-3.088,3.052-3.088,3.052l-0.002-40.262
		C269.354,8.294,270.117,11.856,270.117,11.856z"/>
	
		<radialGradient id="SVGID_4_" cx="-1217.8818" cy="223.1709" r="58.0703" gradientTransform="matrix(0.1306 0 0 0.1306 445.5913 -18.819)" gradientUnits="userSpaceOnUse">
		<stop  offset="0" style="stop-color:#FFFFFF"/>
		<stop  offset="0.091" style="stop-color:#F6F6F6"/>
		<stop  offset="0.2395" style="stop-color:#DEDEDE"/>
		<stop  offset="0.4271" style="stop-color:#B7B6B7"/>
		<stop  offset="0.6464" style="stop-color:#807F81"/>
		<stop  offset="0.8895" style="stop-color:#3C393C"/>
		<stop  offset="1" style="stop-color:#1A171B"/>
	</radialGradient>
	<path fill="url(#SVGID_4_)" d="M286.658,8.239c-2.502,0-4.512,2.019-4.512,4.507c0,2.493,2.01,4.512,4.512,4.512
		c2.493,0,4.511-2.019,4.511-4.512C291.169,10.258,289.151,8.239,286.658,8.239z"/>
	
		<linearGradient id="SVGID_5_" gradientUnits="userSpaceOnUse" x1="-1090.7256" y1="338.5234" x2="-1067.0596" y2="338.5234" gradientTransform="matrix(0.1306 0 0 0.1305 445.5913 -19.6508)">
		<stop  offset="0" style="stop-color:#F5F5F6"/>
		<stop  offset="0.094" style="stop-color:#ECECED"/>
		<stop  offset="0.2473" style="stop-color:#D4D4D5"/>
		<stop  offset="0.441" style="stop-color:#ADACAE"/>
		<stop  offset="0.6675" style="stop-color:#767577"/>
		<stop  offset="0.9187" style="stop-color:#322F33"/>
		<stop  offset="1" style="stop-color:#1A171B"/>
	</linearGradient>
	<path fill="url(#SVGID_5_)" d="M306.205,4.424c0,0-2.343,4.053-3.076,7.443l-0.015,29.762c0.342,1.518,2.882,2.89,3.091,3V4.424z"
		/>
	
		<linearGradient id="SVGID_6_" gradientUnits="userSpaceOnUse" x1="-1292.5991" y1="409.2646" x2="-1275.0266" y2="426.8371" gradientTransform="matrix(0.1306 0 0 0.1305 445.5913 -19.6508)">
		<stop  offset="0" style="stop-color:#FFFFFF"/>
		<stop  offset="0.091" style="stop-color:#F6F6F6"/>
		<stop  offset="0.2395" style="stop-color:#DEDEDE"/>
		<stop  offset="0.4271" style="stop-color:#B7B6B7"/>
		<stop  offset="0.6464" style="stop-color:#807F81"/>
		<stop  offset="0.8895" style="stop-color:#3C393C"/>
		<stop  offset="1" style="stop-color:#1A171B"/>
	</linearGradient>
	<path fill="url(#SVGID_6_)" d="M285.569,25.042L270.117,40.48c-0.072,0.351,0.261,1.615-1.245,2.879
		c1.363-0.829,3.003-1.585,4.611-1.875l11.997-11.989l0.063-1.929L285.569,25.042z"/>
	
		<linearGradient id="SVGID_7_" gradientUnits="userSpaceOnUse" x1="-1288.8208" y1="261.6494" x2="-1306.476" y2="279.3046" gradientTransform="matrix(0.1306 0 0 0.1305 445.5962 -19.6445)">
		<stop  offset="0" style="stop-color:#FFFFFF"/>
		<stop  offset="0.091" style="stop-color:#F6F6F6"/>
		<stop  offset="0.2395" style="stop-color:#DEDEDE"/>
		<stop  offset="0.4271" style="stop-color:#B7B6B7"/>
		<stop  offset="0.6464" style="stop-color:#807F81"/>
		<stop  offset="0.8895" style="stop-color:#3C393C"/>
		<stop  offset="1" style="stop-color:#1A171B"/>
	</linearGradient>
	<path fill="url(#SVGID_7_)" d="M286.046,26.102l0.405-1.027l0.174-0.763l0.057-0.285L267.027,4.378
		c2.097,3.53,2.949,6.859,3.09,7.478l15.094,15.08L286.046,26.102z"/>
	
		<linearGradient id="SVGID_8_" gradientUnits="userSpaceOnUse" x1="-1147.3687" y1="264.0322" x2="-1129.7946" y2="281.6064" gradientTransform="matrix(0.1306 0 0 0.1305 445.5913 -19.6508)">
		<stop  offset="0" style="stop-color:#FFFFFF"/>
		<stop  offset="0.091" style="stop-color:#F6F6F6"/>
		<stop  offset="0.2395" style="stop-color:#DEDEDE"/>
		<stop  offset="0.4271" style="stop-color:#B7B6B7"/>
		<stop  offset="0.6464" style="stop-color:#807F81"/>
		<stop  offset="0.8895" style="stop-color:#3C393C"/>
		<stop  offset="1" style="stop-color:#1A171B"/>
	</linearGradient>
	<path fill="url(#SVGID_8_)" d="M286.633,23.979l0.905,3.459l15.593-15.582c0.736-3.387,3.074-7.433,3.074-7.433L286.633,23.979z"/>
	
		<linearGradient id="SVGID_9_" gradientUnits="userSpaceOnUse" x1="-1217.0615" y1="408.7891" x2="-1205.2322" y2="408.7891" gradientTransform="matrix(0.1306 0 0 0.1305 445.5913 -19.6508)">
		<stop  offset="0" style="stop-color:#FFFFFF"/>
		<stop  offset="0.091" style="stop-color:#F6F6F6"/>
		<stop  offset="0.2395" style="stop-color:#DEDEDE"/>
		<stop  offset="0.4271" style="stop-color:#B7B6B7"/>
		<stop  offset="0.6464" style="stop-color:#807F81"/>
		<stop  offset="0.8895" style="stop-color:#3C393C"/>
		<stop  offset="1" style="stop-color:#1A171B"/>
	</linearGradient>
	<path fill="url(#SVGID_9_)" d="M286.585,42.979l0.043-18.743l0.021-0.274c0.396,1.906,1.514,2.859,1.514,2.859v14.666
		c0,0-1.272,0.466-1.514,1.945L286.585,42.979z"/>
	
		<linearGradient id="SVGID_10_" gradientUnits="userSpaceOnUse" x1="-1216.4585" y1="408.7881" x2="-1229.4819" y2="408.7881" gradientTransform="matrix(0.1306 0 0 0.1305 445.5913 -19.6508)">
		<stop  offset="0" style="stop-color:#FFFFFF"/>
		<stop  offset="0.091" style="stop-color:#F6F6F6"/>
		<stop  offset="0.2395" style="stop-color:#DEDEDE"/>
		<stop  offset="0.4271" style="stop-color:#B7B6B7"/>
		<stop  offset="0.6464" style="stop-color:#807F81"/>
		<stop  offset="0.8895" style="stop-color:#3C393C"/>
		<stop  offset="1" style="stop-color:#1A171B"/>
	</linearGradient>
	<path fill="url(#SVGID_10_)" d="M286.648,23.961l0.069,19.022l-0.069,0.447c-0.188-1.518-1.576-1.945-1.576-1.945V26.781
		C285.072,26.781,286.422,25.867,286.648,23.961z"/>
	<g>
		<polygon fill="#009EE0" stroke="#009EE0" stroke-width="0.1417" points="285.072,41.486 273.484,41.483 285.072,29.904 		"/>
		<path fill="#009EE0" stroke="#009EE0" stroke-width="0.1417" d="M303.115,40.458l-14.299-14.296
			c3.725-3.722,14.313-14.295,14.313-14.295L303.115,40.458z"/>
		<line fill="#009EE0" stroke="#009EE0" stroke-width="0.1417" x1="303.115" y1="40.458" x2="288.816" y2="26.162"/>
		<line fill="#009EE0" stroke="#009EE0" stroke-width="0.1417" x1="285.072" y1="41.486" x2="273.484" y2="41.483"/>
		<g>
			<path fill="none" stroke="#1A171B" stroke-width="0.1417" d="M286.636,23.976c0-0.005-0.001-0.009-0.003-0.014
				c0,0.005-0.001,0.011-0.002,0.016L267.027,4.378l0.002,40.262c0,0,0.001-0.002,0.004-0.003c-0.002,0.001-0.003,0.002-0.004,0.003
				l39.176-0.012V4.424L286.636,23.976z"/>
			<polygon fill="none" stroke="#1A171B" stroke-width="0.1417" points="270.117,11.856 284.442,26.168 270.117,40.48 			"/>
			<polygon fill="none" stroke="#1A171B" stroke-width="0.1417" points="288.162,41.486 288.162,29.885 299.77,41.483 			"/>
			<path fill="none" stroke="#1A171B" stroke-width="0.1417" d="M286.658,17.258c2.493,0,4.511-2.019,4.511-4.512
				c0-2.489-2.018-4.507-4.511-4.507c-2.502,0-4.512,2.019-4.512,4.507C282.146,15.24,284.156,17.258,286.658,17.258z"/>
		</g>
		<polygon fill="none" stroke="#1A171B" stroke-width="0.1417" points="285.072,41.486 273.484,41.483 285.072,29.904 		"/>
		<path fill="none" stroke="#1A171B" stroke-width="0.1417" d="M303.115,40.458l-14.299-14.296
			c3.725-3.722,14.313-14.295,14.313-14.295L303.115,40.458z"/>
	</g>
</g>
<g>
	<g>
		<g>
			<path fill="#009DDF" d="M28.732,78.573V65.635h1.953l3.817,11.684h0.036l3.764-11.684h1.828v12.938h-1.147V66.746h-0.036
				l-3.799,11.827h-1.326l-3.907-11.827h-0.036v11.827H28.732z"/>
			<path fill="#009DDF" d="M45.309,74.273v0.698c0,1.255,0.34,2.921,2.043,2.921c1.344,0,2.007-0.861,1.989-2.078h1.129
				c-0.125,2.186-1.308,2.938-3.118,2.938c-1.559,0-3.118-0.627-3.118-3.368v-2.222c0-2.617,1.093-3.818,3.118-3.818
				c3.118,0,3.118,2.24,3.118,4.93H45.309z M49.395,73.412c0-2.007-0.323-3.207-2.043-3.207s-2.043,1.2-2.043,3.207H49.395z"/>
			<path fill="#009DDF" d="M54.395,78.573V65.635h1.075v5h0.036c0.52-0.752,1.219-1.291,2.186-1.291c2.24,0,2.473,1.668,2.473,2.85
				v6.38H59.09v-6.325c0-1.059-0.412-2.043-1.667-2.043c-0.968,0-1.954,0.662-1.954,2.688v5.681H54.395z"/>
			<path fill="#009DDF" d="M65.469,70.742h0.036c0.448-0.859,1.397-1.398,2.491-1.398v1.094c-1.523-0.125-2.527,0.789-2.527,2.313
				v5.823h-1.075v-9.05h1.075V70.742z"/>
			<path fill="#009DDF" d="M78.282,78.573h-1.075v-9.067h0.968v1.129h0.036c0.43-0.734,1.146-1.291,2.15-1.291
				c0.932,0,1.756,0.521,2.061,1.416c0.448-0.896,1.218-1.416,2.222-1.416c1.505,0,2.294,1.04,2.348,2.492v6.737h-1.075v-6.47
				c-0.018-0.896-0.34-1.898-1.397-1.898c-1.362,0-1.882,1.361-1.882,2.545v5.823h-1.075v-6.47c-0.018-0.896-0.34-1.898-1.398-1.898
				c-1.362,0-1.882,1.361-1.882,2.545V78.573z"/>
			<path fill="#009DDF" d="M90.917,75.025v-1.953c0-2.348,1.003-3.729,3.118-3.729s3.118,1.381,3.118,3.729v1.953
				c0,2.347-1.003,3.727-3.118,3.727S90.917,77.372,90.917,75.025z M91.992,74.039c0,2.365,0.269,3.854,2.043,3.854
				s2.043-1.488,2.043-3.854c0-2.348-0.269-3.834-2.043-3.834S91.992,71.691,91.992,74.039z M92.045,66.531h1.147v1.81h-1.147
				V66.531z M94.877,66.531h1.147v1.81h-1.147V66.531z"/>
			<path fill="#009DDF" d="M105.808,69.506h1.058c-0.036,0.86-0.054,1.309-0.054,1.773v7.616c0,1.989-0.609,3.172-3.19,3.172
				c-2.258,0-2.706-1.595-2.634-2.509h1.075c-0.072,1.039,0.699,1.648,1.702,1.648c2.097,0,1.972-1.129,1.972-3.835h-0.036
				c-0.466,0.771-1.326,1.094-2.187,1.094c-2.598,0-2.777-2.239-2.777-4.247c0-2.097,0.018-2.115,0.269-3.082
				c0.09-0.377,0.717-1.793,2.545-1.793c0.914,0,1.828,0.467,2.222,1.273l0.036,0.035V69.506z M101.812,73.842
				c0,1.883,0,3.764,1.953,3.764c0.896,0,1.47-0.592,1.631-1.021c0.269-0.699,0.341-1.111,0.341-3.764
				c0-1.898-1.022-2.615-2.025-2.615C101.848,70.205,101.812,72.498,101.812,73.842z"/>
			<path fill="#009DDF" d="M111.363,78.573V65.635h1.075v12.938H111.363z"/>
			<path fill="#009DDF" d="M117.188,66.997v-1.362h1.326v1.362H117.188z M117.313,78.573v-9.05h1.075v9.05H117.313z"/>
			<path fill="#009DDF" d="M126.936,72.122c0.054-1.129-0.358-1.917-1.595-1.917c-0.663,0-1.218,0.376-1.451,1.039
				c-0.144,0.412-0.251,1.648-0.251,2.85c0,1.631,0,3.799,1.667,3.799c1.416,0,1.595-0.896,1.648-1.99h1.076
				c0.089,2.438-1.631,2.85-2.473,2.85c-3.064,0-3.064-2.418-3.064-4.658c0-0.896,0.036-2.313,0.269-2.993
				c0.466-1.29,1.488-1.757,2.724-1.757c1.559,0,2.616,0.879,2.527,2.778H126.936z"/>
			<path fill="#009DDF" d="M131.846,78.573V65.635h1.075v5h0.036c0.52-0.752,1.219-1.291,2.187-1.291c2.24,0,2.473,1.668,2.473,2.85
				v6.38h-1.075v-6.325c0-1.059-0.412-2.043-1.667-2.043c-0.967,0-1.953,0.662-1.953,2.688v5.681H131.846z"/>
			<path fill="#009DDF" d="M142.007,77.211h1.326v1.362h-1.326V77.211z"/>
			<path fill="#1A171B" d="M153.924,65.635h3.423c3.62,0,4.068,2.115,4.068,6.523c0,4.301-0.627,6.415-4.534,6.415h-2.957V65.635z
				 M155.071,77.605h1.397c3.459,0,3.799-0.932,3.799-6.218c0-3.71-0.502-4.785-3.692-4.785h-1.505V77.605z"/>
			<path fill="#1A171B" d="M170.285,77.462h-0.036c-0.574,0.86-1.452,1.29-2.563,1.29c-1.613,0-2.491-1.093-2.491-2.67
				c0-3.172,3.19-2.85,5.018-2.992v-0.753c0-1.325-0.394-2.132-1.828-2.132c-0.986,0-1.774,0.483-1.774,1.559h-1.147
				c0.09-1.738,1.434-2.42,3.011-2.42c0.914,0,2.814,0.09,2.814,2.402v4.551c0,0.646,0,1.219,0.107,2.276h-1.111V77.462z
				 M170.213,73.95c-1.541,0.054-3.871-0.126-3.871,2.079c0,1.021,0.52,1.863,1.631,1.863c1.236,0,2.24-1.111,2.24-2.295V73.95z"/>
			<path fill="#1A171B" d="M177.938,78.752c-1.954,0-2.725-0.949-2.707-2.867h1.094c0,1.236,0.287,2.061,1.666,2.061
				c1.04,0,1.541-0.59,1.541-1.594c0-2.365-4.067-1.756-4.067-4.749c0-1.667,1.147-2.259,2.724-2.259
				c1.793,0,2.366,1.237,2.366,2.617h-1.058c-0.054-1.146-0.358-1.756-1.576-1.756c-0.771,0-1.381,0.502-1.381,1.309
				c0,2.258,4.068,1.648,4.068,4.676C180.607,77.893,179.621,78.752,177.938,78.752z"/>
			<path fill="#1A171B" d="M196.735,72.785h-2.616v-0.968h3.763v6.469c-1.146,0.358-2.348,0.538-3.565,0.538
				c-4.212,0-3.907-4.211-3.907-6.721c0-2.508-0.305-6.72,3.907-6.72c2.473,0,3.745,1.058,3.691,3.566h-1.147
				c0-1.702-0.734-2.599-2.544-2.599c-2.796,0-2.761,2.491-2.761,5.752c0,3.262-0.035,5.753,2.761,5.753
				c0.985,0,1.81-0.144,2.419-0.376V72.785z"/>
			<path fill="#1A171B" d="M203.204,74.273v0.698c0,1.255,0.341,2.921,2.043,2.921c1.345,0,2.008-0.861,1.989-2.078h1.13
				c-0.126,2.186-1.309,2.938-3.119,2.938c-1.559,0-3.117-0.627-3.117-3.368v-2.222c0-2.617,1.093-3.818,3.117-3.818
				c3.119,0,3.119,2.24,3.119,4.93H203.204z M207.291,73.412c0-2.007-0.323-3.207-2.044-3.207c-1.72,0-2.043,1.2-2.043,3.207
				H207.291z"/>
			<path fill="#1A171B" d="M213.438,70.742h0.035c0.448-0.859,1.398-1.398,2.491-1.398v1.094c-1.523-0.125-2.526,0.789-2.526,2.313
				v5.823h-1.075v-9.05h1.075V70.742z"/>
			<path fill="#1A171B" d="M224.942,69.523v9.05h-0.933V77.57h-0.035c-0.627,0.77-1.272,1.182-2.276,1.182
				c-1.863,0-2.383-1.361-2.383-2.83v-6.398h1.075v6.219c0,0.25-0.054,2.15,1.505,2.15c1.452,0,1.972-1.361,1.972-1.99v-6.379
				H224.942z M220.14,66.531h1.146v1.81h-1.146V66.531z M222.971,66.531h1.147v1.81h-1.147V66.531z"/>
			<path fill="#1A171B" d="M231.572,78.752c-1.953,0-2.724-0.949-2.706-2.867h1.094c0,1.236,0.286,2.061,1.666,2.061
				c1.04,0,1.542-0.59,1.542-1.594c0-2.365-4.068-1.756-4.068-4.749c0-1.667,1.146-2.259,2.724-2.259
				c1.792,0,2.366,1.237,2.366,2.617h-1.058c-0.054-1.146-0.358-1.756-1.577-1.756c-0.771,0-1.38,0.502-1.38,1.309
				c0,2.258,4.068,1.648,4.068,4.676C234.243,77.893,233.257,78.752,231.572,78.752z"/>
			<path fill="#1A171B" d="M237.307,70.384v-0.86h1.452V67.66l1.075-0.467v2.33h1.828v0.86h-1.828v5.806
				c0,1.201,0.125,1.488,0.985,1.488c0.358,0,0.609-0.019,0.843-0.055v0.932c-0.323,0.037-0.682,0.055-1.021,0.055
				c-1.452,0-1.882-0.646-1.882-1.756v-6.47H237.307z"/>
			<path fill="#1A171B" d="M256.697,68.914c-0.036-1.595-0.431-2.563-2.187-2.563c-1.398,0-2.276,0.484-2.276,2.008
				c0,1.917,0.968,1.971,2.438,3.028c1.595,1.146,3.226,1.487,3.226,3.996c0,2.312-1.183,3.44-3.44,3.44
				c-2.527,0-3.656-1.362-3.549-3.889h1.183c0,1.434,0.108,2.921,2.42,2.921c1.505,0,2.24-0.806,2.24-2.294
				c0-1.756-1.165-2.258-3.029-3.404c-2.509-1.541-2.616-2.313-2.634-3.603c-0.018-2.239,1.397-3.172,3.513-3.172
				c2.688,0,3.262,1.667,3.262,3.53H256.697z"/>
			<path fill="#1A171B" d="M263.901,78.592l-2.867-9.068h1.164l2.205,7.42h0.035l2.133-7.42h1.075l-3.745,12.473h-1.058
				L263.901,78.592z"/>
			<path fill="#1A171B" d="M273.291,78.752c-1.953,0-2.724-0.949-2.705-2.867h1.093c0,1.236,0.286,2.061,1.666,2.061
				c1.04,0,1.542-0.59,1.542-1.594c0-2.365-4.068-1.756-4.068-4.749c0-1.667,1.146-2.259,2.724-2.259
				c1.792,0,2.366,1.237,2.366,2.617h-1.058c-0.054-1.146-0.358-1.756-1.577-1.756c-0.771,0-1.38,0.502-1.38,1.309
				c0,2.258,4.068,1.648,4.068,4.676C275.962,77.893,274.976,78.752,273.291,78.752z"/>
			<path fill="#1A171B" d="M279.026,70.384v-0.86h1.451V67.66l1.075-0.467v2.33h1.828v0.86h-1.828v5.806
				c0,1.201,0.125,1.488,0.985,1.488c0.358,0,0.609-0.019,0.843-0.055v0.932c-0.323,0.037-0.682,0.055-1.021,0.055
				c-1.452,0-1.882-0.646-1.882-1.756v-6.47H279.026z"/>
			<path fill="#1A171B" d="M287.628,74.273v0.698c0,1.255,0.34,2.921,2.043,2.921c1.344,0,2.007-0.861,1.989-2.078h1.129
				c-0.126,2.186-1.309,2.938-3.118,2.938c-1.56,0-3.118-0.627-3.118-3.368v-2.222c0-2.617,1.093-3.818,3.118-3.818
				c3.118,0,3.118,2.24,3.118,4.93H287.628z M291.714,73.412c0-2.007-0.323-3.207-2.043-3.207c-1.721,0-2.043,1.2-2.043,3.207
				H291.714z"/>
			<path fill="#1A171B" d="M297.771,78.573h-1.075v-9.067h0.968v1.129h0.036c0.43-0.734,1.146-1.291,2.15-1.291
				c0.932,0,1.756,0.521,2.061,1.416c0.448-0.896,1.219-1.416,2.223-1.416c1.505,0,2.294,1.04,2.347,2.492v6.737h-1.074v-6.47
				c-0.019-0.896-0.341-1.898-1.398-1.898c-1.361,0-1.882,1.361-1.882,2.545v5.823h-1.075v-6.47
				c-0.018-0.896-0.34-1.898-1.397-1.898c-1.362,0-1.882,1.361-1.882,2.545V78.573z"/>
			<path fill="#1A171B" d="M310.87,77.211h1.326v1.362h-1.326V77.211z"/>
		</g>
	</g>
	<g>
		<g>
			<path fill="#1A171B" d="M106.895,43.498h7.81c3.483,0,4.485-0.633,7.651-13.508h1.161v14.669H98.03v-1.161h3.166V9.305H98.03
				V8.144h14.142v1.161h-5.277V43.498z"/>
			<path fill="#1A171B" d="M130.375,27.457v-8.548c2.744-1.108,5.276-1.899,8.073-1.899c6.596,0,9.551,3.482,9.551,6.753v19.735
				h2.533v1.161h-7.176v-4.643h-0.105c-1.267,3.271-4.274,5.488-8.021,5.488c-4.749,0-8.021-2.744-8.021-7.334
				c0-9.234,10.87-6.543,16.146-9.762v-5.541c0-3.324-1.794-4.696-4.591-4.696c-3.693,0-4.696,1.899-7.229,9.287H130.375z
				 M143.356,29.778c-5.962,2.796-10.87,0.792-10.87,8.39c0,3.958,1.478,5.435,4.274,5.435c3.958-0.106,6.596-4.011,6.596-9.815
				V29.778z"/>
			<path fill="#1A171B" d="M150.849,17.853h11.292v1.161h-3.958l7.704,18.416l6.332-18.416h-4.59v-1.161h8.443v1.161h-2.374
				l-9.657,27.808c-2.005,5.856-3.641,7.018-6.648,7.018c-1.952,0-3.271-0.475-4.01-1.267v-8.231h1.161l1.425,5.118
				c0.739,2.743,1.583,3.219,2.427,3.219c2.111,0,3.799-3.642,5.066-8.179l-10.606-25.486h-2.005V17.853z"/>
			<path fill="#1A171B" d="M175.701,8.144h7.809v12.611h0.105c1.057-1.583,3.324-3.746,7.019-3.746c4.168,0,7.123,2.005,7.123,7.756
				v18.732h2.85v1.161h-10.87v-1.161h3.061V24.132c0-3.904-1.214-5.223-3.693-5.223c-2.902,0-5.594,2.532-5.594,8.02v16.569h3.061
				v1.161h-10.869v-1.161h2.85V9.305h-2.85V8.144z"/>
			<path fill="#1A171B" d="M206.938,28.723c-0.053,0.528-0.053,1.056-0.053,1.583c0,10.184,2.533,13.719,6.543,13.719
				c4.485,0,7.704-2.85,8.232-9.393h1.16c-0.264,7.282-4.538,10.87-9.92,10.87c-6.701,0-11.503-5.805-11.503-14.247
				c0-8.443,5.118-14.247,11.345-14.247c6.016,0,9.867,4.221,9.867,11.713H206.938z M217.122,27.562v-2.058
				c0-5.276-1.741-7.334-4.485-7.334c-3.271,0-5.225,3.271-5.646,9.393H217.122z"/>
			<path fill="#1A171B" d="M228.941,19.014h-2.85v-1.161h7.704v3.905h0.105c1.108-3.06,3.008-4.749,6.385-4.749
				c1.319,0,2.85,0.58,3.642,0.949v10.342h-1.161l-1.847-5.435c-0.95-2.797-1.478-3.957-2.744-3.957
				c-2.164,0-4.274,3.904-4.274,8.653v15.936h3.482v1.161h-11.292v-1.161h2.85V19.014z"/>
		</g>
		<path fill="#1A171B" d="M244.03,41.166c0-1.969,1.567-3.584,3.488-3.584c1.931,0,3.488,1.615,3.488,3.584
			c0,1.979-1.558,3.584-3.488,3.584C245.598,44.75,244.03,43.144,244.03,41.166z M250.549,41.166c0-1.749-1.329-3.125-3.03-3.125
			c-1.691,0-3.03,1.376-3.03,3.125c0,1.74,1.339,3.125,3.03,3.125C249.22,44.291,250.549,42.905,250.549,41.166z M246.764,41.338
			v1.893h-0.497v-4.215h1.338c0.955,0,1.252,0.344,1.252,1.07c0,0.516-0.191,0.86-0.793,0.985v0.019
			c0.611,0.115,0.688,0.182,0.688,1.663c0,0.163,0.029,0.315,0.058,0.478h-0.487c-0.038-0.115-0.058-0.803-0.067-1.033
			c-0.009-0.172,0.125-0.86-0.735-0.86H246.764z M246.764,40.879h0.649c0.593,0,0.87-0.144,0.87-0.803
			c0-0.487-0.239-0.602-0.707-0.602h-0.813V40.879z"/>
	</g>
</g>
</svg>
