<svg width="250" height="41" viewBox="0 0 250 41" fill="none" xmlns="http://www.w3.org/2000/svg">
<g id="Layer 1">
<g id="Group">
<path id="Vector" fill-rule="evenodd" clip-rule="evenodd" d="M67.5021 11.6989L53.3694 29.2572V32.4536H72.9777V28.6356H58.845L72.9777 11.0774V7.88092H53.8022V11.6989H67.5021ZM100.118 7.85873H82.3923V32.4314H100.291V28.5247H86.5694V21.9542H98.5811V18.0474H86.5694V11.7211H100.118V7.81433V7.85873ZM126.132 24.8621L113.32 7.85873H109.424V32.4314H113.601V14.9397L126.782 32.4314H130.309V7.85873H126.132V24.8621ZM161.432 28.5025L158.726 25.6834C157.709 26.6601 156.67 27.437 155.61 28.0141C154.571 28.5912 153.294 28.8798 151.844 28.8798C150.697 28.8798 149.658 28.6578 148.684 28.1917C147.71 27.7255 146.888 27.104 146.174 26.3049C145.459 25.5058 144.918 24.5735 144.529 23.508C144.139 22.4425 143.944 21.3104 143.944 20.0896C143.944 18.8687 144.139 17.7366 144.529 16.6934C144.918 15.6501 145.459 14.7178 146.174 13.9409C146.888 13.1639 147.71 12.5424 148.684 12.0763C149.658 11.6101 150.719 11.3881 151.844 11.3881C153.207 11.3881 154.441 11.6767 155.502 12.2316C156.584 12.7866 157.601 13.5413 158.553 14.4514L161.259 11.255C160.696 10.7 160.09 10.1673 159.441 9.70112C158.791 9.23498 158.099 8.83542 157.363 8.48026C156.627 8.1251 155.783 7.88092 154.874 7.68115C153.965 7.50357 152.969 7.39258 151.887 7.39258C150.069 7.39258 148.403 7.72554 146.888 8.39147C145.373 9.05739 144.074 9.96749 142.992 11.1218C141.888 12.276 141.044 13.6301 140.438 15.1839C139.832 16.7377 139.529 18.3804 139.529 20.134C139.529 21.8876 139.832 23.5746 140.46 25.1284C141.088 26.6823 141.932 28.0141 143.014 29.1462C144.096 30.2783 145.373 31.1884 146.866 31.8321C148.359 32.4758 149.961 32.8088 151.736 32.8088C152.861 32.8088 153.878 32.72 154.809 32.5202C155.74 32.3204 156.584 32.0319 157.363 31.6323C158.142 31.255 158.856 30.7888 159.527 30.2561C160.198 29.7233 160.847 29.124 161.453 28.4581M193.29 20.1118C193.29 18.3804 192.987 16.7378 192.359 15.2061C191.753 13.6523 190.888 12.3204 189.784 11.1662C188.68 10.0119 187.381 9.10179 185.845 8.43586C184.308 7.76994 182.62 7.43697 180.78 7.43697C178.941 7.43697 177.231 7.76994 175.716 8.45806C174.179 9.14619 172.859 10.0563 171.734 11.2106C170.608 12.3648 169.743 13.7189 169.137 15.2727C168.509 16.8043 168.206 18.447 168.206 20.1784C168.206 21.9098 168.509 23.5524 169.137 25.084C169.743 26.6379 170.608 27.9697 171.712 29.124C172.816 30.2783 174.114 31.1884 175.651 31.8543C177.188 32.5202 178.876 32.8532 180.715 32.8532C182.555 32.8532 184.243 32.5202 185.78 31.8321C187.316 31.144 188.637 30.2339 189.74 29.0796C190.866 27.9253 191.732 26.5713 192.338 25.0174C192.944 23.4636 193.268 21.8432 193.268 20.0896M188.875 20.2006C188.875 21.3992 188.68 22.5313 188.269 23.5968C187.858 24.6623 187.316 25.5946 186.602 26.3715C185.888 27.1484 185.044 27.7699 184.048 28.2361C183.053 28.7022 181.971 28.9242 180.78 28.9242C179.59 28.9242 178.486 28.7022 177.491 28.2139C176.495 27.7477 175.629 27.1262 174.915 26.3271C174.201 25.528 173.638 24.5957 173.227 23.5302C172.816 22.4647 172.621 21.3326 172.621 20.134C172.621 18.9353 172.816 17.8032 173.227 16.7377C173.617 15.6723 174.179 14.74 174.894 13.9631C175.608 13.1861 176.452 12.5646 177.447 12.0985C178.443 11.6323 179.525 11.4103 180.715 11.4103C181.906 11.4103 182.988 11.6545 184.005 12.1207C185.001 12.5868 185.866 13.2305 186.581 14.0074C187.295 14.8066 187.858 15.7389 188.269 16.8043C188.658 17.8698 188.875 19.0019 188.875 20.2006ZM222.854 32.4536L216.383 23.1528C217.227 22.9087 218.006 22.5757 218.698 22.154C219.391 21.7322 219.997 21.1995 220.495 20.5779C220.993 19.9564 221.382 19.2461 221.663 18.4248C221.945 17.6257 222.096 16.6934 222.096 15.6723C222.096 14.4736 221.902 13.3859 221.469 12.4314C221.058 11.4547 220.473 10.6334 219.716 9.96749C218.958 9.30157 218.028 8.79102 216.902 8.43586C215.798 8.0807 214.565 7.88092 213.18 7.88092H202.51V32.4536H206.687V23.8854H211.968L217.876 32.4536H222.832H222.854ZM217.811 15.8942C217.811 17.1595 217.357 18.1806 216.469 18.9353C215.582 19.69 214.37 20.0674 212.855 20.0674H206.665V11.7877H212.812C214.392 11.7877 215.625 12.1429 216.491 12.831C217.357 13.5191 217.789 14.5624 217.789 15.9164M249.929 16.1162C249.929 14.851 249.713 13.7189 249.301 12.72C248.868 11.7211 248.262 10.8554 247.483 10.1229C246.704 9.39036 245.73 8.83542 244.605 8.45806C243.479 8.0807 242.224 7.88092 240.817 7.88092H231.381V32.4536H235.558V24.5513H240.32C241.661 24.5513 242.895 24.3737 244.064 23.9963C245.232 23.6412 246.25 23.1084 247.115 22.3981C247.981 21.6878 248.674 20.8221 249.171 19.7566C249.669 18.6911 249.929 17.4925 249.929 16.094M245.665 16.205C245.665 17.5369 245.211 18.6245 244.28 19.4237C243.35 20.245 242.094 20.6445 240.493 20.6445H235.58V11.7655H240.493C242.073 11.7655 243.328 12.1429 244.28 12.8754C245.211 13.6079 245.687 14.7178 245.687 16.205" fill="white"/>
<path id="Vector_2" fill-rule="evenodd" clip-rule="evenodd" d="M9.93234 37.5591C12.7675 39.224 16.0572 40.1563 19.5417 40.1563C23.0262 40.1563 26.3159 39.2018 29.1511 37.5591C33.4147 35.073 36.6828 30.9887 38.1545 26.1052H30.6878L19.5201 37.5591L8.35242 26.1052L19.9529 14.2073H38.1545C36.6828 9.32384 33.4147 5.23949 29.1511 2.75336C26.3159 1.11074 23.0262 0.15625 19.5417 0.15625C16.0572 0.15625 12.7675 1.11074 9.93234 2.75336C5.66872 5.23949 2.40066 9.32384 0.928955 14.2073H8.39571L19.5634 2.75336L30.731 14.2073L19.1305 26.1052H0.928955C2.40066 30.9887 5.66872 35.073 9.93234 37.5591Z" fill="white"/>
</g>
</g>
</svg>
