<?xml version="1.0" encoding="utf-8"?>
<!-- Generator: Adobe Illustrator 19.2.1, SVG Export Plug-In . SVG Version: 6.00 Build 0)  -->
<svg version="1.1" id="layer" xmlns="http://www.w3.org/2000/svg" xmlns:xlink="http://www.w3.org/1999/xlink" x="0px" y="0px"
	 viewBox="0 0 652 652" style="enable-background:new 0 0 652 652;" xml:space="preserve">
<style type="text/css">
	.st0{fill:#FFD20A;}
</style>
<rect x="20.4" y="195.4" class="st0" width="600" height="253.5"/>
<g>
	<path d="M87,339.3c4.8,2.6,12.1,5.1,20.6,5.1c5.9,0,12.8-1.2,12.8-6.5c0-12.5-35.4-5.4-35.4-30.9c0-16.9,15.6-21.2,29.7-21.2
		c9.1,0,16.1,1.5,21.4,3.2l-1.7,15.1c-4.9-2-11.2-4.1-18.2-4.1c-4.7,0-12,0.3-12,6.4c0,11.1,35.6,5.3,35.6,29.9
		c0,18.2-16.5,22.3-32.1,22.3c-9.4,0-18.1-1.9-22.8-3.4L87,339.3z"/>
	<polygon points="203.5,287.1 144.5,287.1 144.5,301.4 164.7,301.4 164.7,357.3 183.3,357.3 183.3,301.4 203.5,301.4 	"/>
	<polygon points="534.6,287.1 521,315.3 507.2,287.1 485.7,287.1 511.6,330.8 511.6,357.3 530.3,357.3 530.3,330.8 556.1,287.1 	"/>
	<polygon points="284,287.1 284,357.3 302,357.3 302,319.5 332.5,357.3 347.8,357.3 347.8,346.7 299.4,287.1 	"/>
	<polygon points="347.8,322.6 347.8,287.1 319.2,287.1 	"/>
	<polygon points="445.2,328.9 474.7,328.9 474.7,314.9 445.2,314.9 445.2,300.9 477.6,300.9 477.6,287.1 426,287.1 426,357.3 
		478.7,357.3 478.7,343.3 445.2,343.3 	"/>
	<polygon points="384.1,287.1 364.9,287.1 364.9,357.3 414.7,357.3 414.7,342.8 384.1,342.8 	"/>
	<path d="M254.1,357.3h19.7l-26.1-70.1H226l-25.7,70.1h18.2l4.8-14h26.3L254.1,357.3z M227.5,330l9.1-28.2l8.7,28.2H227.5z"/>
	<path d="M544.9,343.7c3.8,0,6.9,3,6.9,6.8c0,3.8-3.1,6.8-6.9,6.8c-3.9,0-7-3-7-6.8C537.9,346.7,541,343.7,544.9,343.7L544.9,343.7z
		 M544.8,345.1c-2.9,0-5.2,2.4-5.2,5.4c0,3,2.3,5.4,5.3,5.4c2.9,0,5.2-2.4,5.2-5.4C550,347.5,547.8,345.1,544.8,345.1L544.8,345.1z
		 M543.8,354h-1.6v-6.8c0.6-0.1,1.5-0.2,2.6-0.2c1.3,0,1.8,0.2,2.3,0.5c0.4,0.3,0.7,0.8,0.7,1.4c0,0.8-0.6,1.4-1.4,1.6v0.1
		c0.7,0.2,1,0.7,1.2,1.7c0.2,1,0.4,1.4,0.5,1.6h-1.6c-0.2-0.2-0.3-0.8-0.5-1.6c-0.1-0.7-0.5-1-1.4-1h-0.7V354z M543.8,350.2h0.7
		c0.9,0,1.6-0.3,1.6-1c0-0.6-0.5-1-1.4-1c-0.4,0-0.7,0-0.9,0.1V350.2z"/>
</g>
</svg>
