<?xml version="1.0" encoding="UTF-8" standalone="no"?>
<svg
   xmlns:dc="http://purl.org/dc/elements/1.1/"
   xmlns:cc="http://creativecommons.org/ns#"
   xmlns:rdf="http://www.w3.org/1999/02/22-rdf-syntax-ns#"
   xmlns:svg="http://www.w3.org/2000/svg"
   xmlns="http://www.w3.org/2000/svg"
   viewBox="0 0 875.79999 291.12"
   height="291.12"
   width="875.79999"
   xml:space="preserve"
   id="svg2"
   version="1.1"><metadata
     id="metadata8"><rdf:RDF><cc:Work
         rdf:about=""><dc:format>image/svg+xml</dc:format><dc:type
           rdf:resource="http://purl.org/dc/dcmitype/StillImage" /></cc:Work></rdf:RDF></metadata><defs
     id="defs6"><clipPath
       id="clipPath20"
       clipPathUnits="userSpaceOnUse"><path
         id="path18"
         d="M 0,0 H 6568.54 V 2183 H 0 Z" /></clipPath><clipPath
       id="clipPath52"
       clipPathUnits="userSpaceOnUse"><path
         id="path50"
         d="m 1142.89,1959.77 c 263.51,-248.04 276.08,-662.74 28.07,-926.28 -248.073,-263.521 -662.761,-276.092 -926.288,-28.04 -263.5236,248.03 -276.0782,662.73 -28.055,926.25 248.024,263.54 662.742,276.09 926.273,28.07 z" /></clipPath><radialGradient
       id="radialGradient64"
       spreadMethod="pad"
       gradientTransform="matrix(679.045,721.554,721.554,-679.045,509.822,1847.03)"
       gradientUnits="userSpaceOnUse"
       r="1"
       cy="0"
       cx="0"
       fy="0"
       fx="0"><stop
         id="stop54"
         offset="0"
         style="stop-opacity:1;stop-color:#ffffff" /><stop
         id="stop56"
         offset="0.065"
         style="stop-opacity:1;stop-color:#ffffff" /><stop
         id="stop58"
         offset="0.13527716"
         style="stop-opacity:1;stop-color:#ffffff" /><stop
         id="stop60"
         offset="0.43956"
         style="stop-opacity:1;stop-color:#d7d7d7" /><stop
         id="stop62"
         offset="1"
         style="stop-opacity:1;stop-color:#979f9b" /></radialGradient><clipPath
       id="clipPath74"
       clipPathUnits="userSpaceOnUse"><path
         id="path72"
         d="M 0,0 V 2183 H 6569 V 0 Z" /></clipPath><clipPath
       id="clipPath80"
       clipPathUnits="userSpaceOnUse"><path
         style="clip-rule:evenodd"
         id="path78"
         d="M 665.902,855.469 C 340.582,877.27 82.8125,1147.88 82.8125,1477.27 c 0,343.69 280.5625,623.34 625.5155,623.34 344.792,0 625.212,-279.65 625.212,-623.34 0,-343.66 -280.42,-623.25 -625.212,-623.25 -14.23,0 -28.39,0.531 -42.426,1.449 z M 0,1475.15 c 0,-390.42 317.758,-708.13 708.34,-708.13 390.42,0 708.03,317.71 708.03,708.13 0,374.01 -291.33,681.15 -658.882,706.57 -16.226,1.07 -32.625,1.64 -49.148,1.64 C 317.758,2183.36 0,1865.71 0,1475.15 Z" /></clipPath><clipPath
       id="clipPath86"
       clipPathUnits="userSpaceOnUse"><path
         id="path84"
         d="M 1454.55,2099.23 C 1801.28,1686.05 1747.37,1070.03 1334.18,723.352 920.984,376.629 304.98,430.52 -41.7188,843.691 -388.441,1256.9 -334.531,1872.91 78.6523,2219.61 491.84,2566.32 1107.84,2512.44 1454.55,2099.23 Z" /></clipPath><radialGradient
       id="radialGradient102"
       spreadMethod="pad"
       gradientTransform="matrix(1131.2,949.264,949.264,-1131.2,497.822,2043.03)"
       gradientUnits="userSpaceOnUse"
       r="1"
       cy="0"
       cx="0"
       fy="0"
       fx="0"><stop
         id="stop88"
         offset="0"
         style="stop-opacity:1;stop-color:#d7d7d7" /><stop
         id="stop90"
         offset="0.27860154"
         style="stop-opacity:1;stop-color:#646d69" /><stop
         id="stop92"
         offset="0.384615"
         style="stop-opacity:1;stop-color:#646d69" /><stop
         id="stop94"
         offset="0.64327354"
         style="stop-opacity:1;stop-color:#373c3a" /><stop
         id="stop96"
         offset="0.763736"
         style="stop-opacity:1;stop-color:#373c3a" /><stop
         id="stop98"
         offset="0.8413782"
         style="stop-opacity:1;stop-color:#373c3a" /><stop
         id="stop100"
         offset="1"
         style="stop-opacity:1;stop-color:#272a29" /></radialGradient><clipPath
       id="clipPath112"
       clipPathUnits="userSpaceOnUse"><path
         id="path110"
         d="M 275.648,1907.52 C 165.406,1798.03 97.2227,1646.89 97.2227,1479.84 v 0 c 0,-166.99 68.1833,-318.12 178.4253,-427.6 v 0 C 385.914,942.84 538.129,875.102 706.402,875.102 v 0 c 168.243,0 320.468,67.738 430.738,177.138 v 0 c 110.24,109.48 178.41,260.61 178.41,427.6 v 0 c 0,167.05 -68.17,318.19 -178.41,427.68 v 0 c -110.27,109.44 -262.495,177.13 -430.738,177.13 v 0 c -168.273,0 -320.488,-67.69 -430.754,-177.13 z M 73.8477,1479.84 c 0,346.89 283.1873,628.02 632.5543,628.02 v 0 c 349.338,0 632.538,-281.13 632.538,-628.02 v 0 c 0,-346.77 -283.2,-627.981 -632.538,-627.981 v 0 c -349.367,0 -632.5543,281.211 -632.5543,627.981 z" /></clipPath><linearGradient
       id="linearGradient122"
       spreadMethod="pad"
       gradientTransform="matrix(-218.187,1237.4,1237.4,218.187,815.487,861.16)"
       gradientUnits="userSpaceOnUse"
       y2="0"
       x2="1"
       y1="0"
       x1="0"><stop
         id="stop114"
         offset="0"
         style="stop-opacity:1;stop-color:#d7d7d7" /><stop
         id="stop116"
         offset="0.34043409"
         style="stop-opacity:1;stop-color:#272a29" /><stop
         id="stop118"
         offset="0.906593"
         style="stop-opacity:1;stop-color:#272a29" /><stop
         id="stop120"
         offset="1"
         style="stop-opacity:1;stop-color:#272a29" /></linearGradient><clipPath
       id="clipPath132"
       clipPathUnits="userSpaceOnUse"><path
         id="path130"
         d="M 259.988,1924.35 C 145.809,1811.15 75.1836,1654.77 75.1445,1482.01 v 0 c 0.0391,-172.75 70.6645,-329.13 184.8435,-442.33 v 0 C 374.227,926.48 531.977,856.449 706.305,856.449 v 0 c 174.254,0 332.035,70.031 446.245,183.231 v 0 c 114.24,113.2 184.86,269.58 184.86,442.33 v 0 c 0,172.76 -70.62,329.14 -184.86,442.34 v 0 c -114.21,113.19 -271.991,183.24 -446.245,183.24 v 0 c -174.328,0 -332.078,-70.05 -446.317,-183.24 z m -5.457,-890.16 C 138.914,1148.74 67.3789,1307.1 67.3789,1482.01 v 0 c 0,174.91 71.5351,333.24 187.1521,447.83 v 0 c 115.59,114.61 275.34,185.47 451.774,185.47 v 0 c 176.394,0 336.115,-70.86 451.755,-185.47 v 0 c 115.58,-114.59 187.1,-272.92 187.1,-447.83 v 0 c 0,-174.91 -71.52,-333.27 -187.1,-447.82 v 0 C 1042.42,919.57 882.699,848.691 706.305,848.691 v 0 c -176.434,0 -336.184,70.879 -451.774,185.499 z" /></clipPath><clipPath
       id="clipPath138"
       clipPathUnits="userSpaceOnUse"><path
         id="path136"
         d="M 1504.8,2104 C 1866.27,1673.87 1810.11,1032.6 1379.3,671.699 948.473,310.73 306.172,366.828 -55.293,796.98 -416.801,1227.12 -360.609,1868.41 70.2031,2229.34 501.012,2590.26 1143.3,2534.16 1504.8,2104 Z" /></clipPath><radialGradient
       id="radialGradient152"
       spreadMethod="pad"
       gradientTransform="matrix(1179.45,988.216,989.756,-1177.61,507.258,2045.52)"
       gradientUnits="userSpaceOnUse"
       r="1"
       cy="0"
       cx="0"
       fy="0"
       fx="0"><stop
         id="stop140"
         offset="0"
         style="stop-opacity:1;stop-color:#d7d7d7" /><stop
         id="stop142"
         offset="0.0384615"
         style="stop-opacity:1;stop-color:#d7d7d7" /><stop
         id="stop144"
         offset="0.07833886"
         style="stop-opacity:1;stop-color:#d7d7d7" /><stop
         id="stop146"
         offset="0.510989"
         style="stop-opacity:1;stop-color:#8e9c9b" /><stop
         id="stop148"
         offset="0.93401622"
         style="stop-opacity:1;stop-color:#ffffff" /><stop
         id="stop150"
         offset="1"
         style="stop-opacity:1;stop-color:#ffffff" /></radialGradient><clipPath
       id="clipPath162"
       clipPathUnits="userSpaceOnUse"><path
         id="path160"
         d="M 0,0 V 2183 H 6569 V 0 Z" /></clipPath></defs><g
     transform="matrix(1.3333333,0,0,-1.3333333,0,291.12)"
     id="g10"><g
       transform="scale(0.1)"
       id="g12"><g
         id="g14"><g
           clip-path="url(#clipPath20)"
           id="g16"><path
             id="path22"
             style="fill:#464f4c;fill-opacity:1;fill-rule:nonzero;stroke:none"
             d="m 3237.18,886.34 c 0,173.97 0,347.98 0,521.96 0,3.97 3.29,7.23 7.31,7.23 124.22,0 279.37,0 403.64,0 3.99,0 7.25,-3.26 7.25,-7.23 0,-35.23 0,-70.47 0,-105.68 0,-4.01 -3.26,-7.25 -7.25,-7.25 -64.76,0 -160.39,0 -225.09,0 -4.04,0 -7.29,-3.22 -7.29,-7.24 0,-27.18 0,-54.33 0,-81.53 0,-3.99 3.25,-7.21 7.29,-7.21 56.99,0 144.87,0 201.87,0 4.04,0 7.31,-3.24 7.31,-7.24 0,-32.59 0,-65.13 0,-97.7 0,-4 -3.27,-7.26 -7.31,-7.26 -57,0 -144.88,0 -201.87,0 -4.04,0 -7.29,-3.23 -7.29,-7.22 0,-24.53 0,-49.06 0,-73.56 0,-4.03 3.25,-7.262 7.29,-7.262 65.71,0 162.27,0 227.97,0 4.01,0 7.26,-3.218 7.26,-7.25 0,-35.16 0,-70.378 0,-105.558 0,-4 -3.25,-7.27 -7.26,-7.27 -125.25,0 -281.29,0 -406.52,0 -4.02,0 -7.31,3.27 -7.31,7.27" /><path
             id="path24"
             style="fill:#464f4c;fill-opacity:1;fill-rule:nonzero;stroke:none"
             d="m 5867.22,1734.98 c 24.63,9.68 85.67,44.86 81.34,141.68 -5.26,118.82 -116.19,154.45 -225.23,154.45 -95.47,0 -244.06,0 -277.37,0 -4.03,0 -7.28,-3.24 -7.28,-7.25 0,-35.19 0,-70.4 0,-105.63 0,-3.98 3.25,-7.26 7.28,-7.26 85.72,0 190.09,0 275.83,0 0,0 50.03,0 51.16,-46.93 1.02,-52.25 -48.91,-49.15 -48.91,-49.15 -86.51,0 -191.57,0 -278.08,0 -4.03,0 -7.28,-3.22 -7.28,-7.19 0,-101.93 0,-203.87 0,-305.81 0,-4 3.25,-7.23 7.28,-7.23 56.55,0 111.72,0 168.19,0 4.08,0 7.33,3.23 7.33,7.23 0,64.55 0,129.12 0,193.69 0,3.97 3.23,7.23 7.27,7.23 11.96,0 28.54,0 40.54,0 2.66,0 4.37,-0.84 5.87,-2.95 49.64,-67.41 99.24,-134.84 148.87,-202.22 1.63,-2.14 3.27,-2.98 5.92,-2.98 56.38,0 133.32,0 189.79,0 5.93,0 9.35,6.73 5.84,11.51 -53.89,72.59 -107.72,145.21 -161.62,217.81 -2.73,3.81 -1.23,9.26 3.26,11" /><path
             id="path26"
             style="fill:#464f4c;fill-opacity:1;fill-rule:nonzero;stroke:none"
             d="m 5585.96,1415.59 c -46.65,0 -93.25,0 -139.91,0 -4.04,0 -7.29,-3.24 -7.29,-7.25 0,-173.98 0,-347.95 0,-521.949 0,-4.012 3.25,-7.243 7.29,-7.243 52.81,0 105.61,0 158.37,0 4.08,0 7.39,3.321 7.31,7.372 -1.28,83 -2.57,165.95 -3.84,248.88 -0.12,6.67 8.13,9.9 12.63,5.01 79.63,-86.28 159.32,-172.629 238.93,-258.91 1.57,-1.68 3.16,-2.352 5.39,-2.352 46.66,0 93.24,0 139.87,0 4.03,0 7.25,3.231 7.25,7.243 0,173.999 0,347.969 0,521.949 0,4.01 -3.22,7.25 -7.25,7.25 -52.46,0 -104.91,0 -157.36,0 -4.12,0 -7.34,-3.3 -7.3,-7.33 0.96,-82.96 1.91,-165.95 2.94,-248.91 0.01,-6.66 -8.2,-9.9 -12.73,-5 -79.65,86.29 -159.3,172.58 -238.95,258.91 -1.52,1.64 -3.13,2.33 -5.35,2.33" /><path
             id="path28"
             style="fill:#464f4c;fill-opacity:1;fill-rule:nonzero;stroke:none"
             d="m 4727.58,1414.98 c -64.82,1.79 -112.26,2.16 -187.03,2.16 -161.38,0 -219.91,-91.76 -219.91,-158.05 0,-154.2 262.46,-162.28 262.88,-219.25 0.17,-17.81 -12.05,-28.35 -71.37,-29.65 -61.92,-1.36 -108.22,0.76 -193.81,2.58 -4.41,0.13 -8.12,-3.01 -8.12,-7.21 0.04,-39.548 0.1,-79.15 0.16,-118.701 0,-3.839 3.21,-6.98 7.2,-7.238 69.78,-4.019 142.62,-1.98 218.49,-1.98 158.67,0 230.51,57.289 231.07,156.499 0.9,149.51 -262.58,156.42 -262.58,220.35 0,22.4 29.56,36.13 65.21,36.28 78.75,0.35 82.05,-0.04 157.09,-0.83 4.47,-0.04 8.06,3.13 8.06,7.2 0,36.88 0,73.75 0,110.59 0,3.88 -3.25,7.07 -7.34,7.25" /><path
             id="path30"
             style="fill:#464f4c;fill-opacity:1;fill-rule:nonzero;stroke:none"
             d="m 4256.85,1408.36 c 0,-92.33 0,-198.18 0,-290.48 0,-154.079 -81.22,-253.528 -260.9,-253.528 -179.73,0 -267.91,90.878 -267.91,234.218 0,98.77 0,211.05 0,309.79 0,3.99 3.3,7.23 7.32,7.23 51.28,0 102.62,0 153.89,0 4.04,0 7.33,-3.24 7.33,-7.23 0,-91.07 0,-195.66 0,-286.71 0,-73.89 38.59,-109.17 94.74,-109.17 55.36,0 97.07,35.28 97.07,118.43 0,87.95 0,189.5 0,277.45 0,3.99 3.22,7.23 7.26,7.23 51.33,0 102.64,0 153.9,0 4.05,0 7.3,-3.24 7.3,-7.23" /><path
             id="path32"
             style="fill:#464f4c;fill-opacity:1;fill-rule:nonzero;stroke:none"
             d="m 4959.51,1501.89 c 0,173.97 0,347.97 0,521.99 0,3.97 3.28,7.23 7.29,7.23 124.3,0 279.4,0 403.67,0 4.02,0 7.34,-3.26 7.34,-7.23 0,-35.23 0,-70.47 0,-105.7 0,-3.99 -3.32,-7.23 -7.34,-7.23 -64.75,0 -160.33,0 -225.06,0 -4.05,0 -7.31,-3.23 -7.31,-7.22 0,-27.19 0,-54.37 0,-81.58 0,-3.99 3.26,-7.2 7.31,-7.2 57.01,0 144.87,0 201.88,0 4,0 7.33,-3.26 7.33,-7.25 0,-32.59 0,-65.15 0,-97.7 0,-3.99 -3.33,-7.23 -7.33,-7.23 -57.01,0 -144.87,0 -201.88,0 -4.05,0 -7.31,-3.24 -7.31,-7.23 0,-24.53 0,-49.06 0,-73.62 0,-3.99 3.26,-7.21 7.31,-7.21 65.73,0 162.27,0 227.97,0 4.03,0 7.29,-3.25 7.29,-7.25 0,-35.19 0,-70.36 0,-105.57 0,-4 -3.26,-7.23 -7.29,-7.23 -125.25,0 -281.29,0 -406.58,0 -4.01,0 -7.29,3.23 -7.29,7.23" /><path
             id="path34"
             style="fill:#464f4c;fill-opacity:1;fill-rule:nonzero;stroke:none"
             d="m 2724.97,1415.59 c -46.61,0 -93.27,0 -139.88,0 -4.04,0 -7.27,-3.24 -7.27,-7.25 0,-173.98 0,-347.95 0,-521.949 0,-4.012 3.23,-7.243 7.27,-7.243 52.81,0 105.57,0 158.38,0 4.11,0 7.38,3.321 7.31,7.372 -1.27,83 -2.57,165.95 -3.84,248.88 -0.12,6.67 8.11,9.9 12.66,5.01 79.64,-86.28 159.26,-172.629 238.92,-258.91 1.57,-1.68 3.07,-2.352 5.35,-2.352 46.64,0 93.27,0 139.89,0 4.01,0 7.27,3.231 7.27,7.243 0,173.999 0,347.969 0,521.949 0,4.01 -3.26,7.25 -7.27,7.25 -52.49,0 -104.93,0 -157.38,0 -4.12,0 -7.38,-3.3 -7.34,-7.33 0.98,-82.96 1.95,-165.95 2.93,-248.91 0.08,-6.66 -8.13,-9.9 -12.62,-5 -79.68,86.29 -159.33,172.58 -238.98,258.91 -1.53,1.64 -3.12,2.33 -5.4,2.33" /><path
             id="path36"
             style="fill:#464f4c;fill-opacity:1;fill-rule:nonzero;stroke:none"
             d="m 4327.65,2031.11 c 58.28,0 116.56,0 174.83,0 4.03,0 7.3,-3.26 7.3,-7.21 0,-72.28 0,-144.5 0,-216.72 0,-6.67 8.32,-9.82 12.77,-4.8 67.05,75.38 134.16,150.85 201.26,226.3 1.52,1.71 3.05,2.43 5.43,2.43 59.87,0 119.69,0 179.55,0 6.28,0 9.63,-7.34 5.48,-12.01 -68.64,-77.65 -137.22,-155.28 -205.79,-232.93 -2.93,-3.26 -2.96,-5.83 -0.26,-9.24 71.76,-90.2 143.49,-180.38 215.28,-270.55 3.77,-4.75 0.36,-11.72 -5.76,-11.72 -69.08,0 -138.18,0 -207.28,0 -2.55,0 -4.18,0.8 -5.73,2.79 -60.64,77.8 -121.27,155.57 -181.92,233.29 -4.25,5.48 -13.03,2.5 -13.03,-4.41 0,-74.79 0,-149.6 0,-224.42 0,-4.02 -3.27,-7.25 -7.3,-7.25 -58.27,0 -116.55,0 -174.83,0 -4.04,0 -7.27,3.23 -7.27,7.25 0,173.98 0,347.95 0,521.99 0,3.95 3.23,7.21 7.27,7.21" /><path
             id="path38"
             style="fill:#464f4c;fill-opacity:1;fill-rule:nonzero;stroke:none"
             d="m 4257.27,2005.58 c -21.74,10.39 -125.87,55.41 -248.8,28.57 -136.59,-29.68 -224.46,-129.91 -224.93,-276.92 -0.37,-149.81 108.04,-246.14 255.04,-263.61 127.68,-15.22 202.63,18.59 220.04,27.72 2.88,1.48 4.01,3.28 4.01,6.49 0,44.96 0,89.9 0,134.81 0,5.92 -6.64,9.42 -11.57,6.11 -17.99,-12.12 -56.59,-35.5 -113.71,-35.53 -93.3,-0.06 -166.75,47.48 -167.54,132.4 -0.71,84.14 77.98,136.83 142.25,136.83 67.24,0 117.09,-29.22 138.69,-44.62 4.95,-3.51 11.78,0.04 11.76,6.03 -0.37,45.08 -0.74,90.11 -1.05,135.14 -0.04,3.32 -1.2,5.15 -4.19,6.58" /><path
             id="path40"
             style="fill:#464f4c;fill-opacity:1;fill-rule:nonzero;stroke:none"
             d="m 3803.93,1494.66 c -57.35,0 -114.67,0 -172.03,0 -3.5,0 -5.4,1.22 -6.69,4.52 -10.56,25.54 -21.51,52.09 -32.01,77.65 -1.37,3.26 -3.21,4.49 -6.74,4.49 -81.87,0 -163.71,0 -245.56,0 -5.35,0 -8.82,5.47 -6.57,10.29 16.98,36.03 34.83,72 51.8,108 1.43,3.02 3.28,4.18 6.63,4.18 44.83,0 88.8,0 133.6,0 5.31,0 8.8,5.43 6.66,10.22 -22.95,49.71 -45.83,99.38 -68.76,149.1 -0.98,2.19 -0.98,3.95 0.03,6.12 25.21,52.59 50.47,105.18 75.66,157.76 1.44,2.96 3.26,4.12 6.64,4.12 11.64,0 23.32,-0.04 34.97,-0.04 3.53,0 5.37,-1.2 6.72,-4.42 73.99,-173.65 148.36,-348.26 222.35,-521.92 2.03,-4.8 -1.54,-10.07 -6.7,-10.07" /><path
             id="path42"
             style="fill:#464f4c;fill-opacity:1;fill-rule:nonzero;stroke:none"
             d="m 3473.63,2031.11 h -180.1 c -3.35,0 -5.14,-1.16 -6.59,-4.12 -38.49,-80.33 -77.04,-160.67 -115.56,-240.98 -2.63,-5.56 -10.64,-5.51 -13.22,0.06 -37.35,80.29 -76.91,160.55 -114.27,240.84 -1.4,3.04 -3.24,4.2 -6.61,4.2 h -110.85 c -3.38,0 -5.21,-1.16 -6.6,-4.2 -29.84,-63.35 -85.36,-177.34 -114.89,-240.86 -2.11,-4.55 -8.06,-5.23 -11.26,0.04 -39.87,81.09 -75.54,159.88 -115.4,240.98 -1.44,2.91 -3.23,4.04 -6.55,4.04 H 2491 c -5.37,0 -8.9,-5.58 -6.59,-10.39 84.02,-173.72 165.59,-347.97 249.64,-521.7 1.39,-2.98 3.22,-4.12 6.55,-4.12 h 107.16 c 3.31,0 5.12,1.14 6.56,4.12 12.61,26.19 107.13,222.28 121.44,252.86 2.65,5.55 10.62,5.59 13.24,0.05 40.2,-84.11 80.35,-169.03 120.56,-253.12 1.47,-3.04 3.27,-4.15 6.62,-4.15 h 107.26 c 3.36,0 5.13,1.11 6.59,4.14 83.4,173.68 166.77,348.22 250.18,521.94 2.3,4.82 -1.23,10.37 -6.58,10.37" /><path
             id="path44"
             style="fill:#464f4c;fill-opacity:1;fill-rule:nonzero;stroke:none"
             d="m 5092.09,1271.4 c 65.36,0 106.41,-48.01 106.41,-124.02 0,-76.16 -41.05,-124.12 -106.41,-124.12 -66.34,0 -106.72,47.96 -106.72,124.12 0,76.01 40.38,124.02 106.72,124.02 z m 0,-398.959 c 199.66,0 284.76,138.139 284.76,274.939 0,138.19 -87.56,274.82 -284.76,274.82 -195.14,0 -284.87,-132.85 -284.87,-274.82 0,-148.521 95.75,-274.939 284.87,-274.939" /></g></g><g
         id="g46"><g
           clip-path="url(#clipPath52)"
           id="g48"><path
             id="path66"
             style="fill:url(#radialGradient64);fill-opacity:1;fill-rule:nonzero;stroke:none"
             d="m 1142.89,1959.77 c 263.51,-248.04 276.08,-662.74 28.07,-926.28 -248.073,-263.521 -662.761,-276.092 -926.288,-28.04 -263.5236,248.03 -276.0782,662.73 -28.055,926.25 248.024,263.54 662.742,276.09 926.273,28.07" /></g></g><g
         id="g68"><g
           clip-path="url(#clipPath74)"
           id="g70"><g
             clip-path="url(#clipPath80)"
             id="g76"><g
               clip-path="url(#clipPath86)"
               id="g82"><path
                 id="path104"
                 style="fill:url(#radialGradient102);fill-opacity:1;fill-rule:nonzero;stroke:none"
                 d="m 671,767 v 1 h -13 v 1 h -14 v 1 h -11 v 1 h -8 v 1 h -8 v 1 h -8 v 1 h -7 v 1 h -6 v 1 h -6 v 1 h -6 v 1 h -5 v 1 h -6 v 1 h -5 v 1 h -5 v 1 h -4 v 1 h -5 v 1 h -4 v 1 h -4 v 1 h -5 v 1 h -4 v 1 h -4 v 1 h -4 v 1 h -4 v 1 h -3 v 1 h -4 v 1 h -3 v 1 h -4 v 1 h -3 v 1 h -4 v 1 h -3 v 1 h -4 v 1 h -3 v 1 h -3 v 1 h -3 v 1 h -3 v 1 h -3 v 1 h -3 v 1 h -2 v 1 h -3 v 1 h -3 v 1 h -3 v 1 h -3 v 1 h -3 v 1 h -2 v 1 h -3 v 1 h -2 v 1 h -3 v 1 h -2 v 1 h -3 v 1 h -3 v 1 h -2 v 1 h -3 v 1 h -2 v 1 h -3 v 1 h -2 v 1 h -2 v 1 h -3 v 1 h -2 v 1 h -2 v 1 h -2 v 1 h -2 v 1 h -3 v 1 h -2 v 1 h -2 v 1 h -2 v 1 h -2 v 1 h -3 v 1 h -2 v 1 h -2 v 1 h -2 v 1 h -2 v 1 h -2 v 1 h -2 v 1 h -2 v 1 h -2 v 1 h -2 v 1 h -2 v 1 h -2 v 1 h -2 v 1 h -2 v 1 h -1 v 1 h -2 v 1 h -2 v 1 h -2 v 1 h -2 v 1 h -2 v 1 h -2 v 1 h -1 v 1 h -2 v 1 h -2 v 1 h -2 v 1 h -1 v 1 h -2 v 1 h -2 v 1 h -2 v 1 h -1 v 1 h -2 v 1 h -2 v 1 h -1 v 1 h -2 v 1 h -2 v 1 h -2 v 1 h -1 v 1 h -2 v 1 h -1 v 1 h -2 v 1 h -1 v 1 h -2 v 1 h -2 v 1 h -1 v 1 h -2 v 1 h -1 v 1 h -2 v 1 h -1 v 1 h -2 v 1 h -1 v 1 h -2 v 1 h -2 v 1 h -1 v 1 h -2 v 1 h -1 v 1 h -2 v 1 h -1 v 1 h -1 v 1 h -2 v 1 h -1 v 1 h -2 v 1 h -1 v 1 h -1 v 1 h -2 v 1 h -1 v 1 h -2 v 1 h -1 v 1 h -1 v 1 h -2 v 1 h -1 v 1 h -2 v 1 h -1 v 1 h -1 v 1 h -2 v 1 h -1 v 1 h -1 v 1 h -2 v 1 h -1 v 1 h -1 v 1 h -1 v 1 h -2 v 1 h -1 v 1 h -1 v 1 h -2 v 1 h -1 v 1 h -1 v 1 h -1 v 1 h -2 v 1 h -1 v 1 h -1 v 1 h -1 v 1 h -2 v 1 h -1 v 1 h -1 v 1 h -2 v 1 h -1 v 1 h -1 v 1 h -1 v 1 h -1 v 1 h -1 v 1 h -1 v 1 h -2 v 1 h -1 v 1 h -1 v 1 h -1 v 1 h -1 v 1 h -1 v 1 h -2 v 1 h -1 v 1 h -1 v 1 h -1 v 1 h -1 v 1 h -1 v 1 h -1 v 1 h -2 v 1 h -1 v 1 h -1 v 1 h -1 v 1 h -1 v 1 h -1 v 1 h -1 v 1 h -1 v 1 h -1 v 1 h -1 v 1 h -1 v 1 h -1 v 1 h -1 v 1 h -1 v 1 h -2 v 1 h -1 v 1 h -1 v 1 h -1 v 1 h -1 v 1 h -1 v 1 h -1 v 1 h -1 v 1 h -1 v 1 h -1 v 1 h -1 v 1 h -1 v 1 h -1 v 1 h -1 v 1 h -1 v 1 h -1 v 1 h -1 v 1 h -1 v 1 h -1 v 1 h -1 v 1 h -1 v 1 h -1 v 1 h -1 v 1 h -1 v 1 h -1 v 1 h -1 v 2 h -1 v 1 h -1 v 1 h -1 v 1 h -1 v 1 h -1 v 1 h -1 v 1 h -1 v 1 h -1 v 1 h -1 v 1 h -1 v 1 h -1 v 1 h -1 v 1 h -1 v 2 h -1 v 1 h -1 v 1 h -1 v 1 h -1 v 1 h -1 v 1 h -1 v 1 h -1 v 2 h -1 v 1 h -1 v 1 h -1 v 1 h -1 v 1 h -1 v 1 h -1 v 2 h -1 v 1 h -1 v 1 h -1 v 1 h -1 v 1 h -1 v 1 h -1 v 1 h -1 v 2 h -1 v 1 h -1 v 1 h -1 v 2 h -1 v 1 h -1 v 1 h -1 v 1 h -1 v 2 h -1 v 1 h -1 v 1 h -1 v 1 h -1 v 2 h -1 v 1 h -1 v 1 h -1 v 2 h -1 v 1 h -1 v 1 h -1 v 1 h -1 v 2 h -1 v 1 h -1 v 1 h -1 v 2 h -1 v 1 h -1 v 1 h -1 v 2 h -1 v 1 h -1 v 2 h -1 v 1 h -1 v 1 h -1 v 2 h -1 v 1 h -1 v 2 h -1 v 1 h -1 v 1 h -1 v 2 h -1 v 1 h -1 v 2 h -1 v 1 h -1 v 1 h -1 v 2 h -1 v 1 h -1 v 2 h -1 v 1 h -1 v 2 h -1 v 1 h -1 v 2 h -1 v 2 h -1 v 1 h -1 v 2 h -1 v 1 h -1 v 2 h -1 v 1 h -1 v 2 h -1 v 1 h -1 v 2 h -1 v 2 h -1 v 1 h -1 v 2 h -1 v 1 h -1 v 2 h -1 v 2 h -1 v 1 h -1 v 2 h -1 v 2 h -1 v 2 h -1 v 1 h -1 v 2 h -1 v 2 h -1 v 2 h -1 v 1 h -1 v 2 h -1 v 2 h -1 v 2 h -1 v 1 h -1 v 2 h -1 v 2 h -1 v 2 h -1 v 2 h -1 v 2 h -1 v 1 h -1 v 2 h -1 v 2 h -1 v 2 h -1 v 2 h -1 v 2 h -1 v 2 h -1 v 2 h -1 v 2 h -1 v 2 h -1 v 2 h -1 v 2 h -1 v 2 h -1 v 2 h -1 v 2 h -1 v 2 h -1 v 3 h -1 v 2 h -1 v 2 h -1 v 2 h -1 v 3 h -1 v 2 h -1 v 2 h -1 v 2 h -1 v 2 h -1 v 3 h -1 v 2 h -1 v 2 h -1 v 3 h -1 v 2 h -1 v 3 h -1 v 2 h -1 v 3 h -1 v 2 h -1 v 3 h -1 v 2 h -1 v 3 h -1 v 3 h -1 v 2 h -1 v 3 h -1 v 3 h -1 v 2 h -1 v 3 h -1 v 3 h -1 v 3 h -1 v 3 h -1 v 3 h -1 v 3 h -1 v 3 h -1 v 3 h -1 v 3 h -1 v 3 h -1 v 4 h -1 v 4 h -1 v 3 h -1 v 4 h -1 v 3 h -1 v 4 h -1 v 3 h -1 v 4 h -1 v 3 h -1 v 5 h -1 v 4 h -1 v 4 h -1 v 5 h -1 v 4 h -1 v 4 h -1 v 5 h -1 v 4 h -1 v 6 h -1 v 6 h -1 v 5 h -1 v 6 H 9 v 5 H 8 v 6 H 7 v 8 H 6 v 8 H 5 v 8 H 4 v 8 H 3 v 11 H 2 v 13 H 1 v 13 H 0 v 76 h 1 v 13 h 1 v 13 h 1 v 12 h 1 v 7 h 1 v 8 h 1 v 8 h 1 v 8 h 1 v 6 h 1 v 6 h 1 v 5 h 1 v 6 h 1 v 5 h 1 v 6 h 1 v 5 h 1 v 4 h 1 v 4 h 1 v 5 h 1 v 4 h 1 v 4 h 1 v 5 h 1 v 4 h 1 v 4 h 1 v 3 h 1 v 4 h 1 v 3 h 1 v 4 h 1 v 3 h 1 v 4 h 1 v 3 h 1 v 4 h 1 v 3 h 1 v 3 h 1 v 3 h 1 v 3 h 1 v 3 h 1 v 3 h 1 v 3 h 1 v 3 h 1 v 3 h 1 v 3 h 1 v 3 h 1 v 3 h 1 v 2 h 1 v 3 h 1 v 2 h 1 v 3 h 1 v 2 h 1 v 3 h 1 v 3 h 1 v 2 h 1 v 3 h 1 v 2 h 1 v 3 h 1 v 2 h 1 v 3 h 1 v 2 h 1 v 2 h 1 v 2 h 1 v 2 h 1 v 3 h 1 v 2 h 1 v 2 h 1 v 2 h 1 v 2 h 1 v 3 h 1 v 2 h 1 v 2 h 1 v 2 h 1 v 3 h 1 v 1 h 1 v 2 h 1 v 2 h 1 v 2 h 1 v 2 h 1 v 2 h 1 v 2 h 1 v 2 h 1 v 2 h 1 v 2 h 1 v 2 h 1 v 2 h 1 v 2 h 1 v 2 h 1 v 2 h 1 v 2 h 1 v 1 h 1 v 2 h 1 v 2 h 1 v 2 h 1 v 1 h 1 v 2 h 1 v 2 h 1 v 2 h 1 v 1 h 1 v 2 h 1 v 2 h 1 v 1 h 1 v 2 h 1 v 2 h 1 v 2 h 1 v 1 h 1 v 2 h 1 v 2 h 1 v 1 h 1 v 2 h 1 v 1 h 1 v 2 h 1 v 1 h 1 v 2 h 1 v 2 h 1 v 1 h 1 v 2 h 1 v 1 h 1 v 2 h 1 v 1 h 1 v 2 h 1 v 1 h 1 v 2 h 1 v 2 h 1 v 1 h 1 v 2 h 1 v 1 h 1 v 1 h 1 v 2 h 1 v 1 h 1 v 2 h 1 v 1 h 1 v 1 h 1 v 2 h 1 v 1 h 1 v 2 h 1 v 1 h 1 v 1 h 1 v 2 h 1 v 1 h 1 v 2 h 1 v 1 h 1 v 1 h 1 v 2 h 1 v 1 h 1 v 2 h 1 v 1 h 1 v 1 h 1 v 1 h 1 v 2 h 1 v 1 h 1 v 1 h 1 v 1 h 1 v 2 h 1 v 1 h 1 v 1 h 1 v 2 h 1 v 1 h 1 v 1 h 1 v 1 h 1 v 2 h 1 v 1 h 1 v 1 h 1 v 1 h 1 v 2 h 1 v 1 h 1 v 1 h 1 v 1 h 1 v 1 h 1 v 2 h 1 v 1 h 1 v 1 h 1 v 1 h 1 v 1 h 1 v 1 h 1 v 1 h 1 v 2 h 1 v 1 h 1 v 1 h 1 v 1 h 1 v 1 h 1 v 1 h 1 v 2 h 1 v 1 h 1 v 1 h 1 v 1 h 1 v 1 h 1 v 1 h 1 v 1 h 1 v 1 h 1 v 2 h 1 v 1 h 1 v 1 h 1 v 1 h 1 v 1 h 1 v 1 h 1 v 1 h 1 v 1 h 1 v 1 h 1 v 1 h 1 v 1 h 1 v 1 h 1 v 1 h 1 v 1 h 1 v 1 h 1 v 1 h 1 v 1 h 1 v 1 h 1 v 1 h 1 v 1 h 1 v 1 h 1 v 1 h 1 v 1 h 1 v 1 h 1 v 1 h 1 v 1 h 1 v 1 h 1 v 1 h 1 v 1 h 1 v 1 h 1 v 1 h 1 v 1 h 1 v 1 h 1 v 1 h 1 v 1 h 1 v 1 h 1 v 1 h 1 v 1 h 1 v 1 h 1 v 1 h 1 v 1 h 1 v 1 h 1 v 1 h 2 v 1 h 1 v 1 h 1 v 1 h 1 v 1 h 1 v 1 h 1 v 1 h 1 v 1 h 1 v 1 h 2 v 1 h 1 v 1 h 1 v 1 h 1 v 1 h 1 v 1 h 1 v 1 h 1 v 1 h 2 v 1 h 1 v 1 h 1 v 1 h 1 v 1 h 1 v 1 h 1 v 1 h 2 v 1 h 1 v 1 h 1 v 1 h 1 v 1 h 1 v 1 h 1 v 1 h 2 v 1 h 1 v 1 h 1 v 1 h 2 v 1 h 1 v 1 h 1 v 1 h 1 v 1 h 2 v 1 h 1 v 1 h 1 v 1 h 1 v 1 h 2 v 1 h 1 v 1 h 1 v 1 h 2 v 1 h 1 v 1 h 1 v 1 h 1 v 1 h 2 v 1 h 1 v 1 h 1 v 1 h 2 v 1 h 1 v 1 h 2 v 1 h 1 v 1 h 1 v 1 h 2 v 1 h 1 v 1 h 2 v 1 h 1 v 1 h 1 v 1 h 2 v 1 h 1 v 1 h 2 v 1 h 1 v 1 h 1 v 1 h 2 v 1 h 1 v 1 h 2 v 1 h 1 v 1 h 2 v 1 h 1 v 1 h 2 v 1 h 1 v 1 h 2 v 1 h 2 v 1 h 1 v 1 h 2 v 1 h 1 v 1 h 2 v 1 h 1 v 1 h 2 v 1 h 1 v 1 h 2 v 1 h 2 v 1 h 1 v 1 h 2 v 1 h 1 v 1 h 2 v 1 h 2 v 1 h 2 v 1 h 1 v 1 h 2 v 1 h 2 v 1 h 2 v 1 h 1 v 1 h 2 v 1 h 2 v 1 h 1 v 1 h 2 v 1 h 2 v 1 h 2 v 1 h 1 v 1 h 2 v 1 h 2 v 1 h 2 v 1 h 2 v 1 h 2 v 1 h 2 v 1 h 2 v 1 h 2 v 1 h 2 v 1 h 2 v 1 h 1 v 1 h 2 v 1 h 2 v 1 h 2 v 1 h 2 v 1 h 2 v 1 h 2 v 1 h 2 v 1 h 3 v 1 h 2 v 1 h 2 v 1 h 2 v 1 h 2 v 1 h 3 v 1 h 2 v 1 h 2 v 1 h 2 v 1 h 2 v 1 h 3 v 1 h 2 v 1 h 2 v 1 h 2 v 1 h 3 v 1 h 2 v 1 h 3 v 1 h 2 v 1 h 3 v 1 h 3 v 1 h 2 v 1 h 3 v 1 h 2 v 1 h 3 v 1 h 2 v 1 h 3 v 1 h 3 v 1 h 2 v 1 h 3 v 1 h 3 v 1 h 3 v 1 h 3 v 1 h 3 v 1 h 3 v 1 h 3 v 1 h 3 v 1 h 3 v 1 h 3 v 1 h 4 v 1 h 3 v 1 h 4 v 1 h 3 v 1 h 4 v 1 h 3 v 1 h 4 v 1 h 3 v 1 h 4 v 1 h 4 v 1 h 5 v 1 h 4 v 1 h 4 v 1 h 5 v 1 h 4 v 1 h 4 v 1 h 5 v 1 h 5 v 1 h 6 v 1 h 5 v 1 h 6 v 1 h 6 v 1 h 5 v 1 h 8 v 1 h 7 v 1 h 8 v 1 h 8 v 1 h 10 v 1 h 13 v 1 h 13 v 1 h 84 v -1 h 16 v -1 h 10 v -1 h 11 v -1 h 9 v -1 h 7 v -1 h 7 v -1 h 7 v -1 h 7 v -1 h 6 v -1 h 5 v -1 h 5 v -1 h 5 v -1 h 5 v -1 h 6 v -1 h 4 v -1 h 5 v -1 h 4 v -1 h 4 v -1 h 4 v -1 h 4 v -1 h 4 v -1 h 4 v -1 h 4 v -1 h 4 v -1 h 3 v -1 h 3 v -1 h 4 v -1 h 3 v -1 h 4 v -1 h 3 v -1 h 3 v -1 h 4 v -1 h 3 v -1 h 3 v -1 h 3 v -1 h 2 v -1 h 3 v -1 h 3 v -1 h 3 v -1 h 3 v -1 h 3 v -1 h 3 v -1 h 3 v -1 h 2 v -1 h 3 v -1 h 2 v -1 h 3 v -1 h 2 v -1 h 3 v -1 h 2 v -1 h 3 v -1 h 2 v -1 h 3 v -1 h 2 v -1 h 3 v -1 h 2 v -1 h 2 v -1 h 2 v -1 h 2 v -1 h 3 v -1 h 2 v -1 h 2 v -1 h 2 v -1 h 2 v -1 h 3 v -1 h 2 v -1 h 2 v -1 h 2 v -1 h 2 v -1 h 2 v -1 h 2 v -1 h 2 v -1 h 2 v -1 h 2 v -1 h 2 v -1 h 2 v -1 h 2 v -1 h 2 v -1 h 2 v -1 h 2 v -1 h 2 v -1 h 2 v -1 h 2 v -1 h 2 v -1 h 1 v -1 h 2 v -1 h 2 v -1 h 2 v -1 h 1 v -1 h 2 v -1 h 2 v -1 h 2 v -1 h 1 v -1 h 2 v -1 h 2 v -1 h 2 v -1 h 1 v -1 h 2 v -1 h 2 v -1 h 2 v -1 h 1 v -1 h 2 v -1 h 1 v -1 h 2 v -1 h 1 v -1 h 2 v -1 h 2 v -1 h 1 v -1 h 2 v -1 h 1 v -1 h 2 v -1 h 1 v -1 h 2 v -1 h 2 v -1 h 1 v -1 h 2 v -1 h 1 v -1 h 2 v -1 h 1 v -1 h 2 v -1 h 1 v -1 h 1 v -1 h 2 v -1 h 1 v -1 h 2 v -1 h 1 v -1 h 2 v -1 h 1 v -1 h 1 v -1 h 2 v -1 h 1 v -1 h 2 v -1 h 1 v -1 h 2 v -1 h 1 v -1 h 1 v -1 h 2 v -1 h 1 v -1 h 1 v -1 h 2 v -1 h 1 v -1 h 1 v -1 h 2 v -1 h 1 v -1 h 1 v -1 h 1 v -1 h 2 v -1 h 1 v -1 h 1 v -1 h 2 v -1 h 1 v -1 h 1 v -1 h 1 v -1 h 2 v -1 h 1 v -1 h 1 v -1 h 2 v -1 h 1 v -1 h 1 v -1 h 1 v -1 h 1 v -1 h 1 v -1 h 2 v -1 h 1 v -1 h 1 v -1 h 1 v -1 h 1 v -1 h 2 v -1 h 1 v -1 h 1 v -1 h 1 v -1 h 1 v -1 h 1 v -1 h 2 v -1 h 1 v -1 h 1 v -1 h 1 v -1 h 1 v -1 h 1 v -1 h 1 v -1 h 1 v -1 h 2 v -1 h 1 v -1 h 1 v -1 h 1 v -1 h 1 v -1 h 1 v -1 h 1 v -1 h 1 v -1 h 1 v -1 h 1 v -1 h 1 v -1 h 1 v -1 h 1 v -1 h 2 v -1 h 1 v -1 h 1 v -1 h 1 v -1 h 1 v -1 h 1 v -1 h 1 v -1 h 1 v -1 h 1 v -1 h 1 v -1 h 1 v -1 h 1 v -1 h 1 v -1 h 1 v -1 h 1 v -1 h 1 v -1 h 1 v -1 h 1 v -1 h 1 v -1 h 1 v -1 h 1 v -1 h 1 v -1 h 1 v -1 h 1 v -2 h 1 v -1 h 1 v -1 h 1 v -1 h 1 v -1 h 1 v -1 h 1 v -1 h 1 v -1 h 1 v -1 h 1 v -1 h 1 v -1 h 1 v -1 h 1 v -2 h 1 v -1 h 1 v -1 h 1 v -1 h 1 v -1 h 1 v -1 h 1 v -1 h 1 v -1 h 1 v -1 h 1 v -2 h 1 v -1 h 1 v -1 h 1 v -1 h 1 v -1 h 1 v -1 h 1 v -1 h 1 v -2 h 1 v -1 h 1 v -1 h 1 v -1 h 1 v -2 h 1 v -1 h 1 v -1 h 1 v -1 h 1 v -1 h 1 v -2 h 1 v -1 h 1 v -1 h 1 v -1 h 1 v -2 h 1 v -1 h 1 v -1 h 1 v -1 h 1 v -2 h 1 v -1 h 1 v -1 h 1 v -1 h 1 v -2 h 1 v -1 h 1 v -1 h 1 v -2 h 1 v -1 h 1 v -1 h 1 v -2 h 1 v -1 h 1 v -2 h 1 v -1 h 1 v -1 h 1 v -2 h 1 v -1 h 1 v -1 h 1 v -2 h 1 v -1 h 1 v -1 h 1 v -2 h 1 v -1 h 1 v -2 h 1 v -1 h 1 v -2 h 1 v -1 h 1 v -2 h 1 v -1 h 1 v -2 h 1 v -1 h 1 v -2 h 1 v -1 h 1 v -2 h 1 v -1 h 1 v -1 h 1 v -2 h 1 v -1 h 1 v -2 h 1 v -1 h 1 v -2 h 1 v -2 h 1 v -1 h 1 v -2 h 1 v -2 h 1 v -1 h 1 v -2 h 1 v -2 h 1 v -1 h 1 v -2 h 1 v -2 h 1 v -1 h 1 v -2 h 1 v -1 h 1 v -2 h 1 v -2 h 1 v -1 h 1 v -2 h 1 v -2 h 1 v -2 h 1 v -2 h 1 v -2 h 1 v -1 h 1 v -2 h 1 v -2 h 1 v -2 h 1 v -2 h 1 v -1 h 1 v -2 h 1 v -2 h 1 v -2 h 1 v -2 h 1 v -2 h 1 v -2 h 1 v -2 h 1 v -2 h 1 v -2 h 1 v -2 h 1 v -2 h 1 v -2 h 1 v -2 h 1 v -2 h 1 v -2 h 1 v -2 h 1 v -2 h 1 v -2 h 1 v -2 h 1 v -3 h 1 v -2 h 1 v -2 h 1 v -3 h 1 v -2 h 1 v -2 h 1 v -3 h 1 v -2 h 1 v -2 h 1 v -3 h 1 v -2 h 1 v -2 h 1 v -2 h 1 v -3 h 1 v -3 h 1 v -2 h 1 v -3 h 1 v -3 h 1 v -2 h 1 v -3 h 1 v -3 h 1 v -2 h 1 v -3 h 1 v -3 h 1 v -2 h 1 v -3 h 1 v -4 h 1 v -3 h 1 v -3 h 1 v -3 h 1 v -3 h 1 v -3 h 1 v -3 h 1 v -3 h 1 v -3 h 1 v -4 h 1 v -4 h 1 v -3 h 1 v -4 h 1 v -4 h 1 v -3 h 1 v -4 h 1 v -4 h 1 v -3 h 1 v -5 h 1 v -4 h 1 v -5 h 1 v -4 h 1 v -5 h 1 v -5 h 1 v -4 h 1 v -6 h 1 v -6 h 1 v -5 h 1 v -6 h 1 v -6 h 1 v -6 h 1 v -8 h 1 v -9 h 1 v -8 h 1 v -8 h 1 v -14 h 1 v -13 h 1 v -27 h 1 v -31 h -1 v -28 h -1 v -13 h -1 v -13 h -1 v -9 h -1 v -8 h -1 v -8 h -1 v -8 h -1 v -7 h -1 v -6 h -1 v -5 h -1 v -6 h -1 v -5 h -1 v -6 h -1 v -6 h -1 v -4 h -1 v -4 h -1 v -5 h -1 v -4 h -1 v -4 h -1 v -5 h -1 v -4 h -1 v -4 h -1 v -4 h -1 v -3 h -1 v -4 h -1 v -3 h -1 v -4 h -1 v -3 h -1 v -4 h -1 v -3 h -1 v -4 h -1 v -3 h -1 v -3 h -1 v -3 h -1 v -3 h -1 v -3 h -1 v -3 h -1 v -3 h -1 v -3 h -1 v -3 h -1 v -3 h -1 v -3 h -1 v -2 h -1 v -3 h -1 v -2 h -1 v -3 h -1 v -3 h -1 v -2 h -1 v -3 h -1 v -2 h -1 v -3 h -1 v -2 h -1 v -3 h -1 v -2 h -1 v -3 h -1 v -2 h -1 v -2 h -1 v -3 h -1 v -2 h -1 v -2 h -1 v -2 h -1 v -2 h -1 v -3 h -1 v -2 h -1 v -2 h -1 v -2 h -1 v -2 h -1 v -3 h -1 v -2 h -1 v -2 h -1 v -2 h -1 v -2 h -1 v -2 h -1 v -2 h -1 v -2 h -1 v -2 h -1 v -2 h -1 v -2 h -1 v -1 h -1 v -2 h -1 v -2 h -1 v -2 h -1 v -2 h -1 v -2 h -1 v -2 h -1 v -2 h -1 v -2 h -1 v -1 h -1 v -2 h -1 v -2 h -1 v -2 h -1 v -1 h -1 v -2 h -1 v -2 h -1 v -2 h -1 v -1 h -1 v -2 h -1 v -2 h -1 v -2 h -1 v -1 h -1 v -2 h -1 v -2 h -1 v -1 h -1 v -2 h -1 v -1 h -1 v -2 h -1 v -2 h -1 v -1 h -1 v -2 h -1 v -1 h -1 v -2 h -1 v -1 h -1 v -2 h -1 v -2 h -1 v -1 h -1 v -2 h -1 v -1 h -1 v -2 h -1 v -1 h -1 v -2 h -1 v -1 h -1 v -2 h -1 v -1 h -1 v -2 h -1 v -1 h -1 v -1 h -1 v -2 h -1 v -1 h -1 v -2 h -1 v -1 h -1 v -1 h -1 v -2 h -1 v -1 h -1 v -2 h -1 v -1 h -1 v -1 h -1 v -2 h -1 v -1 h -1 v -2 h -1 v -1 h -1 v -1 h -1 v -2 h -1 v -1 h -1 v -1 h -1 v -2 h -1 v -1 h -1 v -1 h -1 v -1 h -1 v -2 h -1 v -1 h -1 v -1 h -1 v -1 h -1 v -2 h -1 v -1 h -1 v -1 h -1 v -2 h -1 v -1 h -1 v -1 h -1 v -1 h -1 v -2 h -1 v -1 h -1 v -1 h -1 v -1 h -1 v -1 h -1 v -2 h -1 v -1 h -1 v -1 h -1 v -1 h -1 v -1 h -1 v -1 h -1 v -1 h -1 v -2 h -1 v -1 h -1 v -1 h -1 v -1 h -1 v -1 h -1 v -1 h -1 v -2 h -1 v -1 h -1 v -1 h -1 v -1 h -1 v -1 h -1 v -1 h -1 v -1 h -1 v -1 h -1 v -2 h -1 v -1 h -1 v -1 h -1 v -1 h -1 v -1 h -1 v -1 h -1 v -1 h -1 v -1 h -1 v -1 h -1 v -1 h -1 v -1 h -1 v -1 h -1 v -1 h -1 v -1 h -1 v -1 h -1 v -1 h -1 v -1 h -1 v -1 h -1 v -1 h -1 v -1 h -1 v -2 h -1 v -1 h -1 v -1 h -1 v -1 h -2 v -1 h -1 v -1 h -1 v -1 h -1 v -1 h -1 v -1 h -1 v -1 h -1 v -1 h -1 v -1 h -1 v -1 h -1 v -1 h -1 v -1 h -1 v -1 h -1 v -1 h -1 v -1 h -1 v -1 h -1 v -1 h -1 v -1 h -1 v -1 h -1 v -1 h -1 v -1 h -2 v -1 h -1 v -1 h -1 v -1 h -1 v -1 h -1 v -1 h -1 v -1 h -1 v -1 h -2 v -1 h -1 v -1 h -1 v -1 h -1 v -1 h -1 v -1 h -1 v -1 h -1 v -1 h -2 v -1 h -1 v -1 h -1 v -1 h -1 v -1 h -1 v -1 h -1 v -1 h -2 v -1 h -1 v -1 h -1 v -1 h -1 v -1 h -1 v -1 h -2 v -1 h -1 v -1 h -1 v -1 h -1 v -1 h -2 v -1 h -1 v -1 h -1 v -1 h -1 v -1 h -2 v -1 h -1 v -1 h -1 v -1 h -1 v -1 h -2 v -1 h -1 v -1 h -1 v -1 h -2 v -1 h -1 v -1 h -1 v -1 h -1 v -1 h -2 v -1 h -1 v -1 h -1 v -1 h -2 v -1 h -1 v -1 h -2 v -1 h -1 v -1 h -1 v -1 h -2 v -1 h -1 v -1 h -2 v -1 h -1 v -1 h -2 v -1 h -1 v -1 h -1 v -1 h -2 v -1 h -1 v -1 h -2 v -1 h -1 v -1 h -1 v -1 h -2 v -1 h -1 v -1 h -2 v -1 h -1 v -1 h -2 v -1 h -2 v -1 h -1 v -1 h -2 v -1 h -1 v -1 h -2 v -1 h -1 v -1 h -2 v -1 h -1 v -1 h -2 v -1 h -2 v -1 h -1 v -1 h -2 v -1 h -1 v -1 h -2 v -1 h -2 v -1 h -1 v -1 h -2 v -1 h -2 v -1 h -1 v -1 h -2 v -1 h -2 v -1 h -2 v -1 h -1 v -1 h -2 v -1 h -2 v -1 h -2 v -1 h -1 v -1 h -2 v -1 h -2 v -1 h -2 v -1 h -1 v -1 h -2 v -1 h -2 v -1 h -2 v -1 h -2 v -1 h -2 v -1 h -2 v -1 h -2 v -1 h -2 v -1 h -2 v -1 h -2 v -1 h -2 v -1 h -2 v -1 h -2 v -1 h -2 v -1 h -1 v -1 h -2 v -1 h -3 v -1 h -2 v -1 h -2 v -1 h -2 v -1 h -2 v -1 h -3 v -1 h -2 v -1 h -2 v -1 h -2 v -1 h -2 v -1 h -3 v -1 h -2 v -1 h -2 v -1 h -2 v -1 h -3 v -1 h -2 v -1 h -3 v -1 h -2 v -1 h -3 v -1 h -2 v -1 h -3 v -1 h -2 v -1 h -3 v -1 h -3 v -1 h -2 v -1 h -3 v -1 h -2 v -1 h -3 v -1 h -3 v -1 h -3 v -1 h -3 v -1 h -3 v -1 h -3 v -1 h -3 v -1 h -3 v -1 h -3 v -1 h -3 v -1 h -3 v -1 h -3 v -1 h -4 v -1 h -3 v -1 h -4 v -1 h -3 v -1 h -4 v -1 h -3 v -1 h -4 v -1 h -3 v -1 h -4 v -1 h -4 v -1 h -5 v -1 h -4 v -1 h -4 v -1 h -5 v -1 h -4 v -1 h -4 v -1 h -5 v -1 h -6 v -1 h -5 v -1 h -6 v -1 h -5 v -1 h -6 v -1 h -6 v -1 h -8 v -1 h -8 v -1 h -8 v -1 h -7 v -1 h -12 v -1 h -13 v -1 h -13 v -1 z m 9,89 v -1 h 62 v 1 h 13 v 1 h 13 v 1 h 10 v 1 h 8 v 1 h 7 v 1 h 8 v 1 h 6 v 1 h 6 v 1 h 6 v 1 h 5 v 1 h 6 v 1 h 5 v 1 h 4 v 1 h 5 v 1 h 4 v 1 h 4 v 1 h 5 v 1 h 4 v 1 h 4 v 1 h 4 v 1 h 3 v 1 h 4 v 1 h 3 v 1 h 4 v 1 h 3 v 1 h 4 v 1 h 3 v 1 h 3 v 1 h 3 v 1 h 3 v 1 h 3 v 1 h 3 v 1 h 3 v 1 h 3 v 1 h 3 v 1 h 3 v 1 h 3 v 1 h 2 v 1 h 3 v 1 h 2 v 1 h 3 v 1 h 3 v 1 h 2 v 1 h 3 v 1 h 2 v 1 h 3 v 1 h 2 v 1 h 3 v 1 h 2 v 1 h 2 v 1 h 2 v 1 h 3 v 1 h 2 v 1 h 2 v 1 h 2 v 1 h 3 v 1 h 2 v 1 h 2 v 1 h 2 v 1 h 2 v 1 h 3 v 1 h 1 v 1 h 2 v 1 h 2 v 1 h 2 v 1 h 2 v 1 h 2 v 1 h 2 v 1 h 2 v 1 h 2 v 1 h 2 v 1 h 2 v 1 h 2 v 1 h 2 v 1 h 2 v 1 h 1 v 1 h 2 v 1 h 2 v 1 h 2 v 1 h 1 v 1 h 2 v 1 h 2 v 1 h 2 v 1 h 1 v 1 h 2 v 1 h 2 v 1 h 2 v 1 h 1 v 1 h 2 v 1 h 2 v 1 h 1 v 1 h 2 v 1 h 1 v 1 h 2 v 1 h 2 v 1 h 1 v 1 h 2 v 1 h 1 v 1 h 2 v 1 h 1 v 1 h 2 v 1 h 2 v 1 h 1 v 1 h 2 v 1 h 1 v 1 h 2 v 1 h 1 v 1 h 2 v 1 h 1 v 1 h 1 v 1 h 2 v 1 h 1 v 1 h 2 v 1 h 1 v 1 h 1 v 1 h 2 v 1 h 1 v 1 h 2 v 1 h 1 v 1 h 1 v 1 h 2 v 1 h 1 v 1 h 2 v 1 h 1 v 1 h 1 v 1 h 2 v 1 h 1 v 1 h 1 v 1 h 1 v 1 h 2 v 1 h 1 v 1 h 1 v 1 h 1 v 1 h 2 v 1 h 1 v 1 h 1 v 1 h 2 v 1 h 1 v 1 h 1 v 1 h 1 v 1 h 2 v 1 h 1 v 1 h 1 v 1 h 1 v 1 h 1 v 1 h 2 v 1 h 1 v 1 h 1 v 1 h 1 v 1 h 1 v 1 h 1 v 1 h 1 v 1 h 2 v 1 h 1 v 1 h 1 v 1 h 1 v 1 h 1 v 1 h 1 v 1 h 2 v 1 h 1 v 1 h 1 v 1 h 1 v 1 h 1 v 1 h 1 v 1 h 1 v 1 h 1 v 1 h 1 v 1 h 1 v 1 h 1 v 1 h 1 v 1 h 1 v 1 h 1 v 1 h 2 v 1 h 1 v 1 h 1 v 1 h 1 v 1 h 1 v 1 h 1 v 1 h 1 v 1 h 1 v 1 h 1 v 1 h 1 v 1 h 1 v 1 h 1 v 1 h 1 v 1 h 1 v 1 h 1 v 1 h 1 v 1 h 1 v 1 h 1 v 1 h 1 v 1 h 1 v 2 h 1 v 1 h 1 v 1 h 1 v 1 h 1 v 1 h 1 v 1 h 1 v 1 h 1 v 1 h 1 v 1 h 1 v 1 h 1 v 1 h 1 v 1 h 1 v 1 h 1 v 1 h 1 v 2 h 1 v 1 h 1 v 1 h 1 v 1 h 1 v 1 h 1 v 1 h 1 v 1 h 1 v 2 h 1 v 1 h 1 v 1 h 1 v 1 h 1 v 1 h 1 v 1 h 1 v 2 h 1 v 1 h 1 v 1 h 1 v 1 h 1 v 1 h 1 v 2 h 1 v 1 h 1 v 1 h 1 v 1 h 1 v 2 h 1 v 1 h 1 v 1 h 1 v 1 h 1 v 2 h 1 v 1 h 1 v 1 h 1 v 2 h 1 v 1 h 1 v 1 h 1 v 1 h 1 v 2 h 1 v 1 h 1 v 1 h 1 v 2 h 1 v 1 h 1 v 1 h 1 v 2 h 1 v 1 h 1 v 2 h 1 v 1 h 1 v 1 h 1 v 2 h 1 v 1 h 1 v 2 h 1 v 1 h 1 v 1 h 1 v 2 h 1 v 1 h 1 v 2 h 1 v 1 h 1 v 2 h 1 v 1 h 1 v 2 h 1 v 1 h 1 v 2 h 1 v 1 h 1 v 2 h 1 v 2 h 1 v 1 h 1 v 2 h 1 v 1 h 1 v 2 h 1 v 1 h 1 v 2 h 1 v 1 h 1 v 2 h 1 v 2 h 1 v 1 h 1 v 2 h 1 v 2 h 1 v 2 h 1 v 1 h 1 v 2 h 1 v 2 h 1 v 2 h 1 v 1 h 1 v 2 h 1 v 2 h 1 v 2 h 1 v 1 h 1 v 2 h 1 v 2 h 1 v 2 h 1 v 2 h 1 v 2 h 1 v 2 h 1 v 2 h 1 v 2 h 1 v 2 h 1 v 1 h 1 v 2 h 1 v 2 h 1 v 2 h 1 v 2 h 1 v 2 h 1 v 2 h 1 v 3 h 1 v 2 h 1 v 2 h 1 v 2 h 1 v 2 h 1 v 3 h 1 v 2 h 1 v 2 h 1 v 2 h 1 v 2 h 1 v 3 h 1 v 2 h 1 v 3 h 1 v 2 h 1 v 3 h 1 v 2 h 1 v 3 h 1 v 2 h 1 v 3 h 1 v 2 h 1 v 3 h 1 v 2 h 1 v 3 h 1 v 3 h 1 v 3 h 1 v 3 h 1 v 3 h 1 v 3 h 1 v 3 h 1 v 3 h 1 v 3 h 1 v 2 h 1 v 4 h 1 v 3 h 1 v 4 h 1 v 3 h 1 v 4 h 1 v 3 h 1 v 4 h 1 v 3 h 1 v 4 h 1 v 4 h 1 v 5 h 1 v 4 h 1 v 4 h 1 v 4 h 1 v 5 h 1 v 4 h 1 v 6 h 1 v 5 h 1 v 6 h 1 v 6 h 1 v 5 h 1 v 7 h 1 v 8 h 1 v 8 h 1 v 8 h 1 v 11 h 1 v 13 h 1 v 20 h 1 v 42 h -1 v 20 h -1 v 13 h -1 v 12 h -1 v 8 h -1 v 7 h -1 v 8 h -1 v 7 h -1 v 6 h -1 v 6 h -1 v 5 h -1 v 6 h -1 v 5 h -1 v 5 h -1 v 4 h -1 v 4 h -1 v 5 h -1 v 4 h -1 v 4 h -1 v 5 h -1 v 3 h -1 v 4 h -1 v 3 h -1 v 4 h -1 v 3 h -1 v 4 h -1 v 3 h -1 v 4 h -1 v 3 h -1 v 3 h -1 v 3 h -1 v 3 h -1 v 3 h -1 v 3 h -1 v 3 h -1 v 3 h -1 v 3 h -1 v 3 h -1 v 2 h -1 v 3 h -1 v 2 h -1 v 3 h -1 v 2 h -1 v 3 h -1 v 2 h -1 v 3 h -1 v 2 h -1 v 3 h -1 v 2 h -1 v 3 h -1 v 2 h -1 v 2 h -1 v 3 h -1 v 2 h -1 v 2 h -1 v 2 h -1 v 2 h -1 v 3 h -1 v 2 h -1 v 2 h -1 v 2 h -1 v 2 h -1 v 2 h -1 v 2 h -1 v 2 h -1 v 2 h -1 v 2 h -1 v 2 h -1 v 2 h -1 v 2 h -1 v 2 h -1 v 2 h -1 v 2 h -1 v 2 h -1 v 2 h -1 v 2 h -1 v 1 h -1 v 2 h -1 v 2 h -1 v 2 h -1 v 1 h -1 v 2 h -1 v 2 h -1 v 1 h -1 v 2 h -1 v 2 h -1 v 2 h -1 v 1 h -1 v 2 h -1 v 2 h -1 v 2 h -1 v 1 h -1 v 2 h -1 v 1 h -1 v 2 h -1 v 1 h -1 v 2 h -1 v 1 h -1 v 2 h -1 v 2 h -1 v 1 h -1 v 2 h -1 v 1 h -1 v 2 h -1 v 1 h -1 v 2 h -1 v 1 h -1 v 2 h -1 v 1 h -1 v 2 h -1 v 1 h -1 v 2 h -1 v 1 h -1 v 1 h -1 v 2 h -1 v 1 h -1 v 2 h -1 v 1 h -1 v 1 h -1 v 2 h -1 v 1 h -1 v 2 h -1 v 1 h -1 v 1 h -1 v 2 h -1 v 1 h -1 v 1 h -1 v 2 h -1 v 1 h -1 v 1 h -1 v 1 h -1 v 2 h -1 v 1 h -1 v 1 h -1 v 1 h -1 v 2 h -1 v 1 h -1 v 1 h -1 v 1 h -1 v 2 h -1 v 1 h -1 v 1 h -1 v 2 h -1 v 1 h -1 v 1 h -1 v 1 h -1 v 1 h -1 v 1 h -1 v 1 h -1 v 2 h -1 v 1 h -1 v 1 h -1 v 1 h -1 v 1 h -1 v 1 h -1 v 2 h -1 v 1 h -1 v 1 h -1 v 1 h -1 v 1 h -1 v 1 h -1 v 1 h -1 v 2 h -1 v 1 h -1 v 1 h -1 v 1 h -1 v 1 h -1 v 1 h -1 v 1 h -1 v 1 h -1 v 1 h -1 v 1 h -1 v 1 h -1 v 1 h -1 v 1 h -1 v 1 h -1 v 1 h -1 v 1 h -1 v 1 h -1 v 1 h -1 v 1 h -1 v 1 h -1 v 2 h -1 v 1 h -2 v 1 h -1 v 1 h -1 v 1 h -1 v 1 h -1 v 1 h -1 v 1 h -1 v 1 h -1 v 1 h -1 v 1 h -1 v 1 h -1 v 1 h -1 v 1 h -1 v 1 h -1 v 1 h -1 v 1 h -1 v 1 h -1 v 1 h -1 v 1 h -1 v 1 h -1 v 1 h -2 v 1 h -1 v 1 h -1 v 1 h -1 v 1 h -1 v 1 h -1 v 1 h -2 v 1 h -1 v 1 h -1 v 1 h -1 v 1 h -1 v 1 h -1 v 1 h -1 v 1 h -2 v 1 h -1 v 1 h -1 v 1 h -1 v 1 h -1 v 1 h -1 v 1 h -2 v 1 h -1 v 1 h -1 v 1 h -1 v 1 h -2 v 1 h -1 v 1 h -1 v 1 h -2 v 1 h -1 v 1 h -1 v 1 h -1 v 1 h -2 v 1 h -1 v 1 h -1 v 1 h -1 v 1 h -2 v 1 h -1 v 1 h -1 v 1 h -2 v 1 h -1 v 1 h -1 v 1 h -2 v 1 h -1 v 1 h -2 v 1 h -1 v 1 h -1 v 1 h -2 v 1 h -1 v 1 h -2 v 1 h -1 v 1 h -1 v 1 h -2 v 1 h -1 v 1 h -2 v 1 h -1 v 1 h -1 v 1 h -2 v 1 h -1 v 1 h -2 v 1 h -2 v 1 h -1 v 1 h -2 v 1 h -1 v 1 h -2 v 1 h -1 v 1 h -2 v 1 h -1 v 1 h -2 v 1 h -2 v 1 h -1 v 1 h -2 v 1 h -1 v 1 h -2 v 1 h -2 v 1 h -1 v 1 h -2 v 1 h -2 v 1 h -2 v 1 h -1 v 1 h -2 v 1 h -2 v 1 h -1 v 1 h -2 v 1 h -2 v 1 h -2 v 1 h -1 v 1 h -2 v 1 h -2 v 1 h -2 v 1 h -2 v 1 h -2 v 1 h -2 v 1 h -2 v 1 h -2 v 1 h -2 v 1 h -2 v 1 h -1 v 1 h -2 v 1 h -2 v 1 h -2 v 1 h -2 v 1 h -2 v 1 h -2 v 1 h -3 v 1 h -2 v 1 h -2 v 1 h -2 v 1 h -3 v 1 h -2 v 1 h -2 v 1 h -2 v 1 h -2 v 1 h -3 v 1 h -2 v 1 h -2 v 1 h -3 v 1 h -2 v 1 h -3 v 1 h -2 v 1 h -3 v 1 h -2 v 1 h -3 v 1 h -2 v 1 h -3 v 1 h -3 v 1 h -2 v 1 h -3 v 1 h -3 v 1 h -3 v 1 h -3 v 1 h -3 v 1 h -3 v 1 h -3 v 1 h -3 v 1 h -3 v 1 h -3 v 1 h -4 v 1 h -3 v 1 h -4 v 1 h -3 v 1 h -4 v 1 h -3 v 1 h -4 v 1 h -3 v 1 h -5 v 1 h -4 v 1 h -4 v 1 h -5 v 1 h -4 v 1 h -4 v 1 h -5 v 1 h -5 v 1 h -6 v 1 h -6 v 1 h -5 v 1 h -6 v 1 h -7 v 1 h -8 v 1 h -7 v 1 h -8 v 1 h -11 v 1 h -14 v 1 h -18 v 1 h -47 v -1 h -19 v -1 h -13 v -1 h -11 v -1 h -8 v -1 h -8 v -1 h -8 v -1 h -7 v -1 h -5 v -1 h -6 v -1 h -5 v -1 h -6 v -1 h -6 v -1 h -4 v -1 h -4 v -1 h -5 v -1 h -4 v -1 h -4 v -1 h -5 v -1 h -4 v -1 h -4 v -1 h -3 v -1 h -4 v -1 h -3 v -1 h -4 v -1 h -3 v -1 h -4 v -1 h -3 v -1 h -4 v -1 h -3 v -1 h -2 v -1 h -3 v -1 h -3 v -1 h -3 v -1 h -3 v -1 h -3 v -1 h -3 v -1 h -3 v -1 h -3 v -1 h -2 v -1 h -3 v -1 h -2 v -1 h -3 v -1 h -3 v -1 h -2 v -1 h -3 v -1 h -2 v -1 h -3 v -1 h -2 v -1 h -3 v -1 h -2 v -1 h -2 v -1 h -2 v -1 h -3 v -1 h -2 v -1 h -2 v -1 h -2 v -1 h -2 v -1 h -3 v -1 h -2 v -1 h -2 v -1 h -2 v -1 h -2 v -1 h -2 v -1 h -2 v -1 h -2 v -1 h -2 v -1 h -2 v -1 h -2 v -1 h -2 v -1 h -2 v -1 h -2 v -1 h -2 v -1 h -2 v -1 h -2 v -1 h -2 v -1 h -1 v -1 h -2 v -1 h -2 v -1 h -2 v -1 h -1 v -1 h -2 v -1 h -2 v -1 h -2 v -1 h -1 v -1 h -2 v -1 h -2 v -1 h -1 v -1 h -2 v -1 h -2 v -1 h -2 v -1 h -1 v -1 h -2 v -1 h -1 v -1 h -2 v -1 h -1 v -1 h -2 v -1 h -2 v -1 h -1 v -1 h -2 v -1 h -1 v -1 h -2 v -1 h -1 v -1 h -2 v -1 h -2 v -1 h -1 v -1 h -2 v -1 h -1 v -1 h -2 v -1 h -1 v -1 h -1 v -1 h -2 v -1 h -1 v -1 h -2 v -1 h -1 v -1 h -1 v -1 h -2 v -1 h -1 v -1 h -2 v -1 h -1 v -1 h -1 v -1 h -2 v -1 h -1 v -1 h -2 v -1 h -1 v -1 h -1 v -1 h -2 v -1 h -1 v -1 h -1 v -1 h -1 v -1 h -2 v -1 h -1 v -1 h -1 v -1 h -1 v -1 h -2 v -1 h -1 v -1 h -1 v -1 h -2 v -1 h -1 v -1 h -1 v -1 h -1 v -1 h -2 v -1 h -1 v -1 h -1 v -1 h -1 v -1 h -1 v -1 h -2 v -1 h -1 v -1 h -1 v -1 h -1 v -1 h -1 v -1 h -1 v -1 h -2 v -1 h -1 v -1 h -1 v -1 h -1 v -1 h -1 v -1 h -1 v -1 h -1 v -1 h -2 v -1 h -1 v -1 h -1 v -1 h -1 v -1 h -1 v -1 h -1 v -1 h -1 v -1 h -1 v -1 h -1 v -1 h -1 v -1 h -1 v -1 h -1 v -1 h -2 v -1 h -1 v -1 h -1 v -1 h -1 v -1 h -1 v -1 h -1 v -1 h -1 v -1 h -1 v -1 h -1 v -1 h -1 v -1 h -1 v -1 h -1 v -1 h -1 v -1 h -1 v -1 h -1 v -1 h -1 v -1 h -1 v -1 h -1 v -1 h -1 v -1 h -1 v -1 h -1 v -1 h -1 v -1 h -1 v -1 h -1 v -1 h -1 v -1 h -1 v -2 h -1 v -1 h -1 v -1 h -1 v -1 h -1 v -1 h -1 v -1 h -1 v -1 h -1 v -1 h -1 v -1 h -1 v -1 h -1 v -1 h -1 v -1 h -1 v -2 h -1 v -1 h -1 v -1 h -1 v -1 h -1 v -1 h -1 v -1 h -1 v -2 h -1 v -1 h -1 v -1 h -1 v -1 h -1 v -1 h -1 v -1 h -1 v -1 h -1 v -2 h -1 v -1 h -1 v -1 h -1 v -1 h -1 v -2 h -1 v -1 h -1 v -1 h -1 v -1 h -1 v -2 h -1 v -1 h -1 v -1 h -1 v -1 h -1 v -2 h -1 v -1 h -1 v -1 h -1 v -1 h -1 v -2 h -1 v -1 h -1 v -1 h -1 v -2 h -1 v -1 h -1 v -1 h -1 v -2 h -1 v -1 h -1 v -1 h -1 v -2 h -1 v -1 h -1 v -2 h -1 v -1 h -1 v -1 h -1 v -2 h -1 v -1 h -1 v -2 h -1 v -1 h -1 v -1 h -1 v -2 h -1 v -1 h -1 v -2 h -1 v -1 h -1 v -2 h -1 v -1 h -1 v -2 h -1 v -1 h -1 v -2 h -1 v -1 h -1 v -2 h -1 v -2 h -1 v -1 h -1 v -2 h -1 v -1 h -1 v -2 h -1 v -1 h -1 v -2 h -1 v -1 h -1 v -2 h -1 v -2 h -1 v -2 h -1 v -1 h -1 v -2 h -1 v -2 h -1 v -1 h -1 v -2 h -1 v -2 h -1 v -2 h -1 v -1 h -1 v -2 h -1 v -2 h -1 v -2 h -1 v -1 h -1 v -2 h -1 v -2 h -1 v -2 h -1 v -2 h -1 v -2 h -1 v -2 h -1 v -2 h -1 v -2 h -1 v -2 h -1 v -2 h -1 v -2 h -1 v -2 h -1 v -1 h -1 v -2 h -1 v -3 h -1 v -2 h -1 v -2 h -1 v -2 h -1 v -2 h -1 v -3 h -1 v -2 h -1 v -2 h -1 v -2 h -1 v -2 h -1 v -3 h -1 v -2 h -1 v -2 h -1 v -2 h -1 v -3 h -1 v -3 h -1 v -2 h -1 v -3 h -1 v -2 h -1 v -3 h -1 v -2 h -1 v -3 h -1 v -2 h -1 v -3 h -1 v -3 h -1 v -2 h -1 v -3 h -1 v -3 h -1 v -3 h -1 v -3 h -1 v -3 h -1 v -3 h -1 v -3 h -1 v -3 h -1 v -3 h -1 v -4 h -1 v -4 h -1 v -3 h -1 v -4 h -1 v -3 h -1 v -4 h -1 v -3 h -1 v -4 h -1 v -4 h -1 v -5 h -1 v -4 h -1 v -4 h -1 v -4 h -1 v -5 h -1 v -5 h -1 v -5 h -1 v -6 h -1 v -5 h -1 v -6 h -1 v -6 h -1 v -7 h -1 v -8 h -1 v -8 h -1 v -8 h -1 v -13 h -1 v -13 h -1 v -30 h -1 v -14 h 1 v -29 h 1 v -14 h 1 v -12 h 1 v -8 h 1 v -8 h 1 v -9 h 1 v -6 h 1 v -6 h 1 v -6 h 1 v -6 h 1 v -6 h 1 v -5 h 1 v -4 h 1 v -5 h 1 v -4 h 1 v -5 h 1 v -4 h 1 v -5 h 1 v -3 h 1 v -4 h 1 v -4 h 1 v -3 h 1 v -4 h 1 v -4 h 1 v -3 h 1 v -4 h 1 v -3 h 1 v -3 h 1 v -3 h 1 v -3 h 1 v -3 h 1 v -3 h 1 v -3 h 1 v -3 h 1 v -3 h 1 v -3 h 1 v -3 h 1 v -2 h 1 v -3 h 1 v -3 h 1 v -2 h 1 v -3 h 1 v -3 h 1 v -2 h 1 v -3 h 1 v -2 h 1 v -3 h 1 v -2 h 1 v -2 h 1 v -2 h 1 v -3 h 1 v -2 h 1 v -2 h 1 v -3 h 1 v -2 h 1 v -2 h 1 v -2 h 1 v -3 h 1 v -2 h 1 v -2 h 1 v -2 h 1 v -2 h 1 v -2 h 1 v -2 h 1 v -2 h 1 v -2 h 1 v -2 h 1 v -2 h 1 v -2 h 1 v -2 h 1 v -2 h 1 v -2 h 1 v -1 h 1 v -2 h 1 v -2 h 1 v -2 h 1 v -2 h 1 v -1 h 1 v -2 h 1 v -2 h 1 v -2 h 1 v -2 h 1 v -2 h 1 v -1 h 1 v -2 h 1 v -2 h 1 v -1 h 1 v -2 h 1 v -1 h 1 v -2 h 1 v -2 h 1 v -1 h 1 v -2 h 1 v -2 h 1 v -1 h 1 v -2 h 1 v -1 h 1 v -2 h 1 v -2 h 1 v -1 h 1 v -2 h 1 v -1 h 1 v -2 h 1 v -1 h 1 v -2 h 1 v -1 h 1 v -1 h 1 v -2 h 1 v -1 h 1 v -2 h 1 v -1 h 1 v -2 h 1 v -1 h 1 v -2 h 1 v -1 h 1 v -2 h 1 v -1 h 1 v -1 h 1 v -2 h 1 v -1 h 1 v -1 h 1 v -2 h 1 v -1 h 1 v -1 h 1 v -2 h 1 v -1 h 1 v -1 h 1 v -2 h 1 v -1 h 1 v -1 h 1 v -2 h 1 v -1 h 1 v -1 h 1 v -1 h 1 v -2 h 1 v -1 h 1 v -1 h 1 v -1 h 1 v -2 h 1 v -1 h 1 v -1 h 1 v -1 h 1 v -1 h 1 v -2 h 1 v -1 h 1 v -1 h 1 v -1 h 1 v -2 h 1 v -1 h 1 v -1 h 1 v -1 h 1 v -1 h 1 v -1 h 1 v -1 h 1 v -2 h 1 v -1 h 1 v -1 h 1 v -1 h 1 v -1 h 1 v -1 h 1 v -1 h 1 v -1 h 1 v -1 h 1 v -2 h 1 v -1 h 1 v -1 h 1 v -1 h 1 v -1 h 1 v -1 h 1 v -1 h 1 v -1 h 1 v -1 h 1 v -1 h 1 v -1 h 1 v -1 h 1 v -1 h 1 v -1 h 1 v -1 h 1 v -1 h 1 v -1 h 1 v -1 h 1 v -1 h 1 v -1 h 1 v -1 h 1 v -1 h 1 v -1 h 1 v -1 h 1 v -1 h 1 v -1 h 1 v -1 h 1 v -1 h 1 v -1 h 1 v -1 h 1 v -1 h 1 v -1 h 1 v -1 h 1 v -1 h 1 v -1 h 1 v -1 h 1 v -1 h 1 v -1 h 2 v -1 h 1 v -1 h 1 v -1 h 1 v -1 h 1 v -1 h 1 v -1 h 1 v -1 h 1 v -1 h 1 v -1 h 1 v -1 h 2 v -1 h 1 v -1 h 1 v -1 h 1 v -1 h 1 v -1 h 1 v -1 h 2 v -1 h 1 v -1 h 1 v -1 h 1 v -1 h 1 v -1 h 2 v -1 h 1 v -1 h 1 v -1 h 1 v -1 h 1 v -1 h 2 v -1 h 1 v -1 h 1 v -1 h 1 v -1 h 2 v -1 h 1 v -1 h 1 v -1 h 2 v -1 h 1 v -1 h 1 v -1 h 1 v -1 h 2 v -1 h 1 v -1 h 1 v -1 h 2 v -1 h 1 v -1 h 1 v -1 h 2 v -1 h 1 v -1 h 1 v -1 h 2 v -1 h 1 v -1 h 2 v -1 h 1 v -1 h 1 v -1 h 2 v -1 h 1 v -1 h 2 v -1 h 1 v -1 h 2 v -1 h 1 v -1 h 1 v -1 h 2 v -1 h 1 v -1 h 2 v -1 h 1 v -1 h 2 v -1 h 1 v -1 h 2 v -1 h 2 v -1 h 1 v -1 h 2 v -1 h 1 v -1 h 2 v -1 h 2 v -1 h 1 v -1 h 2 v -1 h 1 v -1 h 2 v -1 h 1 v -1 h 2 v -1 h 2 v -1 h 2 v -1 h 1 v -1 h 2 v -1 h 2 v -1 h 2 v -1 h 1 v -1 h 2 v -1 h 2 v -1 h 2 v -1 h 1 v -1 h 2 v -1 h 2 v -1 h 2 v -1 h 1 v -1 h 2 v -1 h 2 v -1 h 2 v -1 h 2 v -1 h 2 v -1 h 2 v -1 h 2 v -1 h 2 v -1 h 2 v -1 h 2 v -1 h 2 v -1 h 2 v -1 h 2 v -1 h 2 v -1 h 3 v -1 h 2 v -1 h 2 v -1 h 2 v -1 h 2 v -1 h 3 v -1 h 2 v -1 h 2 v -1 h 2 v -1 h 2 v -1 h 3 v -1 h 2 v -1 h 3 v -1 h 2 v -1 h 3 v -1 h 2 v -1 h 3 v -1 h 3 v -1 h 2 v -1 h 3 v -1 h 2 v -1 h 3 v -1 h 3 v -1 h 3 v -1 h 3 v -1 h 3 v -1 h 2 v -1 h 3 v -1 h 3 v -1 h 3 v -1 h 3 v -1 h 4 v -1 h 3 v -1 h 4 v -1 h 3 v -1 h 3 v -1 h 4 v -1 h 3 v -1 h 4 v -1 h 4 v -1 h 4 v -1 h 4 v -1 h 4 v -1 h 5 v -1 h 4 v -1 h 4 v -1 h 5 v -1 h 5 v -1 h 6 v -1 h 5 v -1 h 5 v -1 h 6 v -1 h 7 v -1 h 8 v -1 h 7 v -1 h 8 v -1 h 11 v -1 h 11 v -1" /></g></g></g></g><g
         id="g106"><g
           clip-path="url(#clipPath112)"
           id="g108"><path
             id="path124"
             style="fill:url(#linearGradient122);fill-opacity:1;fill-rule:nonzero;stroke:none"
             d="M 275.648,1907.52 C 165.406,1798.03 97.2227,1646.89 97.2227,1479.84 v 0 c 0,-166.99 68.1833,-318.12 178.4253,-427.6 v 0 C 385.914,942.84 538.129,875.102 706.402,875.102 v 0 c 168.243,0 320.468,67.738 430.738,177.138 v 0 c 110.24,109.48 178.41,260.61 178.41,427.6 v 0 c 0,167.05 -68.17,318.19 -178.41,427.68 v 0 c -110.27,109.44 -262.495,177.13 -430.738,177.13 v 0 c -168.273,0 -320.488,-67.69 -430.754,-177.13 z M 73.8477,1479.84 c 0,346.89 283.1873,628.02 632.5543,628.02 v 0 c 349.338,0 632.538,-281.13 632.538,-628.02 v 0 c 0,-346.77 -283.2,-627.981 -632.538,-627.981 v 0 c -349.367,0 -632.5543,281.211 -632.5543,627.981 v 0" /></g></g><g
         id="g126"><g
           clip-path="url(#clipPath132)"
           id="g128"><g
             clip-path="url(#clipPath138)"
             id="g134"><path
               id="path154"
               style="fill:url(#radialGradient152);fill-opacity:1;fill-rule:nonzero;stroke:none"
               d="m 694,848 v 1 h -28 v 1 h -13 v 1 h -13 v 1 h -8 v 1 h -8 v 1 h -8 v 1 h -8 v 1 h -5 v 1 h -6 v 1 h -6 v 1 h -5 v 1 h -6 v 1 h -5 v 1 h -4 v 1 h -5 v 1 h -4 v 1 h -4 v 1 h -5 v 1 h -4 v 1 h -4 v 1 h -4 v 1 h -3 v 1 h -4 v 1 h -3 v 1 h -4 v 1 h -4 v 1 h -3 v 1 h -4 v 1 h -3 v 1 h -3 v 1 h -3 v 1 h -3 v 1 h -3 v 1 h -3 v 1 h -3 v 1 h -3 v 1 h -3 v 1 h -3 v 1 h -2 v 1 h -3 v 1 h -2 v 1 h -3 v 1 h -2 v 1 h -3 v 1 h -2 v 1 h -3 v 1 h -3 v 1 h -2 v 1 h -3 v 1 h -2 v 1 h -2 v 1 h -3 v 1 h -2 v 1 h -2 v 1 h -2 v 1 h -2 v 1 h -3 v 1 h -2 v 1 h -2 v 1 h -2 v 1 h -3 v 1 h -2 v 1 h -2 v 1 h -2 v 1 h -2 v 1 h -2 v 1 h -2 v 1 h -2 v 1 h -2 v 1 h -2 v 1 h -2 v 1 h -2 v 1 h -2 v 1 h -2 v 1 h -2 v 1 h -1 v 1 h -2 v 1 h -2 v 1 h -2 v 1 h -2 v 1 h -1 v 1 h -2 v 1 h -2 v 1 h -2 v 1 h -1 v 1 h -2 v 1 h -2 v 1 h -2 v 1 h -1 v 1 h -2 v 1 h -2 v 1 h -1 v 1 h -2 v 1 h -2 v 1 h -1 v 1 h -2 v 1 h -1 v 1 h -2 v 1 h -1 v 1 h -2 v 1 h -2 v 1 h -1 v 1 h -2 v 1 h -1 v 1 h -2 v 1 h -2 v 1 h -1 v 1 h -2 v 1 h -1 v 1 h -1 v 1 h -2 v 1 h -1 v 1 h -2 v 1 h -1 v 1 h -2 v 1 h -1 v 1 h -1 v 1 h -2 v 1 h -1 v 1 h -2 v 1 h -1 v 1 h -1 v 1 h -2 v 1 h -1 v 1 h -2 v 1 h -1 v 1 h -1 v 1 h -2 v 1 h -1 v 1 h -1 v 1 h -2 v 1 h -1 v 1 h -1 v 1 h -1 v 1 h -2 v 1 h -1 v 1 h -1 v 1 h -2 v 1 h -1 v 1 h -1 v 1 h -1 v 1 h -2 v 1 h -1 v 1 h -1 v 1 h -1 v 1 h -2 v 1 h -1 v 1 h -1 v 1 h -1 v 1 h -1 v 1 h -1 v 1 h -2 v 1 h -1 v 1 h -1 v 1 h -1 v 1 h -1 v 1 h -1 v 1 h -2 v 1 h -1 v 1 h -1 v 1 h -1 v 1 h -1 v 1 h -1 v 1 h -2 v 1 h -1 v 1 h -1 v 1 h -1 v 1 h -1 v 1 h -1 v 1 h -1 v 1 h -1 v 1 h -1 v 1 h -1 v 1 h -1 v 1 h -1 v 1 h -1 v 1 h -1 v 1 h -1 v 1 h -1 v 1 h -1 v 1 h -2 v 1 h -1 v 1 h -1 v 1 h -1 v 1 h -1 v 1 h -1 v 1 h -1 v 1 h -1 v 1 h -1 v 1 h -1 v 1 h -1 v 1 h -1 v 2 h -1 v 1 h -1 v 1 h -1 v 1 h -1 v 1 h -1 v 1 h -1 v 1 h -1 v 1 h -1 v 1 h -1 v 1 h -1 v 1 h -1 v 1 h -1 v 1 h -1 v 1 h -1 v 1 h -1 v 1 h -1 v 1 h -1 v 2 h -1 v 1 h -1 v 1 h -1 v 1 h -1 v 1 h -1 v 1 h -1 v 1 h -1 v 2 h -1 v 1 h -1 v 1 h -1 v 1 h -1 v 1 h -1 v 1 h -1 v 1 h -1 v 2 h -1 v 1 h -1 v 1 h -1 v 1 h -1 v 1 h -1 v 2 h -1 v 1 h -1 v 1 h -1 v 1 h -1 v 2 h -1 v 1 h -1 v 1 h -1 v 1 h -1 v 2 h -1 v 1 h -1 v 1 h -1 v 1 h -1 v 2 h -1 v 1 h -1 v 1 h -1 v 1 h -1 v 2 h -1 v 1 h -1 v 1 h -1 v 2 h -1 v 1 h -1 v 2 h -1 v 1 h -1 v 1 h -1 v 2 h -1 v 1 h -1 v 2 h -1 v 1 h -1 v 1 h -1 v 2 h -1 v 1 h -1 v 2 h -1 v 1 h -1 v 1 h -1 v 2 h -1 v 1 h -1 v 2 h -1 v 1 h -1 v 2 h -1 v 1 h -1 v 2 h -1 v 1 h -1 v 2 h -1 v 2 h -1 v 1 h -1 v 2 h -1 v 1 h -1 v 2 h -1 v 1 h -1 v 2 h -1 v 1 h -1 v 2 h -1 v 2 h -1 v 1 h -1 v 2 h -1 v 2 h -1 v 2 h -1 v 1 h -1 v 2 h -1 v 2 h -1 v 1 h -1 v 2 h -1 v 2 h -1 v 2 h -1 v 1 h -1 v 2 h -1 v 2 h -1 v 2 h -1 v 2 h -1 v 1 h -1 v 2 h -1 v 2 h -1 v 2 h -1 v 2 h -1 v 2 h -1 v 2 h -1 v 2 h -1 v 2 h -1 v 2 h -1 v 2 h -1 v 2 h -1 v 2 h -1 v 2 h -1 v 2 h -1 v 2 h -1 v 3 h -1 v 2 h -1 v 2 h -1 v 2 h -1 v 2 h -1 v 3 h -1 v 2 h -1 v 2 h -1 v 2 h -1 v 2 h -1 v 3 h -1 v 3 h -1 v 2 h -1 v 3 h -1 v 2 h -1 v 3 h -1 v 2 h -1 v 3 h -1 v 2 h -1 v 3 h -1 v 2 h -1 v 3 h -1 v 3 h -1 v 3 h -1 v 3 h -1 v 3 h -1 v 3 h -1 v 3 h -1 v 3 h -1 v 3 h -1 v 3 h -1 v 3 h -1 v 4 h -1 v 3 h -1 v 4 h -1 v 3 h -1 v 3 h -1 v 4 h -1 v 3 h -1 v 4 h -1 v 5 h -1 v 4 h -1 v 4 h -1 v 5 h -1 v 4 h -1 v 4 h -1 v 5 h -1 v 5 h -1 v 6 h -1 v 6 h -1 v 5 h -1 v 6 h -1 v 7 h -1 v 8 h -1 v 7 h -1 v 8 h -1 v 12 h -1 v 13 h -1 v 18 h -1 v 50 h 1 v 18 h 1 v 13 h 1 v 12 h 1 v 8 h 1 v 7 h 1 v 8 h 1 v 7 h 1 v 6 h 1 v 5 h 1 v 6 h 1 v 6 h 1 v 5 h 1 v 5 h 1 v 4 h 1 v 4 h 1 v 5 h 1 v 4 h 1 v 4 h 1 v 5 h 1 v 4 h 1 v 3 h 1 v 4 h 1 v 3 h 1 v 4 h 1 v 3 h 1 v 3 h 1 v 4 h 1 v 3 h 1 v 3 h 1 v 3 h 1 v 3 h 1 v 3 h 1 v 3 h 1 v 3 h 1 v 3 h 1 v 3 h 1 v 3 h 1 v 3 h 1 v 2 h 1 v 3 h 1 v 2 h 1 v 3 h 1 v 2 h 1 v 3 h 1 v 2 h 1 v 3 h 1 v 3 h 1 v 2 h 1 v 3 h 1 v 2 h 1 v 2 h 1 v 2 h 1 v 2 h 1 v 3 h 1 v 2 h 1 v 2 h 1 v 2 h 1 v 2 h 1 v 3 h 1 v 2 h 1 v 2 h 1 v 2 h 1 v 2 h 1 v 2 h 1 v 2 h 1 v 2 h 1 v 2 h 1 v 2 h 1 v 2 h 1 v 2 h 1 v 2 h 1 v 2 h 1 v 2 h 1 v 2 h 1 v 1 h 1 v 2 h 1 v 2 h 1 v 2 h 1 v 2 h 1 v 1 h 1 v 2 h 1 v 2 h 1 v 2 h 1 v 1 h 1 v 2 h 1 v 2 h 1 v 1 h 1 v 2 h 1 v 2 h 1 v 2 h 1 v 1 h 1 v 2 h 1 v 2 h 1 v 1 h 1 v 2 h 1 v 1 h 1 v 2 h 1 v 1 h 1 v 2 h 1 v 1 h 1 v 2 h 1 v 2 h 1 v 1 h 1 v 2 h 1 v 1 h 1 v 2 h 1 v 1 h 1 v 2 h 1 v 1 h 1 v 2 h 1 v 1 h 1 v 1 h 1 v 2 h 1 v 1 h 1 v 2 h 1 v 1 h 1 v 1 h 1 v 2 h 1 v 1 h 1 v 2 h 1 v 1 h 1 v 1 h 1 v 2 h 1 v 1 h 1 v 2 h 1 v 1 h 1 v 1 h 1 v 2 h 1 v 1 h 1 v 1 h 1 v 1 h 1 v 2 h 1 v 1 h 1 v 1 h 1 v 1 h 1 v 2 h 1 v 1 h 1 v 1 h 1 v 1 h 1 v 2 h 1 v 1 h 1 v 1 h 1 v 1 h 1 v 2 h 1 v 1 h 1 v 1 h 1 v 1 h 1 v 1 h 1 v 2 h 1 v 1 h 1 v 1 h 1 v 1 h 1 v 1 h 1 v 1 h 1 v 1 h 1 v 2 h 1 v 1 h 1 v 1 h 1 v 1 h 1 v 1 h 1 v 1 h 1 v 1 h 1 v 2 h 1 v 1 h 1 v 1 h 1 v 1 h 1 v 1 h 1 v 1 h 1 v 1 h 1 v 1 h 1 v 1 h 1 v 1 h 1 v 1 h 1 v 1 h 1 v 1 h 1 v 1 h 1 v 1 h 1 v 1 h 1 v 2 h 1 v 1 h 1 v 1 h 1 v 1 h 1 v 1 h 1 v 1 h 1 v 1 h 1 v 1 h 1 v 1 h 1 v 1 h 1 v 1 h 1 v 1 h 1 v 1 h 1 v 1 h 2 v 1 h 1 v 1 h 1 v 1 h 1 v 1 h 1 v 1 h 1 v 1 h 1 v 1 h 1 v 1 h 1 v 1 h 1 v 1 h 1 v 1 h 1 v 1 h 1 v 1 h 1 v 1 h 1 v 1 h 1 v 1 h 2 v 1 h 1 v 1 h 1 v 1 h 1 v 1 h 1 v 1 h 1 v 1 h 2 v 1 h 1 v 1 h 1 v 1 h 1 v 1 h 1 v 1 h 1 v 1 h 2 v 1 h 1 v 1 h 1 v 1 h 1 v 1 h 1 v 1 h 1 v 1 h 2 v 1 h 1 v 1 h 1 v 1 h 1 v 1 h 2 v 1 h 1 v 1 h 1 v 1 h 1 v 1 h 2 v 1 h 1 v 1 h 1 v 1 h 2 v 1 h 1 v 1 h 1 v 1 h 1 v 1 h 2 v 1 h 1 v 1 h 1 v 1 h 2 v 1 h 1 v 1 h 1 v 1 h 2 v 1 h 1 v 1 h 1 v 1 h 2 v 1 h 1 v 1 h 2 v 1 h 1 v 1 h 2 v 1 h 1 v 1 h 1 v 1 h 2 v 1 h 1 v 1 h 2 v 1 h 1 v 1 h 1 v 1 h 2 v 1 h 1 v 1 h 2 v 1 h 1 v 1 h 2 v 1 h 2 v 1 h 1 v 1 h 2 v 1 h 1 v 1 h 2 v 1 h 1 v 1 h 2 v 1 h 2 v 1 h 1 v 1 h 2 v 1 h 1 v 1 h 2 v 1 h 1 v 1 h 2 v 1 h 2 v 1 h 2 v 1 h 1 v 1 h 2 v 1 h 2 v 1 h 2 v 1 h 1 v 1 h 2 v 1 h 2 v 1 h 2 v 1 h 1 v 1 h 2 v 1 h 2 v 1 h 2 v 1 h 1 v 1 h 2 v 1 h 2 v 1 h 2 v 1 h 2 v 1 h 2 v 1 h 2 v 1 h 2 v 1 h 2 v 1 h 2 v 1 h 2 v 1 h 2 v 1 h 2 v 1 h 2 v 1 h 2 v 1 h 2 v 1 h 3 v 1 h 2 v 1 h 2 v 1 h 2 v 1 h 2 v 1 h 3 v 1 h 2 v 1 h 2 v 1 h 2 v 1 h 3 v 1 h 2 v 1 h 2 v 1 h 3 v 1 h 2 v 1 h 3 v 1 h 2 v 1 h 3 v 1 h 3 v 1 h 2 v 1 h 3 v 1 h 2 v 1 h 3 v 1 h 2 v 1 h 3 v 1 h 3 v 1 h 3 v 1 h 3 v 1 h 3 v 1 h 3 v 1 h 3 v 1 h 3 v 1 h 3 v 1 h 3 v 1 h 4 v 1 h 3 v 1 h 4 v 1 h 4 v 1 h 3 v 1 h 4 v 1 h 3 v 1 h 4 v 1 h 4 v 1 h 4 v 1 h 5 v 1 h 4 v 1 h 4 v 1 h 5 v 1 h 4 v 1 h 5 v 1 h 6 v 1 h 5 v 1 h 6 v 1 h 6 v 1 h 5 v 1 h 8 v 1 h 8 v 1 h 8 v 1 h 8 v 1 h 13 v 1 h 13 v 1 h 27 v 1 h 26 v -1 h 27 v -1 h 13 v -1 h 13 v -1 h 8 v -1 h 8 v -1 h 8 v -1 h 8 v -1 h 6 v -1 h 5 v -1 h 6 v -1 h 6 v -1 h 5 v -1 h 6 v -1 h 4 v -1 h 4 v -1 h 5 v -1 h 4 v -1 h 4 v -1 h 5 v -1 h 4 v -1 h 3 v -1 h 4 v -1 h 3 v -1 h 4 v -1 h 4 v -1 h 3 v -1 h 4 v -1 h 3 v -1 h 3 v -1 h 3 v -1 h 3 v -1 h 3 v -1 h 3 v -1 h 3 v -1 h 3 v -1 h 3 v -1 h 3 v -1 h 3 v -1 h 3 v -1 h 2 v -1 h 3 v -1 h 2 v -1 h 3 v -1 h 3 v -1 h 2 v -1 h 3 v -1 h 2 v -1 h 3 v -1 h 2 v -1 h 3 v -1 h 2 v -1 h 2 v -1 h 2 v -1 h 3 v -1 h 2 v -1 h 2 v -1 h 2 v -1 h 3 v -1 h 2 v -1 h 2 v -1 h 2 v -1 h 2 v -1 h 2 v -1 h 2 v -1 h 2 v -1 h 2 v -1 h 2 v -1 h 2 v -1 h 2 v -1 h 2 v -1 h 2 v -1 h 2 v -1 h 2 v -1 h 2 v -1 h 2 v -1 h 2 v -1 h 2 v -1 h 2 v -1 h 1 v -1 h 2 v -1 h 2 v -1 h 2 v -1 h 1 v -1 h 2 v -1 h 2 v -1 h 2 v -1 h 1 v -1 h 2 v -1 h 2 v -1 h 2 v -1 h 1 v -1 h 2 v -1 h 2 v -1 h 1 v -1 h 2 v -1 h 1 v -1 h 2 v -1 h 2 v -1 h 1 v -1 h 2 v -1 h 1 v -1 h 2 v -1 h 1 v -1 h 2 v -1 h 2 v -1 h 1 v -1 h 2 v -1 h 1 v -1 h 2 v -1 h 1 v -1 h 1 v -1 h 2 v -1 h 1 v -1 h 2 v -1 h 1 v -1 h 2 v -1 h 1 v -1 h 1 v -1 h 2 v -1 h 1 v -1 h 2 v -1 h 1 v -1 h 2 v -1 h 1 v -1 h 1 v -1 h 2 v -1 h 1 v -1 h 1 v -1 h 2 v -1 h 1 v -1 h 1 v -1 h 1 v -1 h 2 v -1 h 1 v -1 h 1 v -1 h 2 v -1 h 1 v -1 h 1 v -1 h 1 v -1 h 2 v -1 h 1 v -1 h 1 v -1 h 2 v -1 h 1 v -1 h 1 v -1 h 1 v -1 h 1 v -1 h 2 v -1 h 1 v -1 h 1 v -1 h 1 v -1 h 1 v -1 h 1 v -1 h 1 v -1 h 2 v -1 h 1 v -1 h 1 v -1 h 1 v -1 h 1 v -1 h 1 v -1 h 2 v -1 h 1 v -1 h 1 v -1 h 1 v -1 h 1 v -1 h 1 v -1 h 1 v -1 h 1 v -1 h 1 v -1 h 2 v -1 h 1 v -1 h 1 v -1 h 1 v -1 h 1 v -1 h 1 v -1 h 1 v -1 h 1 v -1 h 1 v -1 h 1 v -1 h 1 v -1 h 1 v -1 h 1 v -1 h 1 v -1 h 1 v -1 h 1 v -1 h 1 v -1 h 1 v -1 h 1 v -1 h 1 v -1 h 1 v -1 h 1 v -1 h 1 v -1 h 1 v -1 h 1 v -1 h 1 v -1 h 1 v -1 h 1 v -1 h 1 v -1 h 1 v -1 h 1 v -1 h 1 v -1 h 1 v -1 h 1 v -1 h 1 v -1 h 1 v -1 h 1 v -1 h 1 v -2 h 1 v -1 h 1 v -1 h 1 v -1 h 1 v -1 h 1 v -1 h 1 v -1 h 1 v -2 h 1 v -1 h 1 v -1 h 1 v -1 h 1 v -1 h 1 v -1 h 1 v -1 h 1 v -2 h 1 v -1 h 1 v -1 h 1 v -1 h 1 v -1 h 1 v -1 h 1 v -2 h 1 v -1 h 1 v -1 h 1 v -1 h 1 v -2 h 1 v -1 h 1 v -1 h 1 v -1 h 1 v -2 h 1 v -1 h 1 v -1 h 1 v -1 h 1 v -2 h 1 v -1 h 1 v -1 h 1 v -1 h 1 v -2 h 1 v -1 h 1 v -1 h 1 v -2 h 1 v -1 h 1 v -1 h 1 v -2 h 1 v -1 h 1 v -2 h 1 v -1 h 1 v -1 h 1 v -2 h 1 v -1 h 1 v -2 h 1 v -1 h 1 v -1 h 1 v -2 h 1 v -1 h 1 v -2 h 1 v -1 h 1 v -1 h 1 v -2 h 1 v -1 h 1 v -2 h 1 v -1 h 1 v -2 h 1 v -2 h 1 v -1 h 1 v -2 h 1 v -1 h 1 v -2 h 1 v -1 h 1 v -2 h 1 v -1 h 1 v -2 h 1 v -1 h 1 v -2 h 1 v -2 h 1 v -1 h 1 v -2 h 1 v -2 h 1 v -2 h 1 v -1 h 1 v -2 h 1 v -2 h 1 v -1 h 1 v -2 h 1 v -2 h 1 v -2 h 1 v -1 h 1 v -2 h 1 v -2 h 1 v -2 h 1 v -1 h 1 v -2 h 1 v -2 h 1 v -2 h 1 v -2 h 1 v -2 h 1 v -2 h 1 v -2 h 1 v -2 h 1 v -2 h 1 v -2 h 1 v -2 h 1 v -2 h 1 v -2 h 1 v -2 h 1 v -2 h 1 v -2 h 1 v -2 h 1 v -3 h 1 v -2 h 1 v -2 h 1 v -2 h 1 v -2 h 1 v -2 h 1 v -3 h 1 v -2 h 1 v -2 h 1 v -3 h 1 v -2 h 1 v -3 h 1 v -2 h 1 v -3 h 1 v -2 h 1 v -3 h 1 v -2 h 1 v -3 h 1 v -2 h 1 v -3 h 1 v -3 h 1 v -2 h 1 v -3 h 1 v -3 h 1 v -3 h 1 v -3 h 1 v -3 h 1 v -3 h 1 v -3 h 1 v -3 h 1 v -3 h 1 v -4 h 1 v -3 h 1 v -4 h 1 v -3 h 1 v -4 h 1 v -3 h 1 v -4 h 1 v -3 h 1 v -4 h 1 v -5 h 1 v -4 h 1 v -4 h 1 v -4 h 1 v -5 h 1 v -4 h 1 v -5 h 1 v -6 h 1 v -6 h 1 v -5 h 1 v -6 h 1 v -6 h 1 v -7 h 1 v -8 h 1 v -8 h 1 v -9 h 1 v -13 h 1 v -13 h 1 v -30 h 1 v -14 h -1 v -30 h -1 v -13 h -1 v -13 h -1 v -9 h -1 v -8 h -1 v -8 h -1 v -7 h -1 v -6 h -1 v -6 h -1 v -5 h -1 v -6 h -1 v -6 h -1 v -5 h -1 v -4 h -1 v -4 h -1 v -5 h -1 v -4 h -1 v -4 h -1 v -5 h -1 v -4 h -1 v -3 h -1 v -4 h -1 v -3 h -1 v -4 h -1 v -3 h -1 v -4 h -1 v -3 h -1 v -4 h -1 v -3 h -1 v -3 h -1 v -3 h -1 v -3 h -1 v -3 h -1 v -3 h -1 v -3 h -1 v -3 h -1 v -3 h -1 v -2 h -1 v -3 h -1 v -3 h -1 v -2 h -1 v -3 h -1 v -2 h -1 v -3 h -1 v -2 h -1 v -3 h -1 v -2 h -1 v -3 h -1 v -2 h -1 v -3 h -1 v -2 h -1 v -2 h -1 v -2 h -1 v -3 h -1 v -2 h -1 v -2 h -1 v -2 h -1 v -2 h -1 v -3 h -1 v -2 h -1 v -2 h -1 v -2 h -1 v -2 h -1 v -2 h -1 v -2 h -1 v -2 h -1 v -2 h -1 v -2 h -1 v -2 h -1 v -2 h -1 v -2 h -1 v -2 h -1 v -2 h -1 v -2 h -1 v -2 h -1 v -2 h -1 v -1 h -1 v -2 h -1 v -2 h -1 v -2 h -1 v -1 h -1 v -2 h -1 v -2 h -1 v -2 h -1 v -1 h -1 v -2 h -1 v -2 h -1 v -1 h -1 v -2 h -1 v -2 h -1 v -2 h -1 v -1 h -1 v -2 h -1 v -1 h -1 v -2 h -1 v -2 h -1 v -1 h -1 v -2 h -1 v -1 h -1 v -2 h -1 v -1 h -1 v -2 h -1 v -1 h -1 v -2 h -1 v -1 h -1 v -2 h -1 v -2 h -1 v -1 h -1 v -2 h -1 v -1 h -1 v -1 h -1 v -2 h -1 v -1 h -1 v -2 h -1 v -1 h -1 v -1 h -1 v -2 h -1 v -1 h -1 v -2 h -1 v -1 h -1 v -1 h -1 v -2 h -1 v -1 h -1 v -2 h -1 v -1 h -1 v -1 h -1 v -2 h -1 v -1 h -1 v -1 h -1 v -2 h -1 v -1 h -1 v -1 h -1 v -1 h -1 v -2 h -1 v -1 h -1 v -1 h -1 v -1 h -1 v -2 h -1 v -1 h -1 v -1 h -1 v -1 h -1 v -2 h -1 v -1 h -1 v -1 h -1 v -1 h -1 v -2 h -1 v -1 h -1 v -1 h -1 v -1 h -1 v -1 h -1 v -1 h -1 v -2 h -1 v -1 h -1 v -1 h -1 v -1 h -1 v -1 h -1 v -1 h -1 v -1 h -1 v -2 h -1 v -1 h -1 v -1 h -1 v -1 h -1 v -1 h -1 v -1 h -1 v -1 h -1 v -2 h -1 v -1 h -1 v -1 h -1 v -1 h -1 v -1 h -1 v -1 h -1 v -1 h -1 v -1 h -1 v -1 h -1 v -1 h -1 v -1 h -1 v -1 h -1 v -1 h -1 v -1 h -1 v -1 h -1 v -1 h -1 v -1 h -1 v -1 h -1 v -1 h -1 v -1 h -1 v -1 h -1 v -1 h -1 v -1 h -1 v -1 h -1 v -1 h -1 v -1 h -1 v -1 h -1 v -1 h -1 v -1 h -1 v -1 h -1 v -1 h -1 v -1 h -1 v -1 h -1 v -1 h -1 v -1 h -1 v -1 h -1 v -1 h -2 v -1 h -1 v -1 h -1 v -1 h -1 v -1 h -1 v -1 h -1 v -1 h -1 v -1 h -1 v -1 h -1 v -1 h -1 v -1 h -2 v -1 h -1 v -1 h -1 v -1 h -1 v -1 h -1 v -1 h -1 v -1 h -2 v -1 h -1 v -1 h -1 v -1 h -1 v -1 h -1 v -1 h -1 v -1 h -2 v -1 h -1 v -1 h -1 v -1 h -1 v -1 h -1 v -1 h -2 v -1 h -1 v -1 h -1 v -1 h -1 v -1 h -2 v -1 h -1 v -1 h -1 v -1 h -1 v -1 h -2 v -1 h -1 v -1 h -1 v -1 h -2 v -1 h -1 v -1 h -1 v -1 h -1 v -1 h -2 v -1 h -1 v -1 h -1 v -1 h -2 v -1 h -1 v -1 h -2 v -1 h -1 v -1 h -1 v -1 h -2 v -1 h -1 v -1 h -2 v -1 h -1 v -1 h -1 v -1 h -2 v -1 h -1 v -1 h -2 v -1 h -1 v -1 h -2 v -1 h -1 v -1 h -1 v -1 h -2 v -1 h -1 v -1 h -2 v -1 h -1 v -1 h -2 v -1 h -2 v -1 h -1 v -1 h -2 v -1 h -1 v -1 h -2 v -1 h -2 v -1 h -1 v -1 h -2 v -1 h -1 v -1 h -2 v -1 h -1 v -1 h -2 v -1 h -2 v -1 h -1 v -1 h -2 v -1 h -2 v -1 h -2 v -1 h -1 v -1 h -2 v -1 h -2 v -1 h -2 v -1 h -1 v -1 h -2 v -1 h -2 v -1 h -2 v -1 h -1 v -1 h -2 v -1 h -2 v -1 h -2 v -1 h -2 v -1 h -2 v -1 h -2 v -1 h -2 v -1 h -2 v -1 h -2 v -1 h -2 v -1 h -2 v -1 h -2 v -1 h -2 v -1 h -2 v -1 h -2 v -1 h -2 v -1 h -2 v -1 h -2 v -1 h -2 v -1 h -2 v -1 h -3 v -1 h -2 v -1 h -2 v -1 h -2 v -1 h -3 v -1 h -2 v -1 h -2 v -1 h -2 v -1 h -3 v -1 h -2 v -1 h -3 v -1 h -2 v -1 h -3 v -1 h -3 v -1 h -2 v -1 h -3 v -1 h -2 v -1 h -3 v -1 h -2 v -1 h -3 v -1 h -3 v -1 h -3 v -1 h -3 v -1 h -3 v -1 h -3 v -1 h -3 v -1 h -3 v -1 h -3 v -1 h -3 v -1 h -3 v -1 h -3 v -1 h -4 v -1 h -3 v -1 h -4 v -1 h -4 v -1 h -3 v -1 h -4 v -1 h -3 v -1 h -4 v -1 h -5 v -1 h -4 v -1 h -4 v -1 h -5 v -1 h -4 v -1 h -5 v -1 h -5 v -1 h -5 v -1 h -6 v -1 h -6 v -1 h -5 v -1 h -6 v -1 h -8 v -1 h -8 v -1 h -8 v -1 h -8 v -1 h -13 v -1 h -13 v -1 h -27 v -1 z m -9,10 v -1 h 43 v 1 h 20 v 1 h 13 v 1 h 12 v 1 h 8 v 1 h 8 v 1 h 8 v 1 h 7 v 1 h 5 v 1 h 6 v 1 h 6 v 1 h 5 v 1 h 6 v 1 h 5 v 1 h 4 v 1 h 4 v 1 h 5 v 1 h 4 v 1 h 5 v 1 h 4 v 1 h 4 v 1 h 3 v 1 h 4 v 1 h 3 v 1 h 4 v 1 h 3 v 1 h 4 v 1 h 3 v 1 h 4 v 1 h 3 v 1 h 3 v 1 h 3 v 1 h 3 v 1 h 3 v 1 h 3 v 1 h 3 v 1 h 3 v 1 h 3 v 1 h 2 v 1 h 3 v 1 h 2 v 1 h 3 v 1 h 3 v 1 h 2 v 1 h 3 v 1 h 2 v 1 h 3 v 1 h 2 v 1 h 3 v 1 h 2 v 1 h 3 v 1 h 2 v 1 h 2 v 1 h 2 v 1 h 2 v 1 h 3 v 1 h 2 v 1 h 2 v 1 h 2 v 1 h 3 v 1 h 2 v 1 h 2 v 1 h 2 v 1 h 2 v 1 h 2 v 1 h 2 v 1 h 2 v 1 h 2 v 1 h 2 v 1 h 2 v 1 h 2 v 1 h 2 v 1 h 2 v 1 h 2 v 1 h 2 v 1 h 2 v 1 h 1 v 1 h 2 v 1 h 2 v 1 h 2 v 1 h 1 v 1 h 2 v 1 h 2 v 1 h 2 v 1 h 1 v 1 h 2 v 1 h 2 v 1 h 2 v 1 h 1 v 1 h 2 v 1 h 2 v 1 h 2 v 1 h 1 v 1 h 2 v 1 h 1 v 1 h 2 v 1 h 1 v 1 h 2 v 1 h 2 v 1 h 1 v 1 h 2 v 1 h 1 v 1 h 2 v 1 h 1 v 1 h 2 v 1 h 2 v 1 h 1 v 1 h 2 v 1 h 1 v 1 h 1 v 1 h 2 v 1 h 1 v 1 h 2 v 1 h 1 v 1 h 2 v 1 h 1 v 1 h 1 v 1 h 2 v 1 h 1 v 1 h 2 v 1 h 1 v 1 h 2 v 1 h 1 v 1 h 1 v 1 h 2 v 1 h 1 v 1 h 1 v 1 h 2 v 1 h 1 v 1 h 1 v 1 h 1 v 1 h 2 v 1 h 1 v 1 h 1 v 1 h 2 v 1 h 1 v 1 h 1 v 1 h 1 v 1 h 2 v 1 h 1 v 1 h 1 v 1 h 2 v 1 h 1 v 1 h 1 v 1 h 1 v 1 h 1 v 1 h 2 v 1 h 1 v 1 h 1 v 1 h 1 v 1 h 1 v 1 h 1 v 1 h 2 v 1 h 1 v 1 h 1 v 1 h 1 v 1 h 1 v 1 h 1 v 1 h 2 v 1 h 1 v 1 h 1 v 1 h 1 v 1 h 1 v 1 h 1 v 1 h 1 v 1 h 1 v 1 h 1 v 1 h 1 v 1 h 2 v 1 h 1 v 1 h 1 v 1 h 1 v 1 h 1 v 1 h 1 v 1 h 1 v 1 h 1 v 1 h 1 v 1 h 1 v 1 h 1 v 1 h 1 v 1 h 1 v 1 h 1 v 1 h 1 v 1 h 1 v 1 h 1 v 1 h 1 v 1 h 1 v 1 h 1 v 1 h 1 v 1 h 1 v 1 h 1 v 1 h 1 v 1 h 1 v 1 h 1 v 1 h 1 v 1 h 1 v 1 h 1 v 1 h 1 v 1 h 1 v 1 h 1 v 1 h 1 v 1 h 1 v 1 h 1 v 1 h 1 v 1 h 1 v 2 h 1 v 1 h 1 v 1 h 1 v 1 h 1 v 1 h 1 v 1 h 1 v 1 h 1 v 2 h 1 v 1 h 1 v 1 h 1 v 1 h 1 v 1 h 1 v 1 h 1 v 1 h 1 v 2 h 1 v 1 h 1 v 1 h 1 v 1 h 1 v 1 h 1 v 1 h 1 v 1 h 1 v 2 h 1 v 1 h 1 v 1 h 1 v 2 h 1 v 1 h 1 v 1 h 1 v 1 h 1 v 2 h 1 v 1 h 1 v 1 h 1 v 1 h 1 v 2 h 1 v 1 h 1 v 1 h 1 v 1 h 1 v 2 h 1 v 1 h 1 v 1 h 1 v 2 h 1 v 1 h 1 v 1 h 1 v 2 h 1 v 1 h 1 v 2 h 1 v 1 h 1 v 1 h 1 v 2 h 1 v 1 h 1 v 2 h 1 v 1 h 1 v 1 h 1 v 2 h 1 v 1 h 1 v 1 h 1 v 2 h 1 v 1 h 1 v 2 h 1 v 1 h 1 v 2 h 1 v 2 h 1 v 1 h 1 v 2 h 1 v 1 h 1 v 2 h 1 v 1 h 1 v 2 h 1 v 1 h 1 v 2 h 1 v 1 h 1 v 2 h 1 v 2 h 1 v 1 h 1 v 2 h 1 v 1 h 1 v 2 h 1 v 2 h 1 v 2 h 1 v 1 h 1 v 2 h 1 v 2 h 1 v 2 h 1 v 1 h 1 v 2 h 1 v 2 h 1 v 1 h 1 v 2 h 1 v 2 h 1 v 2 h 1 v 2 h 1 v 2 h 1 v 2 h 1 v 2 h 1 v 1 h 1 v 2 h 1 v 2 h 1 v 2 h 1 v 2 h 1 v 2 h 1 v 2 h 1 v 2 h 1 v 2 h 1 v 2 h 1 v 2 h 1 v 2 h 1 v 3 h 1 v 2 h 1 v 2 h 1 v 2 h 1 v 2 h 1 v 3 h 1 v 2 h 1 v 2 h 1 v 2 h 1 v 2 h 1 v 3 h 1 v 2 h 1 v 3 h 1 v 3 h 1 v 2 h 1 v 3 h 1 v 2 h 1 v 3 h 1 v 2 h 1 v 3 h 1 v 2 h 1 v 3 h 1 v 3 h 1 v 3 h 1 v 3 h 1 v 3 h 1 v 3 h 1 v 3 h 1 v 2 h 1 v 3 h 1 v 3 h 1 v 4 h 1 v 3 h 1 v 4 h 1 v 3 h 1 v 4 h 1 v 3 h 1 v 4 h 1 v 3 h 1 v 4 h 1 v 4 h 1 v 5 h 1 v 4 h 1 v 4 h 1 v 5 h 1 v 4 h 1 v 5 h 1 v 5 h 1 v 6 h 1 v 5 h 1 v 6 h 1 v 5 h 1 v 8 h 1 v 8 h 1 v 8 h 1 v 7 h 1 v 13 h 1 v 13 h 1 v 23 h 1 v 32 h -1 v 23 h -1 v 13 h -1 v 13 h -1 v 7 h -1 v 8 h -1 v 8 h -1 v 8 h -1 v 5 h -1 v 6 h -1 v 5 h -1 v 6 h -1 v 5 h -1 v 5 h -1 v 4 h -1 v 5 h -1 v 4 h -1 v 4 h -1 v 5 h -1 v 4 h -1 v 4 h -1 v 3 h -1 v 4 h -1 v 3 h -1 v 4 h -1 v 3 h -1 v 4 h -1 v 3 h -1 v 4 h -1 v 3 h -1 v 3 h -1 v 2 h -1 v 3 h -1 v 3 h -1 v 3 h -1 v 3 h -1 v 3 h -1 v 3 h -1 v 3 h -1 v 2 h -1 v 3 h -1 v 2 h -1 v 3 h -1 v 2 h -1 v 3 h -1 v 3 h -1 v 2 h -1 v 3 h -1 v 2 h -1 v 3 h -1 v 2 h -1 v 2 h -1 v 2 h -1 v 2 h -1 v 3 h -1 v 2 h -1 v 2 h -1 v 2 h -1 v 2 h -1 v 3 h -1 v 2 h -1 v 2 h -1 v 2 h -1 v 2 h -1 v 2 h -1 v 2 h -1 v 2 h -1 v 2 h -1 v 2 h -1 v 2 h -1 v 2 h -1 v 1 h -1 v 2 h -1 v 2 h -1 v 2 h -1 v 2 h -1 v 2 h -1 v 2 h -1 v 2 h -1 v 1 h -1 v 2 h -1 v 2 h -1 v 1 h -1 v 2 h -1 v 2 h -1 v 2 h -1 v 1 h -1 v 2 h -1 v 2 h -1 v 2 h -1 v 1 h -1 v 2 h -1 v 2 h -1 v 1 h -1 v 2 h -1 v 1 h -1 v 2 h -1 v 1 h -1 v 2 h -1 v 1 h -1 v 2 h -1 v 1 h -1 v 2 h -1 v 2 h -1 v 1 h -1 v 2 h -1 v 1 h -1 v 2 h -1 v 1 h -1 v 2 h -1 v 1 h -1 v 1 h -1 v 2 h -1 v 1 h -1 v 2 h -1 v 1 h -1 v 1 h -1 v 2 h -1 v 1 h -1 v 1 h -1 v 2 h -1 v 1 h -1 v 2 h -1 v 1 h -1 v 1 h -1 v 2 h -1 v 1 h -1 v 1 h -1 v 2 h -1 v 1 h -1 v 1 h -1 v 1 h -1 v 2 h -1 v 1 h -1 v 1 h -1 v 1 h -1 v 2 h -1 v 1 h -1 v 1 h -1 v 1 h -1 v 2 h -1 v 1 h -1 v 1 h -1 v 2 h -1 v 1 h -1 v 1 h -1 v 1 h -1 v 1 h -1 v 1 h -1 v 1 h -1 v 2 h -1 v 1 h -1 v 1 h -1 v 1 h -1 v 1 h -1 v 1 h -1 v 1 h -1 v 2 h -1 v 1 h -1 v 1 h -1 v 1 h -1 v 1 h -1 v 1 h -1 v 2 h -1 v 1 h -1 v 1 h -1 v 1 h -1 v 1 h -1 v 1 h -1 v 1 h -1 v 1 h -1 v 1 h -1 v 1 h -1 v 1 h -1 v 1 h -1 v 1 h -1 v 1 h -1 v 1 h -1 v 1 h -1 v 1 h -1 v 1 h -1 v 1 h -1 v 1 h -1 v 1 h -1 v 1 h -1 v 1 h -1 v 1 h -1 v 1 h -1 v 1 h -1 v 1 h -1 v 1 h -1 v 1 h -1 v 1 h -1 v 1 h -1 v 1 h -1 v 1 h -1 v 1 h -1 v 1 h -1 v 1 h -1 v 1 h -1 v 1 h -2 v 1 h -1 v 1 h -1 v 1 h -1 v 1 h -1 v 1 h -1 v 1 h -1 v 1 h -1 v 1 h -1 v 1 h -1 v 1 h -2 v 1 h -1 v 1 h -1 v 1 h -1 v 1 h -1 v 1 h -1 v 1 h -2 v 1 h -1 v 1 h -1 v 1 h -1 v 1 h -1 v 1 h -1 v 1 h -2 v 1 h -1 v 1 h -1 v 1 h -1 v 1 h -1 v 1 h -2 v 1 h -1 v 1 h -1 v 1 h -2 v 1 h -1 v 1 h -1 v 1 h -1 v 1 h -2 v 1 h -1 v 1 h -1 v 1 h -2 v 1 h -1 v 1 h -1 v 1 h -1 v 1 h -2 v 1 h -1 v 1 h -1 v 1 h -2 v 1 h -1 v 1 h -1 v 1 h -2 v 1 h -1 v 1 h -2 v 1 h -1 v 1 h -2 v 1 h -1 v 1 h -1 v 1 h -2 v 1 h -1 v 1 h -2 v 1 h -1 v 1 h -1 v 1 h -2 v 1 h -1 v 1 h -2 v 1 h -1 v 1 h -2 v 1 h -1 v 1 h -2 v 1 h -2 v 1 h -1 v 1 h -2 v 1 h -1 v 1 h -2 v 1 h -2 v 1 h -1 v 1 h -2 v 1 h -1 v 1 h -2 v 1 h -1 v 1 h -2 v 1 h -2 v 1 h -1 v 1 h -2 v 1 h -2 v 1 h -2 v 1 h -1 v 1 h -2 v 1 h -2 v 1 h -2 v 1 h -1 v 1 h -2 v 1 h -2 v 1 h -2 v 1 h -2 v 1 h -1 v 1 h -2 v 1 h -2 v 1 h -2 v 1 h -2 v 1 h -2 v 1 h -2 v 1 h -2 v 1 h -2 v 1 h -2 v 1 h -2 v 1 h -2 v 1 h -2 v 1 h -2 v 1 h -2 v 1 h -2 v 1 h -2 v 1 h -3 v 1 h -2 v 1 h -2 v 1 h -2 v 1 h -2 v 1 h -3 v 1 h -2 v 1 h -2 v 1 h -2 v 1 h -3 v 1 h -2 v 1 h -3 v 1 h -2 v 1 h -3 v 1 h -2 v 1 h -3 v 1 h -2 v 1 h -3 v 1 h -2 v 1 h -3 v 1 h -3 v 1 h -2 v 1 h -3 v 1 h -3 v 1 h -3 v 1 h -3 v 1 h -3 v 1 h -3 v 1 h -3 v 1 h -3 v 1 h -3 v 1 h -3 v 1 h -4 v 1 h -4 v 1 h -3 v 1 h -4 v 1 h -3 v 1 h -4 v 1 h -3 v 1 h -4 v 1 h -4 v 1 h -5 v 1 h -4 v 1 h -4 v 1 h -5 v 1 h -4 v 1 h -5 v 1 h -5 v 1 h -6 v 1 h -6 v 1 h -5 v 1 h -6 v 1 h -7 v 1 h -8 v 1 h -8 v 1 h -8 v 1 h -11 v 1 h -13 v 1 h -19 v 1 h -47 v -1 h -19 v -1 h -13 v -1 h -12 v -1 h -8 v -1 h -7 v -1 h -8 v -1 h -7 v -1 h -6 v -1 h -6 v -1 h -5 v -1 h -6 v -1 h -6 v -1 h -4 v -1 h -5 v -1 h -4 v -1 h -4 v -1 h -5 v -1 h -4 v -1 h -4 v -1 h -4 v -1 h -4 v -1 h -3 v -1 h -4 v -1 h -3 v -1 h -4 v -1 h -3 v -1 h -4 v -1 h -3 v -1 h -3 v -1 h -3 v -1 h -3 v -1 h -3 v -1 h -3 v -1 h -3 v -1 h -3 v -1 h -3 v -1 h -3 v -1 h -3 v -1 h -2 v -1 h -3 v -1 h -3 v -1 h -2 v -1 h -3 v -1 h -2 v -1 h -3 v -1 h -2 v -1 h -3 v -1 h -2 v -1 h -3 v -1 h -2 v -1 h -2 v -1 h -3 v -1 h -2 v -1 h -2 v -1 h -2 v -1 h -2 v -1 h -3 v -1 h -2 v -1 h -2 v -1 h -2 v -1 h -3 v -1 h -2 v -1 h -2 v -1 h -2 v -1 h -2 v -1 h -1 v -1 h -2 v -1 h -2 v -1 h -2 v -1 h -2 v -1 h -2 v -1 h -2 v -1 h -2 v -1 h -2 v -1 h -2 v -1 h -2 v -1 h -2 v -1 h -1 v -1 h -2 v -1 h -2 v -1 h -2 v -1 h -1 v -1 h -2 v -1 h -2 v -1 h -2 v -1 h -1 v -1 h -2 v -1 h -2 v -1 h -2 v -1 h -2 v -1 h -1 v -1 h -2 v -1 h -1 v -1 h -2 v -1 h -1 v -1 h -2 v -1 h -2 v -1 h -1 v -1 h -2 v -1 h -1 v -1 h -2 v -1 h -1 v -1 h -2 v -1 h -2 v -1 h -1 v -1 h -2 v -1 h -1 v -1 h -2 v -1 h -1 v -1 h -1 v -1 h -2 v -1 h -1 v -1 h -2 v -1 h -1 v -1 h -1 v -1 h -2 v -1 h -1 v -1 h -2 v -1 h -1 v -1 h -2 v -1 h -1 v -1 h -1 v -1 h -2 v -1 h -1 v -1 h -2 v -1 h -1 v -1 h -1 v -1 h -1 v -1 h -2 v -1 h -1 v -1 h -1 v -1 h -1 v -1 h -2 v -1 h -1 v -1 h -1 v -1 h -2 v -1 h -1 v -1 h -1 v -1 h -1 v -1 h -2 v -1 h -1 v -1 h -1 v -1 h -2 v -1 h -1 v -1 h -1 v -1 h -1 v -1 h -1 v -1 h -1 v -1 h -2 v -1 h -1 v -1 h -1 v -1 h -1 v -1 h -1 v -1 h -1 v -1 h -2 v -1 h -1 v -1 h -1 v -1 h -1 v -1 h -1 v -1 h -1 v -1 h -1 v -1 h -2 v -1 h -1 v -1 h -1 v -1 h -1 v -1 h -1 v -1 h -1 v -1 h -1 v -1 h -1 v -1 h -1 v -1 h -1 v -1 h -1 v -1 h -1 v -1 h -1 v -1 h -1 v -1 h -1 v -1 h -2 v -1 h -1 v -1 h -1 v -1 h -1 v -1 h -1 v -1 h -1 v -1 h -1 v -1 h -1 v -1 h -1 v -1 h -1 v -1 h -1 v -1 h -1 v -1 h -1 v -1 h -1 v -1 h -1 v -1 h -1 v -2 h -1 v -1 h -1 v -1 h -1 v -1 h -1 v -1 h -1 v -1 h -1 v -1 h -1 v -1 h -1 v -1 h -1 v -1 h -1 v -1 h -1 v -1 h -1 v -1 h -1 v -1 h -1 v -1 h -1 v -2 h -1 v -1 h -1 v -1 h -1 v -1 h -1 v -1 h -1 v -1 h -1 v -1 h -1 v -2 h -1 v -1 h -1 v -1 h -1 v -1 h -1 v -1 h -1 v -1 h -1 v -1 h -1 v -2 h -1 v -1 h -1 v -1 h -1 v -1 h -1 v -1 h -1 v -2 h -1 v -1 h -1 v -1 h -1 v -1 h -1 v -2 h -1 v -1 h -1 v -1 h -1 v -2 h -1 v -1 h -1 v -1 h -1 v -1 h -1 v -2 h -1 v -1 h -1 v -1 h -1 v -1 h -1 v -2 h -1 v -1 h -1 v -1 h -1 v -2 h -1 v -1 h -1 v -2 h -1 v -1 h -1 v -1 h -1 v -2 h -1 v -1 h -1 v -1 h -1 v -2 h -1 v -1 h -1 v -2 h -1 v -1 h -1 v -1 h -1 v -2 h -1 v -1 h -1 v -2 h -1 v -1 h -1 v -2 h -1 v -1 h -1 v -2 h -1 v -1 h -1 v -2 h -1 v -1 h -1 v -2 h -1 v -2 h -1 v -1 h -1 v -2 h -1 v -1 h -1 v -2 h -1 v -1 h -1 v -2 h -1 v -1 h -1 v -2 h -1 v -2 h -1 v -1 h -1 v -2 h -1 v -2 h -1 v -2 h -1 v -1 h -1 v -2 h -1 v -2 h -1 v -2 h -1 v -1 h -1 v -2 h -1 v -2 h -1 v -1 h -1 v -2 h -1 v -2 h -1 v -2 h -1 v -2 h -1 v -2 h -1 v -2 h -1 v -2 h -1 v -2 h -1 v -1 h -1 v -2 h -1 v -2 h -1 v -2 h -1 v -2 h -1 v -2 h -1 v -2 h -1 v -2 h -1 v -2 h -1 v -3 h -1 v -2 h -1 v -2 h -1 v -2 h -1 v -2 h -1 v -2 h -1 v -3 h -1 v -2 h -1 v -2 h -1 v -2 h -1 v -2 h -1 v -3 h -1 v -2 h -1 v -3 h -1 v -2 h -1 v -3 h -1 v -2 h -1 v -3 h -1 v -2 h -1 v -3 h -1 v -3 h -1 v -2 h -1 v -3 h -1 v -3 h -1 v -3 h -1 v -3 h -1 v -2 h -1 v -3 h -1 v -3 h -1 v -3 h -1 v -3 h -1 v -3 h -1 v -3 h -1 v -4 h -1 v -3 h -1 v -4 h -1 v -3 h -1 v -4 h -1 v -3 h -1 v -4 h -1 v -3 h -1 v -5 h -1 v -4 h -1 v -4 h -1 v -4 h -1 v -5 h -1 v -4 h -1 v -4 h -1 v -6 h -1 v -5 h -1 v -6 h -1 v -6 h -1 v -5 h -1 v -7 h -1 v -7 h -1 v -8 h -1 v -8 h -1 v -10 h -1 v -13 h -1 v -13 h -1 v -64 h 1 v -13 h 1 v -13 h 1 v -10 h 1 v -8 h 1 v -8 h 1 v -7 h 1 v -7 h 1 v -5 h 1 v -6 h 1 v -6 h 1 v -5 h 1 v -6 h 1 v -4 h 1 v -4 h 1 v -5 h 1 v -4 h 1 v -4 h 1 v -4 h 1 v -5 h 1 v -3 h 1 v -4 h 1 v -3 h 1 v -4 h 1 v -3 h 1 v -4 h 1 v -3 h 1 v -4 h 1 v -3 h 1 v -3 h 1 v -3 h 1 v -3 h 1 v -3 h 1 v -3 h 1 v -2 h 1 v -3 h 1 v -3 h 1 v -3 h 1 v -3 h 1 v -2 h 1 v -3 h 1 v -2 h 1 v -3 h 1 v -3 h 1 v -2 h 1 v -3 h 1 v -2 h 1 v -3 h 1 v -2 h 1 v -3 h 1 v -2 h 1 v -2 h 1 v -2 h 1 v -2 h 1 v -2 h 1 v -3 h 1 v -2 h 1 v -2 h 1 v -2 h 1 v -2 h 1 v -3 h 1 v -2 h 1 v -2 h 1 v -2 h 1 v -2 h 1 v -2 h 1 v -2 h 1 v -2 h 1 v -1 h 1 v -2 h 1 v -2 h 1 v -2 h 1 v -2 h 1 v -2 h 1 v -2 h 1 v -2 h 1 v -2 h 1 v -2 h 1 v -1 h 1 v -2 h 1 v -2 h 1 v -1 h 1 v -2 h 1 v -2 h 1 v -2 h 1 v -1 h 1 v -2 h 1 v -2 h 1 v -2 h 1 v -1 h 1 v -2 h 1 v -2 h 1 v -1 h 1 v -2 h 1 v -1 h 1 v -2 h 1 v -1 h 1 v -2 h 1 v -1 h 1 v -2 h 1 v -2 h 1 v -1 h 1 v -2 h 1 v -1 h 1 v -2 h 1 v -1 h 1 v -2 h 1 v -1 h 1 v -2 h 1 v -1 h 1 v -2 h 1 v -1 h 1 v -1 h 1 v -2 h 1 v -1 h 1 v -1 h 1 v -2 h 1 v -1 h 1 v -2 h 1 v -1 h 1 v -1 h 1 v -2 h 1 v -1 h 1 v -2 h 1 v -1 h 1 v -1 h 1 v -2 h 1 v -1 h 1 v -1 h 1 v -1 h 1 v -2 h 1 v -1 h 1 v -1 h 1 v -1 h 1 v -2 h 1 v -1 h 1 v -1 h 1 v -2 h 1 v -1 h 1 v -1 h 1 v -1 h 1 v -2 h 1 v -1 h 1 v -1 h 1 v -1 h 1 v -1 h 1 v -2 h 1 v -1 h 1 v -1 h 1 v -1 h 1 v -1 h 1 v -1 h 1 v -1 h 1 v -2 h 1 v -1 h 1 v -1 h 1 v -1 h 1 v -1 h 1 v -1 h 1 v -1 h 1 v -2 h 1 v -1 h 1 v -1 h 1 v -1 h 1 v -1 h 1 v -1 h 1 v -1 h 1 v -1 h 1 v -1 h 1 v -1 h 1 v -1 h 1 v -1 h 1 v -1 h 1 v -1 h 1 v -1 h 1 v -1 h 1 v -2 h 1 v -1 h 1 v -1 h 1 v -1 h 1 v -1 h 1 v -1 h 1 v -1 h 1 v -1 h 1 v -1 h 1 v -1 h 1 v -1 h 1 v -1 h 1 v -1 h 1 v -1 h 1 v -1 h 2 v -1 h 1 v -1 h 1 v -1 h 1 v -1 h 1 v -1 h 1 v -1 h 1 v -1 h 1 v -1 h 1 v -1 h 1 v -1 h 1 v -1 h 1 v -1 h 1 v -1 h 1 v -1 h 1 v -1 h 2 v -1 h 1 v -1 h 1 v -1 h 1 v -1 h 1 v -1 h 1 v -1 h 2 v -1 h 1 v -1 h 1 v -1 h 1 v -1 h 1 v -1 h 1 v -1 h 2 v -1 h 1 v -1 h 1 v -1 h 1 v -1 h 1 v -1 h 1 v -1 h 2 v -1 h 1 v -1 h 1 v -1 h 1 v -1 h 2 v -1 h 1 v -1 h 1 v -1 h 1 v -1 h 2 v -1 h 1 v -1 h 1 v -1 h 2 v -1 h 1 v -1 h 1 v -1 h 1 v -1 h 2 v -1 h 1 v -1 h 1 v -1 h 2 v -1 h 1 v -1 h 1 v -1 h 2 v -1 h 1 v -1 h 1 v -1 h 2 v -1 h 1 v -1 h 2 v -1 h 1 v -1 h 2 v -1 h 1 v -1 h 1 v -1 h 2 v -1 h 1 v -1 h 2 v -1 h 1 v -1 h 1 v -1 h 2 v -1 h 1 v -1 h 2 v -1 h 2 v -1 h 1 v -1 h 2 v -1 h 1 v -1 h 2 v -1 h 1 v -1 h 2 v -1 h 2 v -1 h 1 v -1 h 2 v -1 h 1 v -1 h 2 v -1 h 1 v -1 h 2 v -1 h 2 v -1 h 1 v -1 h 2 v -1 h 2 v -1 h 2 v -1 h 1 v -1 h 2 v -1 h 2 v -1 h 2 v -1 h 1 v -1 h 2 v -1 h 2 v -1 h 2 v -1 h 1 v -1 h 2 v -1 h 2 v -1 h 2 v -1 h 2 v -1 h 2 v -1 h 2 v -1 h 2 v -1 h 2 v -1 h 2 v -1 h 2 v -1 h 2 v -1 h 2 v -1 h 2 v -1 h 1 v -1 h 2 v -1 h 2 v -1 h 3 v -1 h 2 v -1 h 2 v -1 h 2 v -1 h 3 v -1 h 2 v -1 h 2 v -1 h 2 v -1 h 3 v -1 h 2 v -1 h 2 v -1 h 2 v -1 h 3 v -1 h 2 v -1 h 3 v -1 h 2 v -1 h 3 v -1 h 2 v -1 h 3 v -1 h 3 v -1 h 2 v -1 h 3 v -1 h 2 v -1 h 3 v -1 h 3 v -1 h 3 v -1 h 3 v -1 h 3 v -1 h 3 v -1 h 3 v -1 h 3 v -1 h 3 v -1 h 3 v -1 h 3 v -1 h 4 v -1 h 3 v -1 h 4 v -1 h 3 v -1 h 4 v -1 h 3 v -1 h 4 v -1 h 4 v -1 h 4 v -1 h 4 v -1 h 5 v -1 h 4 v -1 h 5 v -1 h 4 v -1 h 4 v -1 h 6 v -1 h 6 v -1 h 5 v -1 h 6 v -1 h 6 v -1 h 7 v -1 h 8 v -1 h 8 v -1 h 8 v -1 h 11 v -1 h 14 v -1" /></g></g></g><g
         id="g156"><g
           clip-path="url(#clipPath162)"
           id="g158"><path
             id="path164"
             style="fill:#272929;fill-opacity:1;fill-rule:nonzero;stroke:none"
             d="m 919.848,1419.77 c 41.816,87.76 77.875,166.77 119.682,254.57 1.55,3.21 9.73,4.33 13.28,4.33 64.02,0 135.27,0.2 199.28,0.2 5.79,0 9.94,-5.5 7.43,-10.75 -90.52,-189.82 -184.99,-385.8 -275.555,-575.6 -1.516,-3.28 -3.707,-5 -7.293,-5 -37.61,0 -91.16,0 -128.785,0 -3.645,0 -5.774,1.76 -7.356,5.03 -43.566,91.9 -76.664,185.5 -120.312,277.44 -2.871,6.05 -8.864,1.41 -11.707,-4.66 -15.539,-33.46 -33.18,-69.71 -50.871,-103.94 -3.825,-7.39 -23.325,-10.77 -29.633,3.2 -28.91,64.07 -42.293,133.52 -75.219,195.68 -1.348,2.47 -1.387,4.53 -0.129,7.07 32.344,69.22 58.402,137.95 90.801,207.2 1.519,3.27 3.531,4.14 7.176,4.14 41.504,0 84.937,0.07 126.504,0.07 3.664,0 5.64,-1.3 7.211,-4.59 41.546,-87.72 79.046,-166.57 121.429,-255 2.907,-6.07 11.227,-5.47 14.067,0.61" /><path
             id="path166"
             style="fill:#272929;fill-opacity:1;fill-rule:nonzero;stroke:none"
             d="m 620.68,1188.95 c -76.34,159.51 -155.625,325.48 -231.856,485.47 -1.515,3.22 -3.769,4.44 -7.32,4.45 -63.961,0.09 -135.777,-0.35 -200.238,-0.35 -7.719,0 -14.84,-7.52 -12.414,-12.45 90.855,-187.52 173.105,-383.21 263.265,-571.02 1.578,-3.23 3.074,-7.47 6.617,-7.47 41.399,0.15 93.547,-0.06 131.828,-0.06 3.555,0 5.407,1.21 6.844,4.46 19.489,40.62 34.867,72.38 43.332,90.17 1.133,2.41 1.133,4.37 -0.058,6.8" /><path
             id="path168"
             style="fill:#d91920;fill-opacity:1;fill-rule:nonzero;stroke:none"
             d="m 903.16,1412.38 c 41.586,87.36 83.172,174.71 124.77,262.05 1.51,3.21 3.51,4.46 7.09,4.46 63.65,0 132.07,0 195.73,0 5.76,0 9.58,-6 7.09,-11.24 -90.04,-188.89 -180.12,-377.74 -270.149,-566.62 -1.535,-3.25 -3.507,-4.5 -7.093,-4.5 -37.45,0 -79.653,0 -117.078,0 -3.622,0 -5.571,1.28 -7.102,4.5 -43.41,91.46 -86.793,182.88 -130.188,274.32 -2.851,6.04 -11.332,5.97 -14.242,-0.07 -16.383,-33.86 -35.168,-72.75 -52.125,-108.67 -2.738,-5.9 -9.886,-6.14 -12.75,-0.3 -32.383,66.06 -63.734,131.45 -94.73,196.63 -1.207,2.54 -1.375,4.48 -0.188,7.02 32.223,68.9 64.274,135.09 97.457,204.38 1.575,3.29 3.512,4.55 7.149,4.55 41.312,0 78.402,0 119.715,0 3.644,0 5.597,-1.26 7.14,-4.57 41.676,-88.19 83.594,-174.91 125.239,-261.82 2.886,-6.04 11.382,-6.12 14.265,-0.12" /><path
             id="path170"
             style="fill:#464f4c;fill-opacity:1;fill-rule:nonzero;stroke:none"
             d="m 599.359,1190.23 c -77.23,160.94 -155.101,323.97 -232.273,484.59 -1.543,3.2 -3.766,4.17 -7.336,4.17 -64.801,0 -129.391,-0.06 -194.215,-0.06 -5.805,0 -9.621,-5.77 -7.097,-11 90.707,-188.88 179.738,-377.72 270.457,-566.61 1.543,-3.22 3.796,-4.76 7.359,-4.76 38.59,0 78.504,-0.08 117.066,-0.08 3.559,0 5.543,1.62 7.086,4.84 13.731,28.8 25.254,53.36 38.992,82.08 1.153,2.49 1.153,4.37 -0.039,6.83" /><path
             id="path172"
             style="fill:#231f20;fill-opacity:1;fill-rule:nonzero;stroke:none"
             d="m 4788.46,629.629 -1.71,0.133 c -22.78,2.988 -43.42,12.297 -59.61,26.879 -6.01,5.39 -9.09,13.66 -8.47,22.687 0.67,9.621 5.45,18.32 12.8,23.274 3.43,1.957 5.57,2.918 6.98,3.386 0.9,0.301 2.65,0.313 4.37,0.621 l 3.18,-0.14 c 0.63,-0.129 1.32,-0.188 2.05,-0.27 3.24,-0.359 8.04,-0.879 11.22,-4.519 l 44.96,-42.621 c 6.05,-7.161 5.86,-15.411 0.13,-20.219 l -1.5,-1.391 c -3.76,-3.48 -8.43,-7.82 -14.4,-7.82 z m -83.98,-351.91 c -7.32,0 -11.8,3.312 -14.25,6.09 -3.25,3.64 -7.76,9.371 -9.23,16.711 -1.76,5.601 -3.08,13.96 -3.54,22.789 -1.84,48.293 7.66,92.589 29.85,139.511 4.74,9.719 14.84,15.95 25.78,15.95 10.17,0 19.07,-5.161 24.39,-14.129 l 0.52,-1.082 c 1.39,-3.45 3.31,-8.18 2.36,-13.118 -1.28,-6.621 -3.41,-13.363 -6.33,-20.031 -7.16,-15.769 -12.62,-32.66 -17.89,-49 -1.63,-5.031 -3.24,-10.039 -4.91,-15.012 -6.71,-20.898 -12.14,-41.558 -4.75,-63.41 l 0.39,-2.008 c 0.09,-1.671 -0.33,-5 -0.33,-5 l -0.3,-1.351 c -1.17,-6.129 -9.3,-14.617 -15.53,-16.219 -2.45,-0.492 -4.38,-0.691 -6.23,-0.691" /><path
             id="path174"
             style="fill:#231f20;fill-opacity:1;fill-rule:nonzero;stroke:none"
             d="m 4806.3,280.09 c -2.73,0 -5.39,0.898 -8.16,2.738 -8.73,6.711 -13.02,14.973 -12.51,23.57 0.43,6.602 10.95,85.743 13.28,104.122 0.99,7.781 1.64,15.07 2.84,22.781 5.78,31.508 11.73,63.89 16.87,96.07 0.14,2.238 -2.24,2.738 -4.67,2.738 -12.8,-1.418 -25.7,-2.847 -38.55,-3.519 l -1.06,-0.031 c -11.68,0 -22.87,10.531 -23.46,22.101 -0.67,12.86 6.58,25.07 16.5,27.828 7.6,2.332 14,3.961 19.33,4.922 4.32,0.711 8.47,1.328 12.57,1.93 9.01,1.34 17.52,2.601 25.99,4.539 7.97,1.59 13.25,6.152 16.4,14 0.51,1.391 1.15,3.062 1.83,4.793 1.59,4.098 4.47,11.379 5.73,15.906 3.75,11.883 9.06,27.5 15.38,44.692 3.72,10.14 8.58,20.218 11.85,30.371 l 0.72,1.558 c 0.91,1.52 1.95,3.43 3.45,5.102 0.95,1.039 1.41,1.719 2.66,2.969 4.57,4.57 11.53,7.199 17.13,7.199 3.37,0 8.19,-0.617 12.11,-3.559 11.15,-7.101 13.19,-15.781 12.86,-21.762 -0.61,-5.328 -2.36,-10.429 -3.78,-14.519 l -0.43,-1.27 c -9.25,-24.609 -18.19,-47.91 -27.42,-71.558 -1.25,-3.75 4.49,-3.551 6.4,-3.75 3.87,-0.391 7.94,-0.422 11.97,-0.211 l 62.41,3.019 c 0,0 5.06,0.461 8.28,0.629 12.19,0.621 25.03,1.602 37.65,1.274 l 9.38,-0.602 c 35.75,-2.269 72.73,-4.621 108.23,-15.57 7.13,-2.43 10.56,-8.52 9.4,-16.36 -0.51,-3.421 -1.17,-10.71 -9.03,-13.269 -0.94,-0.473 -3.75,-0.941 -5.63,-1.41 -3.28,-0.16 -5.82,-0.461 -7.59,-0.461 -4.68,0 -9.4,-0.141 -14.12,-0.25 -4.85,-0.141 -9.7,-0.52 -14.52,-0.27 -9.55,0.508 -18.56,1.41 -26.24,2.039 -30.81,2.532 -51.12,2.532 -85.78,-0.89 -36.32,-3.598 -67.95,-8.957 -97.42,-11.199 -6.75,-0.36 -10.29,-2.918 -12.4,-8.848 -2.83,-8.274 -5.15,-15.231 -6.88,-22.301 -0.84,-2.73 -1.73,-6.121 -2.39,-8.441 -1.51,-5.328 -4.25,-16.18 -5.16,-19.219 -8.75,-29.223 -12.94,-47.262 -17.76,-77.051 l -8.65,-49.519 c -2.12,-14.063 -4.63,-29.379 -8.13,-59.719 -0.94,-8.121 -5.33,-13.242 -9.15,-16.613 l -1.01,-0.887 c -3.18,-2.652 -6.15,-3.832 -9.32,-3.832" /><path
             id="path176"
             style="fill:#231f20;fill-opacity:1;fill-rule:nonzero;stroke:none"
             d="m 5283.38,305.09 c -2.72,0 -5.39,0.898 -8.15,2.738 -8.73,6.711 -13.03,14.973 -12.51,23.57 0.43,6.602 8.8,77.762 12.18,103.75 1.01,7.782 2.73,15.442 3.93,23.153 5.78,31.508 11.73,63.89 16.88,96.07 0.13,2.238 -2.25,2.738 -4.67,2.738 -12.81,-1.418 -25.7,-2.847 -38.56,-3.519 l -1.05,-0.031 c -11.68,0 -22.87,10.531 -23.47,22.101 -0.66,12.86 6.58,25.07 16.51,27.828 7.59,2.332 13.99,3.961 19.32,4.922 4.33,0.711 8.48,1.328 12.57,1.93 9.01,1.34 17.52,2.601 26,4.539 7.96,1.59 13.25,6.152 16.39,14 0.51,1.391 1.15,3.062 1.83,4.793 1.59,4.098 3.24,8.348 4.5,12.879 6.44,20.527 10.04,32.258 16.61,47.719 4.22,9.941 8.59,20.218 11.86,30.371 l 0.71,1.558 c 0.91,1.52 1.95,3.43 3.46,5.102 0.95,1.039 1.4,1.719 2.65,2.969 4.58,4.57 11.54,7.199 17.13,7.199 3.37,0 8.2,-0.617 12.11,-3.559 11.15,-7.101 13.2,-15.781 12.86,-21.762 -0.6,-5.328 -2.36,-10.429 -3.78,-14.519 l -0.43,-1.27 c -9.24,-24.609 -18.19,-47.91 -27.42,-71.558 -1.25,-3.75 4.5,-3.551 6.41,-3.75 3.87,-0.391 7.94,-0.422 11.96,-0.211 l 62.41,3.019 c 0,0 5.07,0.461 8.28,0.629 12.19,0.621 25.03,1.602 37.65,1.274 l 9.39,-0.602 c 35.75,-2.269 72.72,-4.621 108.22,-15.57 7.13,-2.43 10.57,-8.52 9.4,-16.36 -0.5,-3.421 -1.17,-10.71 -9.03,-13.269 -0.94,-0.473 -3.75,-0.941 -5.63,-1.41 -3.28,-0.16 -5.81,-0.461 -7.58,-0.461 -4.69,0 -9.41,-0.141 -14.12,-0.25 -4.86,-0.141 -9.7,-0.27 -14.53,-0.27 -10.57,0 -18.66,0.629 -26.24,2.039 -25.57,4.52 -52.53,4.282 -85.78,-0.89 -36.11,-5.297 -67.95,-8.957 -97.42,-11.199 -6.75,-0.36 -10.28,-2.918 -12.39,-8.848 -2.83,-8.274 -5.16,-15.231 -6.89,-22.301 -0.84,-2.73 -1.73,-6.121 -2.39,-8.441 -1.5,-5.328 -4.24,-16.18 -5.16,-19.219 -8.75,-29.223 -12.93,-47.262 -17.76,-77.051 0,0 -13.12,-78.16 -16.78,-109.238 -0.95,-8.121 -5.33,-13.242 -9.15,-16.613 l -1,-0.887 c -3.19,-2.652 -6.15,-3.832 -9.33,-3.832" /><path
             id="path178"
             style="fill:#231f20;fill-opacity:1;fill-rule:nonzero;stroke:none"
             d="m 6439.54,397.371 c -6.24,0 -11.31,2.457 -14.27,8.879 -3.75,6.66 -4.53,12.441 -4.73,16.52 7.79,97.082 27.65,180.648 60.72,256.46 6.22,16.629 16.86,31.989 32.38,46.59 5.11,5.731 13.12,9.719 18.87,11.969 10.93,3.77 19.15,-0.75 25.42,-5.269 8.07,-6.051 11.54,-14.309 10.39,-24.602 l -0.3,-1.688 c -0.84,-4.421 -1.98,-10.402 -5.77,-14.96 -33.38,-52.75 -53.96,-111.43 -68.17,-156.68 -2.45,-7.891 -4.95,-15.781 -7.44,-23.641 -10.56,-33.32 -20.53,-64.801 -27.26,-97.988 -2.03,-7.34 -4.31,-9.191 -7.86,-11.5 -0.69,-0.449 -4.55,-2.352 -4.55,-2.352 -2.47,-1.148 -4.97,-1.738 -7.43,-1.738 z M 6432,311.238 c -13.28,0 -23.88,11.102 -25.77,27.012 -0.81,6.238 1.11,12.781 5.42,18.289 5.38,6.91 13.77,11.492 23,12.563 0.67,0.089 1.49,0.148 2.31,0.148 13.22,0 26.98,-14.82 27.79,-29.922 0.33,-6.316 -2.17,-12.617 -7.04,-17.75 -6.13,-6.457 -15.34,-10.316 -24.61,-10.316 l -1.1,-0.024" /><path
             id="path180"
             style="fill:#231f20;fill-opacity:1;fill-rule:nonzero;stroke:none"
             d="m 5543.11,501.391 c -3.05,-17.93 -9.55,-29.551 -17.94,-39.77 -26.47,-32.351 -56.13,-59.723 -87.49,-81.93 -6.43,-4.55 -8.48,-4.742 -9.72,-4.66 h -0.48 c -0.68,0.047 -1.89,0.731 -2.29,1.18 -1.38,2.527 -0.71,7.117 -0.71,7.117 4.98,40.781 20.53,76.293 46.21,105.551 15.97,18.34 32.97,29.961 51.54,35.461 3.5,0.84 6.56,-0.121 8.72,-1.899 4.76,-4.863 8.13,-8.98 9.76,-11.742 2.5,-5.129 2.91,-6.359 2.4,-9.308 z m 476.33,-33.68 c 8.12,11.449 12.05,15.879 12.01,15.961 7.39,10.758 36.66,27.887 51.23,27.887 0.47,0 0.93,-0.02 1.85,-0.079 0.59,-0.058 1.92,-0.39 3,-0.71 4.82,-1.809 12.95,-18.692 7.68,-24.981 -7.87,-9.41 -58.14,-32.719 -74.32,-33.68 -2.91,0.18 -5.32,1.653 -6.41,4.141 -1.09,2.5 2.33,7.75 4.96,11.461 z m 366.69,83.75 -0.98,1.187 c -2.73,2.711 -7.8,7.762 -14.37,9.954 -21.01,7.019 -43.57,13.507 -66.3,13.507 -3.3,0 -7.13,0.141 -11.92,-0.281 -28.08,-1.797 -49.54,-10.148 -69.42,-24.848 -12.88,-9.019 -21.29,-20.019 -25.14,-33.121 -3.99,-16.968 -0.36,-32.91 10.63,-48.058 3.69,-6.449 8.41,-12.153 13.14,-15.93 7.34,-6.531 14.95,-13.269 24.26,-20.051 2.82,-2.011 5.42,-4.019 8.04,-6.039 2.72,-2.082 5.42,-4.172 8.03,-6.011 2.49,-1.989 5.05,-3.981 7.64,-5.989 5.84,-4.543 11.9,-9.23 17.94,-14.64 1.83,-1.371 3.73,-3.481 4.46,-5.731 0.52,-1.582 -1.08,-3.629 -1.04,-3.949 -9.93,-13.801 -19.53,-20.602 -31.14,-26.063 -23.37,-12.468 -49.21,-18.796 -76.79,-18.796 -0.6,0 -1.49,0.058 -2.57,0.738 1.39,0.859 2.89,1.629 4.25,2.5 l 4.81,4.629 c 4.82,3.851 7.61,10.531 6.77,16.23 -0.63,4.262 -3.17,7.59 -7.42,9.281 -0.39,0.141 -0.85,0.329 -1.33,0.54 -3.35,1.39 -9.16,3.031 -13.37,0.839 -7.99,-2.98 -15.78,-6.55 -23.32,-10.019 -7.47,-3.43 -15.2,-6.981 -22.78,-9.781 -29.92,-10.559 -59.08,-17.071 -91.78,-20.489 -3.75,-0.379 -8.84,0.121 -12.82,1.371 -5.24,1.668 -12.52,5.879 -16.36,11.61 -7.03,9.148 -9.98,20.551 -8.5,33.09 1.95,19.379 4.35,24.918 5.57,26.5 l 0.12,0.019 c 1.04,0.918 3.33,0.09 7.29,-0.332 1.8,-0.187 4.78,0.231 7.04,0.262 12.77,0.898 44.31,8.09 55.92,13.449 5.23,2.621 10.89,5.09 16.68,7.629 18.33,8.031 38.84,17.332 51.55,33.051 13.81,17.07 3.18,47.281 -1.49,60.133 -8.5,23.347 -23.97,39.398 -46.09,39.398 -4.27,0 -8.52,-0.629 -12.6,-1.832 -5.71,-1.629 -12.56,-4.117 -19.67,-7.188 -25.08,-12.55 -40.39,-23.281 -57.8,-38.441 -4.47,-3.57 -14.67,-14.969 -17.74,-20.09 -15.77,-24.07 -26.54,-51.98 -31.97,-82.789 -3.26,-16.199 -4.43,-33.949 -3.48,-52.988 0.31,-3.91 0.98,-7.723 1.9,-11.434 -6.71,2.434 -13.18,4.903 -19.17,7.321 -39.21,15.293 -73.82,41.921 -102.64,78.832 -1.46,2.089 -1.99,5.019 -1.38,7.468 0.23,0.879 0.81,2.481 2,3.071 22.58,10.468 41.98,24.66 60.73,38.379 6.53,4.781 13.07,9.582 19.84,14.281 12.06,8.601 18.88,20.789 19.73,35.672 0,17.179 -18.76,31.808 -35.46,23.988 -21.15,-10.898 -41.47,-24.211 -63.84,-41.789 -13.71,-10.281 -29.15,-19.461 -44.15,-28.332 -21.97,-3.168 -31.45,-19.219 -38.56,-36.629 -0.56,-1.699 -2.2,-4.699 -6.83,-9.332 -0.91,-0.906 -2.08,-2.078 -3.24,-3.098 9.2,28.801 18.58,56.551 27.89,82.621 14.1,40.399 32.71,87.09 63.71,126.938 2.83,3.539 4.94,7.891 6.79,11.73 l 1.27,2.59 c 5.31,10.602 -0.02,28.16 -10.95,36.11 -4.68,3.41 -10.88,5.293 -17.45,5.293 -8.81,0 -16.49,-3.454 -20.62,-9.364 -1.19,-1.777 -13.46,-22.41 -23.05,-44.91 -4.54,-10.656 -22.91,-49.129 -27.44,-60.308 -6.72,-16.5 -12.96,-34.09 -18.99,-51.11 l -3.54,-9.93 c -6.18,-18.308 -11.97,-36.949 -17.58,-54.992 -11.36,-36.578 -22.59,-74.629 -38.3,-110 -0.61,-1.367 -1.93,-5.988 -2.29,-8.429 -0.13,-0.868 -0.25,-1.719 -0.51,-2.829 -0.36,-1.789 -0.35,-3.652 -0.2,-5.531 -1.51,-0.16 -3.06,-0.301 -4.54,-0.469 -3.57,-0.57 -8.83,-1.3 -13.1,-1.261 l -4.52,0.051 c -27.07,0.371 -43.92,10.73 -52.93,32.691 0,0 -12.31,27.949 -8.14,56.699 2.6,17.969 5.29,25.981 12.07,36.59 9.55,13.199 18.2,28.551 26.98,44.219 2.59,6.25 0.73,14.351 -2.33,19.82 -3.33,7.57 -10.72,12.762 -18.96,13.289 l -3.39,0.07 -1.79,-0.199 c -3.04,-0.699 -6.83,-1.59 -10.65,-3.449 -2.17,-1.051 -4.04,-1.41 -5.49,-1.391 -0.92,0.063 -1.59,0.262 -2.36,0.7 -3.07,2.98 -6.51,5.429 -7.46,6.062 -4.15,3.367 -7.32,5.789 -10.53,7.707 -8.06,6.402 -17.89,10.051 -27.88,10.192 -6.02,0.07 -12.98,-1.411 -19.32,-4.051 -20.4,-7.59 -36.6,-17.028 -49.56,-28.891 -45.87,-42.566 -71.88,-96.687 -77.31,-160.887 l -0.03,-1.3 c 0,0 -0.18,-0.68 -0.19,-3.821 0,-2.511 0.34,-9.422 0.8,-11.109 2.63,-23.563 23.01,-37.801 42.02,-39.012 0.66,-0.039 1.31,-0.058 1.97,-0.07 5.94,-0.07 11.48,1.781 15.65,3.391 l 1.01,0.48 c 11.37,6.52 24.41,14.559 35.2,25.141 7.72,8.289 15.66,16.031 22.67,22.879 3.8,3.71 7.42,7.441 11.04,11.16 3.63,3.73 7.26,7.468 11.08,11.211 3.13,3.05 6.29,5.757 9.43,8.07 2.15,-3.84 3.23,-8.41 4.47,-13.609 0.34,-1.063 0.67,-2.301 1.02,-3.532 0.37,-1.41 0.76,-2.82 1.12,-3.929 8.61,-28.442 22.2,-47.2 43.09,-59.211 18.98,-9.75 37.47,-14.75 55.23,-15 5.59,-0.059 10.43,-0.121 15.57,0.691 10.1,1.547 19.85,3.957 27.21,5.879 0,0 3.79,0.871 7.54,2.121 3.09,1.418 5.66,2.758 7.98,4.07 3.28,1.309 7.51,4.27 13.68,9.887 1.48,1.34 5.21,5.832 6.25,7.082 l 2.51,3.301 c 16.22,27.039 37.56,47.769 63.12,71.078 0.33,0.09 1.04,1.461 2.63,1.082 5.14,-4.109 10.25,-9.09 15.98,-15.551 48.27,-54.742 110.99,-87.859 186.48,-98.422 11.45,-1.488 23.96,-2.769 35.62,-3.668 0.1,-0.011 0.2,-0.031 0.3,-0.05 6.48,-0.578 14.99,-1.25 23.57,-1.25 13.29,0 24.61,1.621 34.45,4.91 23.04,7.172 44.69,15.859 65.1,25.699 3.54,-5.98 8.34,-11.621 16.8,-15.391 12.37,-5.289 24.95,-7.98 37.39,-7.98 6.23,0 15.8,1.133 22.3,2.082 l 15.21,2.5 c 29.32,4.879 60.91,19.531 91.05,41.621 2.91,2.129 7.91,7.957 11.72,12.508 11.62,14.269 13.42,31.789 5.15,49.199 -4.54,10.922 -11.86,20.16 -21.75,27.473 -0.92,0.847 -1.97,1.719 -3.05,2.578 -0.8,0.641 -1.62,1.281 -2.97,2.531 -11.06,8.5 -23.14,17.141 -33.89,24.809 -10.01,6.929 -19.42,15.531 -27.11,24.75 -3.68,4.601 -4.05,11.461 -1.65,15.57 2.4,4.109 7.08,10 13.85,12.762 6.78,2.758 7.66,4.558 34.9,5.777 3.37,0.152 11.04,-0.418 15.24,-1.066 2.67,-0.422 5.6,-0.782 9.21,-1.051 2.28,-0.172 4.84,-0.359 8.66,-0.742 1.66,0 3.31,-0.168 5.11,-0.328 2.61,-0.243 18.94,-1.032 23.13,-1.032 0,0 5.47,-0.148 12.75,0.539 7.27,0.692 12.87,6.832 14.66,12.262 1.27,5.141 0.18,11.488 -2.69,15.801" /><path
             id="path182"
             style="fill:#231f20;fill-opacity:1;fill-rule:nonzero;stroke:none"
             d="m 4028.45,421.609 c -1.91,-18.089 -7.66,-30.089 -15.38,-40.839 -24.35,-33.961 -52.21,-63.168 -82.09,-87.329 -6.13,-4.953 -8.16,-5.261 -9.41,-5.261 l -0.48,-0.032 c -0.68,0 -1.93,0.602 -2.35,1.02 -1.54,2.441 -1.17,7.062 -1.17,7.062 2.38,41.02 15.63,77.442 39.39,108.282 14.78,19.316 31,32.008 49.18,38.668 3.44,1.07 6.56,0.3 8.83,-1.34 5.06,-4.539 8.68,-8.442 10.49,-11.09 2.82,-4.969 3.3,-6.172 2.99,-9.141 z m 461.65,204.02 c -2.4,4.301 -7.32,5.851 -11.65,5.851 -0.04,0 -0.08,0 -0.11,0 -4.25,-0.23 -9.06,-0.48 -12.81,-1.621 -16.51,-4.847 -30.52,-14.519 -41.71,-28.8 -41.66,-54.489 -70.95,-112.387 -89.54,-177.028 l -2.11,-7.422 c -20.87,-73.461 -20.87,-73.461 -96.25,-112.718 l -2.89,-1.52 c -5,-2.473 -9.58,-4.191 -14.84,-5.582 -0.42,-0.109 -5.79,-1.199 -9.59,-1.269 -6.67,-0.122 -8.33,4.742 -9.77,7.601 -4.13,8.18 -0.21,45.258 1.38,53.359 5.58,28.571 20.7,64.93 25.53,75.829 8.49,19.152 27.86,56.961 39.83,76.98 18.67,31.262 37.36,58.242 61.54,79.371 4.82,3.602 9.35,8.602 13.31,12.961 10.54,11.731 9.65,30.57 -1.96,41.988 -4.71,4.661 -11.25,7.231 -18.4,7.231 -9.13,0 -17.71,-4.172 -22.88,-11.102 -11.94,-15.629 -23.26,-31.398 -34.59,-47.179 -44.04,-59.008 -88.57,-123.028 -107.07,-199.45 0,0 -6.13,-22.589 -9.26,-35.398 -1.35,-5.551 -2.74,-11.68 -3.96,-17.031 -2.91,-10.551 -2.91,-21.571 -2.89,-32.231 l -0.01,-6.539 c 0.25,-4.699 0.5,-9.57 1.61,-15.129 0.61,-3.66 1.85,-7.152 3.34,-10.531 -2.46,-0.441 -5.04,-0.82 -7.37,-0.949 l -4.51,-0.231 c -27.04,-1.359 -44.51,7.91 -54.91,29.25 l -0.6,1.36 c -2.38,5.429 -23.36,51.711 -1.41,91.992 8.68,13.789 16.33,29.648 24.1,45.848 2.19,6.402 -0.19,14.371 -3.59,19.628 -3.81,7.34 -11.51,12.063 -19.76,12.063 l -3.39,-0.152 -1.78,-0.309 c -2.99,-0.898 -6.71,-2.02 -10.41,-4.121 -2.1,-1.199 -3.93,-1.668 -5.39,-1.738 -0.92,0 -1.6,0.148 -2.39,0.539 -3.25,2.789 -6.85,5.011 -7.83,5.582 -4.36,3.097 -7.68,5.308 -11.01,7.019 -8.45,5.879 -18.49,8.887 -28.47,8.399 -6.01,-0.321 -12.86,-2.239 -19.02,-5.27 -19.87,-8.879 -35.44,-19.332 -47.62,-32 -43.06,-45.39 -65.57,-101.07 -66.9,-165.48 l 0.05,-1.301 c 0,0 -0.14,-0.688 0.06,-3.828 0.15,-2.5 0.93,-9.371 1.5,-11.031 4.12,-23.34 25.37,-36.25 44.41,-36.25 0.67,0 1.32,0.011 1.98,0.039 5.94,0.32 11.34,2.511 15.4,4.39 l 0.97,0.551 c 10.94,7.219 23.44,16.078 33.54,27.328 7.17,8.762 14.6,16.992 21.16,24.274 3.56,3.937 6.93,7.898 10.3,11.839 3.39,3.957 6.78,7.918 10.36,11.899 2.92,3.238 5.9,6.14 8.89,8.648 2.38,-3.699 3.75,-8.179 5.32,-13.297 0.42,-1.043 0.82,-2.25 1.25,-3.461 0.46,-1.371 0.94,-2.761 1.37,-3.851 10.4,-27.828 25.16,-45.688 46.77,-56.34 19.56,-8.519 38.34,-12.34 56.07,-11.449 5.59,0.289 10.42,0.539 15.5,1.672 9.98,2.199 19.55,5.218 26.78,7.609 l 1.33,0.578 c 1.29,0.731 2.67,1.281 4.08,1.762 3.52,-0.75 7.08,-1.223 10.66,-1.012 14.66,0.762 26.21,2.641 36.54,5.981 13.06,4.59 25.12,11.422 36.96,18.129 6.01,3 12,6.402 18,9.8 5.74,3.25 11.48,6.52 17.81,9.731 1.79,1.101 2.75,1.238 2.74,1.39 0.2,-0.25 1.05,-1.48 1.48,-5.089 2.33,-15.84 8.22,-30.243 18.42,-45.11 8.1,-12.59 20.89,-19.902 34.86,-20.043 1.88,-0.078 3.75,-0.109 5.62,-0.109 31.14,0 61.11,9.43 91.29,28.621 3.27,1.852 6.71,6.711 7.54,10.25 0.61,2.559 -0.35,5.898 -1.66,8.121 -2.04,3.438 -5.99,6.149 -13.93,6.07 l -2.58,-0.3 c -13.84,-1.762 -26.47,-4.481 -39.95,-6.813 -6.99,-1.199 -15.21,-3.488 -22.54,-3.219 -8.5,0.301 -10.43,2.442 -14.18,9.161 -3.75,6.718 -11.69,15.441 -6.94,64.519 3.03,31.422 19.31,67.231 25.53,84.231 4.69,12.808 12.19,30.941 12.19,30.941 14.69,38.117 47.12,97.578 81.49,135.758 6.22,6.91 11.06,13.461 14.29,19.281 2.61,4.41 1.73,10.121 -2.72,17.879" /><path
             id="path184"
             style="fill:#231f20;fill-opacity:1;fill-rule:nonzero;stroke:none"
             d="m 3684.78,0 c -6.45,0 -9.57,7.01953 -10.41,11.1719 -1.28,6.4883 1.5,12.1797 7.1,14.5078 19.94,8.2695 39.96,14.9101 62.21,22.1289 531.57,172.3204 1126.09,194.8204 1603.79,212.8904 l 35.03,1.332 c 204.84,7.778 416.66,15.797 625.62,15.797 178.63,0 336.74,-5.867 483.39,-17.949 10.8,-0.879 18.05,-8.988 17.61,-19.731 -0.45,-11 -9.4,-22.929 -24.81,-21.546 l -10.99,0.91 c -18.26,1.527 -32.7,2.738 -52.4,3.707 -188.89,9.351 -390.26,14.09 -598.51,14.09 -398.79,0 -800.01,-17.161 -1160.28,-49.649 -274.14,-24.719 -461.17,-48.879 -722.68,-112.3592 l -3.48,-0.8516 C 3852.89,54.2891 3766.98,33.4414 3687.81,0.609375 L 3686.43,0.03125 3684.78,0" /></g></g></g></g></svg>