<?xml version="1.0" encoding="UTF-8"?>
<svg id="Layer_2" data-name="Layer 2" xmlns="http://www.w3.org/2000/svg" viewBox="0 0 249 40">
  <defs>
    <style>
      .cls-1 {
        fill: #fff;
      }

      .cls-1, .cls-2 {
        fill-rule: evenodd;
      }

      .cls-2 {
        fill: #165129;
      }
    </style>
  </defs>
  <g id="Layer_1-2" data-name="Layer 1">
    <g id="Layer_1-3" data-name="Layer 1">
      <g id="Group">
        <path id="Vector" class="cls-1" d="M66.57,11.54l-14.13,17.56v3.2h19.61v-3.82h-14.13l14.13-17.56v-3.2h-19.18v3.82h13.7ZM99.19,7.7h-17.73v24.57h17.9v-3.91h-13.72v-6.57h12.01v-3.91h-12.01v-6.33h13.55v-3.91.04ZM125.2,24.71l-12.81-17h-3.9v24.57h4.18V14.78l13.18,17.49h3.53V7.7h-4.18v17ZM160.5,28.35l-2.71-2.82c-1.02.98-2.06,1.75-3.12,2.33-1.04.58-2.32.87-3.77.87-1.15,0-2.19-.22-3.16-.69-.97-.47-1.8-1.09-2.51-1.89-.71-.8-1.26-1.73-1.64-2.8-.39-1.07-.59-2.2-.59-3.42s.2-2.35.59-3.4c.39-1.04.93-1.98,1.64-2.75.71-.78,1.54-1.4,2.51-1.86.97-.47,2.03-.69,3.16-.69,1.36,0,2.6.29,3.66.84,1.08.56,2.1,1.31,3.05,2.22l2.71-3.2c-.56-.56-1.17-1.09-1.82-1.55-.65-.47-1.34-.87-2.08-1.22-.74-.36-1.58-.6-2.49-.8-.91-.18-1.9-.29-2.99-.29-1.82,0-3.48.33-5,1s-2.81,1.58-3.9,2.73c-1.1,1.15-1.95,2.51-2.55,4.06-.61,1.55-.91,3.2-.91,4.95s.3,3.44.93,4.99c.63,1.55,1.47,2.89,2.55,4.02,1.08,1.13,2.36,2.04,3.85,2.69,1.49.64,3.1.98,4.87.98,1.12,0,2.14-.09,3.07-.29s1.77-.49,2.55-.89c.78-.38,1.49-.84,2.16-1.38.67-.53,1.32-1.13,1.93-1.8M192.36,19.96c0-1.73-.3-3.37-.93-4.91-.61-1.55-1.47-2.89-2.57-4.04-1.1-1.15-2.4-2.06-3.94-2.73-1.54-.67-3.23-1-5.07-1s-3.55.33-5.06,1.02c-1.54.69-2.86,1.6-3.98,2.75-1.13,1.15-1.99,2.51-2.6,4.06-.63,1.53-.93,3.17-.93,4.91s.3,3.37.93,4.91c.61,1.55,1.47,2.89,2.58,4.04,1.1,1.15,2.4,2.06,3.94,2.73,1.54.67,3.23,1,5.06,1s3.53-.33,5.07-1.02c1.54-.69,2.86-1.6,3.96-2.75,1.13-1.15,1.99-2.51,2.6-4.06.61-1.55.93-3.17.93-4.93M187.95,20.04c0,1.2-.2,2.33-.61,3.4s-.95,2-1.67,2.77c-.71.78-1.56,1.4-2.55,1.86-1,.47-2.08.69-3.27.69s-2.29-.22-3.29-.71c-1-.47-1.86-1.09-2.58-1.89-.71-.8-1.28-1.73-1.69-2.8-.41-1.07-.61-2.2-.61-3.4s.19-2.33.61-3.4c.39-1.07.95-2,1.67-2.77.71-.78,1.56-1.4,2.55-1.86,1-.47,2.08-.69,3.27-.69s2.27.24,3.29.71c1,.47,1.86,1.11,2.58,1.89.71.8,1.28,1.73,1.69,2.8.39,1.07.61,2.2.61,3.4ZM221.93,32.3l-6.47-9.3c.84-.24,1.62-.58,2.32-1,.69-.42,1.3-.95,1.8-1.58.5-.62.89-1.33,1.17-2.15.28-.8.43-1.73.43-2.75,0-1.2-.19-2.29-.63-3.24-.41-.98-1-1.8-1.75-2.46-.76-.67-1.69-1.18-2.81-1.53-1.1-.36-2.34-.55-3.72-.55h-10.67v24.57h4.18v-8.57h5.28l5.91,8.57h4.98ZM216.88,15.74c0,1.27-.45,2.29-1.34,3.04-.89.75-2.1,1.13-3.61,1.13h-6.19v-8.28h6.15c1.58,0,2.81.36,3.68,1.04s1.3,1.73,1.3,3.09M249,15.96c0-1.27-.22-2.4-.63-3.4-.43-1-1.04-1.86-1.82-2.6-.78-.73-1.75-1.29-2.88-1.66-1.13-.38-2.38-.58-3.79-.58h-9.44v24.57h4.18v-7.9h4.76c1.34,0,2.57-.18,3.74-.55,1.17-.36,2.19-.89,3.05-1.6.87-.71,1.56-1.58,2.06-2.64.5-1.07.76-2.26.76-3.66M244.74,16.05c0,1.33-.45,2.42-1.38,3.22-.93.82-2.19,1.22-3.79,1.22h-4.91v-8.88h4.91c1.58,0,2.84.38,3.79,1.11.93.73,1.41,1.84,1.41,3.33"/>
        <path id="Vector_2" data-name="Vector 2" class="cls-2" d="M9,37.4c2.84,1.66,6.12,2.6,9.61,2.6s6.77-.95,9.61-2.6c4.26-2.49,7.53-6.57,9-11.45h-7.47l-11.17,11.45-11.17-11.45,11.6-11.9h18.2c-1.47-4.88-4.74-8.97-9-11.45-2.84-1.64-6.12-2.6-9.61-2.6s-6.77.95-9.61,2.6C4.74,5.08,1.47,9.17,0,14.05h7.47L18.63,2.6l11.17,11.45-11.6,11.9H0c1.47,4.88,4.74,8.97,9,11.45Z"/>
      </g>
    </g>
  </g>
</svg>