<svg width="250" height="41" viewBox="0 0 250 41" fill="none" xmlns="http://www.w3.org/2000/svg">
<g id="Layer 1">
<g id="Group">
<path id="Vector" fill-rule="evenodd" clip-rule="evenodd" d="M67.5021 11.8947L53.3694 29.453V32.6494H72.9777V28.8314H58.845L72.9777 11.2732V8.07673H53.8022V11.8947H67.5021ZM100.118 8.05453H82.3923V32.6272H100.291V28.7205H86.5694V22.15H98.5811V18.2432H86.5694V11.9169H100.118V8.01013V8.05453ZM126.132 25.0579L113.32 8.05453H109.424V32.6272H113.601V15.1355L126.782 32.6272H130.309V8.05453H126.132V25.0579ZM161.432 28.6983L158.726 25.8792C157.709 26.8559 156.67 27.6328 155.61 28.2099C154.571 28.787 153.294 29.0756 151.844 29.0756C150.697 29.0756 149.658 28.8536 148.684 28.3875C147.71 27.9213 146.888 27.2998 146.174 26.5007C145.459 25.7016 144.918 24.7693 144.529 23.7038C144.139 22.6383 143.944 21.5062 143.944 20.2854C143.944 19.0645 144.139 17.9324 144.529 16.8892C144.918 15.8459 145.459 14.9136 146.174 14.1367C146.888 13.3597 147.71 12.7382 148.684 12.2721C149.658 11.8059 150.719 11.5839 151.844 11.5839C153.207 11.5839 154.441 11.8725 155.502 12.4274C156.584 12.9824 157.601 13.7371 158.553 14.6472L161.259 11.4508C160.696 10.8958 160.09 10.3631 159.441 9.89693C158.791 9.43078 158.099 9.03122 157.363 8.67606C156.627 8.3209 155.783 8.07673 154.874 7.87695C153.965 7.69937 152.969 7.58838 151.887 7.58838C150.069 7.58838 148.403 7.92134 146.888 8.58727C145.373 9.2532 144.074 10.1633 142.992 11.3176C141.888 12.4718 141.044 13.8259 140.438 15.3797C139.832 16.9335 139.529 18.5762 139.529 20.3298C139.529 22.0834 139.832 23.7704 140.46 25.3242C141.088 26.8781 141.932 28.2099 143.014 29.342C144.096 30.4741 145.373 31.3842 146.866 32.0279C148.359 32.6716 149.961 33.0046 151.736 33.0046C152.861 33.0046 153.878 32.9158 154.809 32.716C155.74 32.5162 156.584 32.2277 157.363 31.8281C158.142 31.4508 158.856 30.9846 159.527 30.4519C160.198 29.9191 160.847 29.3198 161.453 28.6539M193.29 20.3076C193.29 18.5762 192.987 16.9336 192.359 15.4019C191.753 13.8481 190.888 12.5162 189.784 11.362C188.68 10.2077 187.381 9.29759 185.845 8.63166C184.308 7.96574 182.62 7.63277 180.78 7.63277C178.941 7.63277 177.231 7.96574 175.716 8.65386C174.179 9.34199 172.859 10.2521 171.734 11.4064C170.608 12.5606 169.743 13.9147 169.137 15.4685C168.509 17.0001 168.206 18.6428 168.206 20.3742C168.206 22.1056 168.509 23.7482 169.137 25.2798C169.743 26.8337 170.608 28.1655 171.712 29.3198C172.816 30.4741 174.114 31.3842 175.651 32.0501C177.188 32.716 178.876 33.049 180.715 33.049C182.555 33.049 184.243 32.716 185.78 32.0279C187.316 31.3398 188.637 30.4297 189.74 29.2754C190.866 28.1211 191.732 26.7671 192.338 25.2132C192.944 23.6594 193.268 22.039 193.268 20.2854M188.875 20.3964C188.875 21.595 188.68 22.7271 188.269 23.7926C187.858 24.8581 187.316 25.7904 186.602 26.5673C185.888 27.3442 185.044 27.9657 184.048 28.4319C183.053 28.898 181.971 29.12 180.78 29.12C179.59 29.12 178.486 28.898 177.491 28.4097C176.495 27.9435 175.629 27.322 174.915 26.5229C174.201 25.7238 173.638 24.7915 173.227 23.726C172.816 22.6605 172.621 21.5284 172.621 20.3298C172.621 19.1311 172.816 17.999 173.227 16.9335C173.617 15.8681 174.179 14.9358 174.894 14.1589C175.608 13.3819 176.452 12.7604 177.447 12.2943C178.443 11.8281 179.525 11.6061 180.715 11.6061C181.906 11.6061 182.988 11.8503 184.005 12.3165C185.001 12.7826 185.866 13.4263 186.581 14.2033C187.295 15.0024 187.858 15.9347 188.269 17.0001C188.658 18.0656 188.875 19.1977 188.875 20.3964ZM222.854 32.6494L216.383 23.3486C217.227 23.1045 218.006 22.7715 218.698 22.3498C219.391 21.928 219.997 21.3953 220.495 20.7737C220.993 20.1522 221.382 19.4419 221.663 18.6206C221.945 17.8215 222.096 16.8892 222.096 15.8681C222.096 14.6694 221.902 13.5817 221.469 12.6272C221.058 11.6505 220.473 10.8292 219.716 10.1633C218.958 9.49737 218.028 8.98682 216.902 8.63166C215.798 8.2765 214.565 8.07673 213.18 8.07673H202.51V32.6494H206.687V24.0812H211.968L217.876 32.6494H222.832H222.854ZM217.811 16.09C217.811 17.3553 217.357 18.3764 216.469 19.1311C215.582 19.8858 214.37 20.2632 212.855 20.2632H206.665V11.9835H212.812C214.392 11.9835 215.625 12.3387 216.491 13.0268C217.357 13.7149 217.789 14.7582 217.789 16.1122M249.929 16.312C249.929 15.0468 249.713 13.9147 249.301 12.9158C248.868 11.9169 248.262 11.0512 247.483 10.3187C246.704 9.58616 245.73 9.03122 244.605 8.65386C243.479 8.2765 242.224 8.07673 240.817 8.07673H231.381V32.6494H235.558V24.7471H240.32C241.661 24.7471 242.895 24.5695 244.064 24.1922C245.232 23.837 246.25 23.3042 247.115 22.5939C247.981 21.8836 248.674 21.0179 249.171 19.9524C249.669 18.8869 249.929 17.6883 249.929 16.2898M245.665 16.4008C245.665 17.7327 245.211 18.8203 244.28 19.6195C243.35 20.4408 242.094 20.8403 240.493 20.8403H235.58V11.9613H240.493C242.073 11.9613 243.328 12.3387 244.28 13.0712C245.211 13.8037 245.687 14.9136 245.687 16.4008" fill="black"/>
<path id="Vector_2" fill-rule="evenodd" clip-rule="evenodd" d="M9.93234 37.7549C12.7675 39.4198 16.0572 40.3521 19.5417 40.3521C23.0262 40.3521 26.3159 39.3976 29.1511 37.7549C33.4147 35.2688 36.6828 31.1845 38.1545 26.301H30.6878L19.5201 37.7549L8.35242 26.301L19.9529 14.4031H38.1545C36.6828 9.51964 33.4147 5.43529 29.1511 2.94917C26.3159 1.30655 23.0262 0.352051 19.5417 0.352051C16.0572 0.352051 12.7675 1.30655 9.93234 2.94917C5.66872 5.43529 2.40066 9.51964 0.928955 14.4031H8.39571L19.5634 2.94917L30.731 14.4031L19.1305 26.301H0.928955C2.40066 31.1845 5.66872 35.2688 9.93234 37.7549Z" fill="#165129"/>
</g>
</g>
</svg>
